VotoSerifGX-ExtendedBoldText.ufo
<glyph name="dollar" format="2">
  <advance width="672"/>
  <unicode hex="0024"/>
  <outline>
    <contour>
      <point x="311" y="-79" type="line"/>
      <point x="382" y="-79" type="line"/>
      <point x="382" y="45" type="line"/>
      <point x="530" y="61"/>
      <point x="621" y="149"/>
      <point x="621" y="254" type="curve" smooth="yes"/>
      <point x="621" y="378"/>
      <point x="499" y="421"/>
      <point x="382" y="459" type="curve"/>
      <point x="382" y="619" type="line"/>
      <point x="419" y="600"/>
      <point x="445" y="568"/>
      <point x="445" y="514" type="curve"/>
      <point x="554" y="514"/>
      <point x="585" y="555"/>
      <point x="585" y="597" type="curve" smooth="yes"/>
      <point x="585" y="640"/>
      <point x="518" y="678"/>
      <point x="382" y="684" type="curve"/>
      <point x="382" y="760" type="line"/>
      <point x="311" y="760" type="line"/>
      <point x="311" y="684" type="line"/>
      <point x="181" y="671"/>
      <point x="83" y="602"/>
      <point x="83" y="499" type="curve" smooth="yes"/>
      <point x="83" y="420"/>
      <point x="128" y="359"/>
      <point x="311" y="288" type="curve"/>
      <point x="311" y="111" type="line"/>
      <point x="217" y="132"/>
      <point x="190" y="191"/>
      <point x="190" y="288" type="curve"/>
      <point x="133" y="288"/>
      <point x="62" y="271"/>
      <point x="62" y="191" type="curve" smooth="yes"/>
      <point x="62" y="152"/>
      <point x="110" y="50"/>
      <point x="311" y="43" type="curve"/>
    </contour>
    <contour>
      <point x="382" y="112" type="curve"/>
      <point x="382" y="264" type="line"/>
      <point x="439" y="240"/>
      <point x="460" y="213"/>
      <point x="460" y="185" type="curve" smooth="yes"/>
      <point x="460" y="154"/>
      <point x="433" y="124"/>
    </contour>
    <contour>
      <point x="311" y="492" type="line"/>
      <point x="261" y="516"/>
      <point x="241" y="542"/>
      <point x="241" y="562" type="curve" smooth="yes"/>
      <point x="241" y="599"/>
      <point x="277" y="618"/>
      <point x="311" y="621" type="curve"/>
    </contour>
  </outline>
</glyph>
<glyph name="percent" format="2">
  <advance width="1065"/>
  <unicode hex="0025"/>
  <outline>
    <contour>
      <point x="284" y="0" type="line"/>
      <point x="386" y="0" type="line"/>
      <point x="777" y="714" type="line"/>
      <point x="677" y="714" type="line"/>
    </contour>
    <contour>
      <point x="255" y="280" type="curve" smooth="yes"/>
      <point x="404" y="280"/>
      <point x="478" y="369"/>
      <point x="478" y="503" type="curve" smooth="yes"/>
      <point x="478" y="637"/>
      <point x="404" y="724"/>
      <point x="256" y="724" type="curve" smooth="yes"/>
      <point x="96" y="724"/>
      <point x="31" y="637"/>
      <point x="31" y="503" type="curve" smooth="yes"/>
      <point x="31" y="369"/>
      <point x="96" y="280"/>
    </contour>
    <contour>
      <point x="254" y="342" type="curve" smooth="yes"/>
      <point x="202" y="342"/>
      <point x="182" y="402"/>
      <point x="182" y="503" type="curve" smooth="yes"/>
      <point x="182" y="602"/>
      <point x="202" y="661"/>
      <point x="256" y="661" type="curve" smooth="yes"/>
      <point x="308" y="661"/>
      <point x="326" y="602"/>
      <point x="326" y="503" type="curve" smooth="yes"/>
      <point x="326" y="402"/>
      <point x="308" y="342"/>
    </contour>
    <contour>
      <point x="812" y="-10" type="curve" smooth="yes"/>
      <point x="962" y="-10"/>
      <point x="1036" y="79"/>
      <point x="1036" y="213" type="curve" smooth="yes"/>
      <point x="1036" y="347"/>
      <point x="962" y="434"/>
      <point x="813" y="434" type="curve" smooth="yes"/>
      <point x="653" y="434"/>
      <point x="588" y="347"/>
      <point x="588" y="213" type="curve" smooth="yes"/>
      <point x="588" y="79"/>
      <point x="653" y="-10"/>
    </contour>
    <contour>
      <point x="812" y="52" type="curve" smooth="yes"/>
      <point x="759" y="52"/>
      <point x="739" y="112"/>
      <point x="739" y="213" type="curve" smooth="yes"/>
      <point x="739" y="312"/>
      <point x="759" y="371"/>
      <point x="813" y="371" type="curve" smooth="yes"/>
      <point x="866" y="371"/>
      <point x="883" y="312"/>
      <point x="883" y="213" type="curve" smooth="yes"/>
      <point x="883" y="112"/>
      <point x="866" y="52"/>
    </contour>
  </outline>
</glyph>
<glyph name="asterisk" format="2">
  <advance width="587"/>
  <unicode hex="002A"/>
  <outline>
    <contour>
      <point x="223" y="337" type="line"/>
      <point x="372" y="337" type="line"/>
      <point x="326" y="504" type="line"/>
      <point x="496" y="386" type="line"/>
      <point x="558" y="512" type="line"/>
      <point x="366" y="557" type="line"/>
      <point x="558" y="587" type="line"/>
      <point x="496" y="715" type="line"/>
      <point x="326" y="600" type="line"/>
      <point x="375" y="762" type="line"/>
      <point x="223" y="762" type="line"/>
      <point x="267" y="596" type="line"/>
      <point x="97" y="717" type="line"/>
      <point x="36" y="588" type="line"/>
      <point x="232" y="557" type="line"/>
      <point x="36" y="511" type="line"/>
      <point x="97" y="386" type="line"/>
      <point x="266" y="506" type="line"/>
    </contour>
  </outline>
</glyph>
<glyph name="comma" format="2">
  <advance width="379"/>
  <unicode hex="002C"/>
  <outline>
    <contour>
      <point x="65" y="-154" type="line"/>
      <point x="226" y="-118"/>
      <point x="287" y="-41"/>
      <point x="287" y="46" type="curve" smooth="yes"/>
      <point x="287" y="128"/>
      <point x="252" y="182"/>
      <point x="173" y="182" type="curve" smooth="yes"/>
      <point x="123" y="182"/>
      <point x="77" y="155"/>
      <point x="77" y="100" type="curve" smooth="yes"/>
      <point x="77" y="-4"/>
      <point x="162" y="11"/>
      <point x="162" y="-25" type="curve" smooth="yes"/>
      <point x="162" y="-61"/>
      <point x="127" y="-68"/>
      <point x="65" y="-90" type="curve"/>
    </contour>
  </outline>
</glyph>
<glyph name="period" format="2">
  <advance width="379"/>
  <unicode hex="002E"/>
  <outline>
    <contour>
      <point x="190" y="-10" type="curve" smooth="yes"/>
      <point x="249" y="-10"/>
      <point x="301" y="14"/>
      <point x="301" y="86" type="curve" smooth="yes"/>
      <point x="301" y="160"/>
      <point x="249" y="182"/>
      <point x="190" y="182" type="curve" smooth="yes"/>
      <point x="127" y="182"/>
      <point x="78" y="160"/>
      <point x="78" y="86" type="curve" smooth="yes"/>
      <point x="78" y="14"/>
      <point x="127" y="-10"/>
    </contour>
  </outline>
</glyph>
<glyph name="two" format="2">
  <advance width="672"/>
  <unicode hex="0032"/>
  <outline>
    <contour>
      <point x="42" y="0" type="line"/>
      <point x="626" y="0" type="line"/>
      <point x="632" y="254" type="line"/>
      <point x="548" y="254" type="line"/>
      <point x="535" y="209" type="line" smooth="yes"/>
      <point x="520" y="160"/>
      <point x="471" y="146"/>
      <point x="439" y="146" type="curve" smooth="yes"/>
      <point x="190" y="146" type="line"/>
      <point x="352" y="255" type="line" smooth="yes"/>
      <point x="612" y="443"/>
      <point x="602" y="479"/>
      <point x="602" y="548" type="curve" smooth="yes"/>
      <point x="602" y="652"/>
      <point x="507" y="724"/>
      <point x="314" y="724" type="curve" smooth="yes"/>
      <point x="128" y="724"/>
      <point x="42" y="641"/>
      <point x="42" y="572" type="curve" smooth="yes"/>
      <point x="42" y="481"/>
      <point x="125" y="458"/>
      <point x="217" y="458" type="curve"/>
      <point x="217" y="615"/>
      <point x="254" y="650"/>
      <point x="314" y="650" type="curve" smooth="yes"/>
      <point x="349" y="650"/>
      <point x="383" y="635"/>
      <point x="383" y="551" type="curve" smooth="yes"/>
      <point x="383" y="444"/>
      <point x="352" y="386"/>
      <point x="194" y="253" type="curve" smooth="yes"/>
      <point x="42" y="127" type="line"/>
    </contour>
  </outline>
</glyph>
<glyph name="nine" format="2">
  <advance width="672"/>
  <unicode hex="0039"/>
  <outline>
    <contour>
      <point x="277" y="-8" type="curve"/>
      <point x="525" y="-8"/>
      <point x="625" y="145"/>
      <point x="625" y="376" type="curve"/>
      <point x="625" y="613"/>
      <point x="496" y="724"/>
      <point x="319" y="724" type="curve" smooth="yes"/>
      <point x="144" y="724"/>
      <point x="39" y="630"/>
      <point x="39" y="485" type="curve" smooth="yes"/>
      <point x="39" y="349"/>
      <point x="135" y="273"/>
      <point x="271" y="273" type="curve" smooth="yes"/>
      <point x="349" y="273"/>
      <point x="394" y="297"/>
      <point x="427" y="327" type="curve"/>
      <point x="419" y="129"/>
      <point x="381" y="64"/>
      <point x="290" y="64" type="curve" smooth="yes"/>
      <point x="207" y="64"/>
      <point x="181" y="114"/>
      <point x="152" y="211" type="curve"/>
      <point x="92" y="203"/>
      <point x="69" y="160"/>
      <point x="69" y="126" type="curve" smooth="yes"/>
      <point x="69" y="51"/>
      <point x="129" y="-8"/>
    </contour>
    <contour>
      <point x="337" y="364" type="curve"/>
      <point x="269" y="363"/>
      <point x="234" y="415"/>
      <point x="234" y="488" type="curve" smooth="yes"/>
      <point x="234" y="607"/>
      <point x="267" y="641"/>
      <point x="330" y="641" type="curve" smooth="yes"/>
      <point x="399" y="641"/>
      <point x="424" y="582"/>
      <point x="425" y="414" type="curve"/>
      <point x="398" y="369"/>
      <point x="373" y="363"/>
    </contour>
  </outline>
</glyph>
<glyph name="less" format="2">
  <advance width="713"/>
  <unicode hex="003C"/>
  <outline>
    <contour>
      <point x="627" y="77" type="line"/>
      <point x="627" y="168" type="line"/>
      <point x="223" y="357" type="line"/>
      <point x="627" y="548" type="line"/>
      <point x="627" y="639" type="line"/>
      <point x="86" y="381" type="line"/>
      <point x="86" y="334" type="line"/>
    </contour>
  </outline>
</glyph>
<glyph name="C" format="2">
  <advance width="825"/>
  <unicode hex="0043"/>
  <anchor x="472" y="0" name="bottom"/>
  <anchor x="472" y="714" name="top"/>
  <anchor x="805" y="714" name="topright"/>
  <outline>
    <contour>
      <point x="487" y="-10" type="curve" smooth="yes"/>
      <point x="721" y="-10"/>
      <point x="775" y="81"/>
      <point x="775" y="146" type="curve" smooth="yes"/>
      <point x="775" y="161"/>
      <point x="768" y="185"/>
      <point x="758" y="194" type="curve"/>
      <point x="718" y="150"/>
      <point x="651" y="89"/>
      <point x="526" y="89" type="curve" smooth="yes"/>
      <point x="365" y="89"/>
      <point x="307" y="153"/>
      <point x="307" y="358" type="curve" smooth="yes"/>
      <point x="307" y="544"/>
      <point x="346" y="647"/>
      <point x="473" y="647" type="curve" smooth="yes"/>
      <point x="566" y="647"/>
      <point x="596" y="565"/>
      <point x="596" y="496" type="curve"/>
      <point x="717" y="496"/>
      <point x="774" y="545"/>
      <point x="774" y="604" type="curve" smooth="yes"/>
      <point x="774" y="671"/>
      <point x="678" y="724"/>
      <point x="486" y="724" type="curve" smooth="yes"/>
      <point x="207" y="724"/>
      <point x="63" y="573"/>
      <point x="63" y="358" type="curve" smooth="yes"/>
      <point x="63" y="137"/>
      <point x="204" y="-10"/>
    </contour>
  </outline>
</glyph>
<glyph name="U" format="2">
  <advance width="896"/>
  <unicode hex="0055"/>
  <anchor x="449" y="0" name="bottom"/>
  <anchor x="437" y="714" name="top"/>
  <anchor x="906" y="714" name="topright"/>
  <outline>
    <contour>
      <point x="462" y="-10" type="curve" smooth="yes"/>
      <point x="682" y="-10"/>
      <point x="768" y="86"/>
      <point x="768" y="220" type="curve" smooth="yes"/>
      <point x="768" y="591" type="line" smooth="yes"/>
      <point x="768" y="641"/>
      <point x="801" y="648"/>
      <point x="843" y="648" type="curve" smooth="yes"/>
      <point x="878" y="648" type="line"/>
      <point x="878" y="714" type="line"/>
      <point x="563" y="714" type="line"/>
      <point x="563" y="648" type="line"/>
      <point x="597" y="648" type="line" smooth="yes"/>
      <point x="639" y="648"/>
      <point x="669" y="641"/>
      <point x="669" y="595" type="curve" smooth="yes"/>
      <point x="669" y="222" type="line" smooth="yes"/>
      <point x="669" y="107"/>
      <point x="602" y="74"/>
      <point x="520" y="74" type="curve" smooth="yes"/>
      <point x="418" y="74"/>
      <point x="361" y="103"/>
      <point x="361" y="210" type="curve" smooth="yes"/>
      <point x="361" y="591" type="line" smooth="yes"/>
      <point x="361" y="641"/>
      <point x="393" y="648"/>
      <point x="434" y="648" type="curve" smooth="yes"/>
      <point x="468" y="648" type="line"/>
      <point x="468" y="714" type="line"/>
      <point x="20" y="714" type="line"/>
      <point x="20" y="648" type="line"/>
      <point x="53" y="648" type="line" smooth="yes"/>
      <point x="94" y="648"/>
      <point x="128" y="641"/>
      <point x="128" y="595" type="curve" smooth="yes"/>
      <point x="128" y="220" type="line" smooth="yes"/>
      <point x="128" y="56"/>
      <point x="267" y="-10"/>
    </contour>
  </outline>
</glyph>
<glyph name="a" format="2">
  <advance width="729"/>
  <unicode hex="0061"/>
  <anchor x="364" y="0" name="bottom"/>
  <anchor x="364" y="536" name="top"/>
  <anchor x="709" y="536" name="topright"/>
  <outline>
    <contour>
      <point x="232" y="-10" type="curve" smooth="yes"/>
      <point x="315" y="-10"/>
      <point x="348" y="-3"/>
      <point x="400" y="48" type="curve"/>
      <point x="411" y="48" type="line"/>
      <point x="441" y="0" type="line"/>
      <point x="700" y="0" type="line"/>
      <point x="700" y="66" type="line"/>
      <point x="695" y="66" type="line" smooth="yes"/>
      <point x="643" y="66"/>
      <point x="627" y="82"/>
      <point x="627" y="136" type="curve" smooth="yes"/>
      <point x="627" y="386" type="line" smooth="yes"/>
      <point x="627" y="509"/>
      <point x="537" y="552"/>
      <point x="359" y="552" type="curve" smooth="yes"/>
      <point x="215" y="552"/>
      <point x="97" y="524"/>
      <point x="97" y="444" type="curve" smooth="yes"/>
      <point x="97" y="390"/>
      <point x="155" y="372"/>
      <point x="278" y="372" type="curve"/>
      <point x="278" y="444"/>
      <point x="301" y="478"/>
      <point x="339" y="478" type="curve" smooth="yes"/>
      <point x="380" y="478"/>
      <point x="400" y="449"/>
      <point x="400" y="376" type="curve" smooth="yes"/>
      <point x="400" y="326" type="line"/>
      <point x="306" y="323" type="line" smooth="yes"/>
      <point x="133" y="318"/>
      <point x="48" y="267"/>
      <point x="48" y="156" type="curve" smooth="yes"/>
      <point x="48" y="44"/>
      <point x="130" y="-10"/>
    </contour>
    <contour>
      <point x="324" y="78" type="curve" smooth="yes"/>
      <point x="292" y="78"/>
      <point x="278" y="103"/>
      <point x="278" y="154" type="curve" smooth="yes"/>
      <point x="278" y="219"/>
      <point x="299" y="254"/>
      <point x="364" y="256" type="curve" smooth="yes"/>
      <point x="401" y="259" type="line"/>
      <point x="401" y="191" type="line" smooth="yes"/>
      <point x="401" y="121"/>
      <point x="371" y="78"/>
    </contour>
  </outline>
</glyph>
<glyph name="e" format="2">
  <advance width="697"/>
  <unicode hex="0065"/>
  <anchor x="358" y="0" name="bottom"/>
  <anchor x="358" y="536" name="top"/>
  <anchor x="677" y="536" name="topright"/>
  <outline>
    <contour>
      <point x="373" y="-10" type="curve" smooth="yes"/>
      <point x="561" y="-10"/>
      <point x="632" y="56"/>
      <point x="632" y="121" type="curve" smooth="yes"/>
      <point x="632" y="149"/>
      <point x="610" y="169"/>
      <point x="580" y="177" type="curve"/>
      <point x="555" y="121"/>
      <point x="510" y="81"/>
      <point x="431" y="81" type="curve" smooth="yes"/>
      <point x="331" y="81"/>
      <point x="280" y="133"/>
      <point x="276" y="251" type="curve"/>
      <point x="654" y="251" type="line"/>
      <point x="654" y="310" type="line" smooth="yes"/>
      <point x="654" y="470"/>
      <point x="542" y="552"/>
      <point x="359" y="552" type="curve" smooth="yes"/>
      <point x="161" y="552"/>
      <point x="48" y="455"/>
      <point x="48" y="267" type="curve" smooth="yes"/>
      <point x="48" y="91"/>
      <point x="153" y="-10"/>
    </contour>
    <contour>
      <point x="278" y="328" type="line"/>
      <point x="278" y="424"/>
      <point x="314" y="473"/>
      <point x="365" y="473" type="curve" smooth="yes"/>
      <point x="412" y="473"/>
      <point x="431" y="425"/>
      <point x="432" y="328" type="curve"/>
    </contour>
  </outline>
</glyph>
<glyph name="r" format="2">
  <advance width="654"/>
  <unicode hex="0072"/>
  <anchor x="238" y="0" name="bottom"/>
  <anchor x="328" y="536" name="top"/>
  <anchor x="654" y="536" name="topright"/>
  <outline>
    <contour>
      <point x="12" y="0" type="line"/>
      <point x="439" y="0" type="line"/>
      <point x="439" y="66" type="line"/>
      <point x="399" y="66" type="line" smooth="yes"/>
      <point x="356" y="66"/>
      <point x="327" y="74"/>
      <point x="327" y="133" type="curve" smooth="yes"/>
      <point x="327" y="279" type="line" smooth="yes"/>
      <point x="327" y="351"/>
      <point x="358" y="420"/>
      <point x="413" y="420" type="curve" smooth="yes"/>
      <point x="456" y="420"/>
      <point x="463" y="386"/>
      <point x="463" y="331" type="curve"/>
      <point x="567" y="331"/>
      <point x="637" y="361"/>
      <point x="637" y="445" type="curve" smooth="yes"/>
      <point x="637" y="503"/>
      <point x="599" y="550"/>
      <point x="508" y="550" type="curve" smooth="yes"/>
      <point x="417" y="550"/>
      <point x="364" y="528"/>
      <point x="324" y="447" type="curve"/>
      <point x="318" y="447" type="line"/>
      <point x="294" y="536" type="line"/>
      <point x="23" y="536" type="line"/>
      <point x="23" y="470" type="line"/>
      <point x="27" y="470" type="line" smooth="yes"/>
      <point x="79" y="470"/>
      <point x="101" y="461"/>
      <point x="101" y="402" type="curve" smooth="yes"/>
      <point x="101" y="138" type="line" smooth="yes"/>
      <point x="101" y="75"/>
      <point x="70" y="66"/>
      <point x="18" y="66" type="curve" smooth="yes"/>
      <point x="12" y="66" type="line"/>
    </contour>
  </outline>
</glyph>
<glyph name="u" format="2">
  <advance width="805"/>
  <unicode hex="0075"/>
  <anchor x="403" y="0" name="bottom"/>
  <anchor x="403" y="536" name="top"/>
  <anchor x="775" y="536" name="topright"/>
  <outline>
    <contour>
      <point x="300" y="-10" type="curve" smooth="yes"/>
      <point x="383" y="-10"/>
      <point x="435" y="21"/>
      <point x="469" y="59" type="curve"/>
      <point x="475" y="59" type="line"/>
      <point x="507" y="0" type="line"/>
      <point x="774" y="0" type="line"/>
      <point x="774" y="66" type="line"/>
      <point x="760" y="66" type="line"/>
      <point x="719" y="66"/>
      <point x="695" y="68"/>
      <point x="695" y="124" type="curve" smooth="yes"/>
      <point x="695" y="536" type="line"/>
      <point x="401" y="536" type="line"/>
      <point x="401" y="470" type="line"/>
      <point x="406" y="470" type="line" smooth="yes"/>
      <point x="445" y="470"/>
      <point x="469" y="467"/>
      <point x="469" y="416" type="curve" smooth="yes"/>
      <point x="469" y="240" type="line" smooth="yes"/>
      <point x="469" y="152"/>
      <point x="446" y="100"/>
      <point x="391" y="100" type="curve" smooth="yes"/>
      <point x="345" y="100"/>
      <point x="328" y="175"/>
      <point x="328" y="246" type="curve" smooth="yes"/>
      <point x="328" y="536" type="line"/>
      <point x="32" y="536" type="line"/>
      <point x="32" y="470" type="line"/>
      <point x="37" y="470" type="line" smooth="yes"/>
      <point x="96" y="470"/>
      <point x="102" y="452"/>
      <point x="102" y="395" type="curve" smooth="yes"/>
      <point x="102" y="190" type="line" smooth="yes"/>
      <point x="102" y="58"/>
      <point x="156" y="-10"/>
    </contour>
  </outline>
</glyph>
<glyph name="v" format="2">
  <advance width="730"/>
  <unicode hex="0076"/>
  <anchor x="375" y="0" name="bottom"/>
  <anchor x="375" y="536" name="top"/>
  <anchor x="740" y="536" name="topright"/>
  <outline>
    <contour>
      <point x="277" y="0" type="line"/>
      <point x="478" y="0" type="line"/>
      <point x="636" y="403" type="line" smooth="yes"/>
      <point x="657" y="455"/>
      <point x="673" y="470"/>
      <point x="702" y="470" type="curve" smooth="yes"/>
      <point x="732" y="470" type="line"/>
      <point x="732" y="536" type="line"/>
      <point x="471" y="536" type="line"/>
      <point x="471" y="470" type="line"/>
      <point x="496" y="470" type="line" smooth="yes"/>
      <point x="531" y="470"/>
      <point x="543" y="455"/>
      <point x="543" y="445" type="curve" smooth="yes"/>
      <point x="543" y="427"/>
      <point x="539" y="415"/>
      <point x="533" y="400" type="curve" smooth="yes"/>
      <point x="456" y="186" type="line" smooth="yes"/>
      <point x="452" y="179"/>
      <point x="443" y="162"/>
      <point x="438" y="138" type="curve"/>
      <point x="431" y="168"/>
      <point x="422" y="183"/>
      <point x="407" y="216" type="curve" smooth="yes"/>
      <point x="332" y="406" type="line" smooth="yes"/>
      <point x="328" y="417"/>
      <point x="322" y="430"/>
      <point x="322" y="444" type="curve" smooth="yes"/>
      <point x="322" y="461"/>
      <point x="335" y="470"/>
      <point x="368" y="470" type="curve" smooth="yes"/>
      <point x="409" y="470" type="line"/>
      <point x="409" y="536" type="line"/>
      <point x="8" y="536" type="line"/>
      <point x="8" y="470" type="line"/>
      <point x="62" y="470"/>
      <point x="80" y="461"/>
      <point x="96" y="428" type="curve" smooth="yes"/>
    </contour>
  </outline>
</glyph>
<glyph name="exclamdown" format="2">
  <advance width="409"/>
  <unicode hex="00A1"/>
  <outline>
    <contour>
      <point x="257" y="293" type="line"/>
      <point x="152" y="293" type="line"/>
      <point x="78" y="-180" type="line"/>
      <point x="331" y="-180" type="line"/>
    </contour>
    <contour>
      <point x="205" y="544" type="curve" smooth="yes"/>
      <point x="148" y="544"/>
      <point x="97" y="518"/>
      <point x="97" y="442" type="curve" smooth="yes"/>
      <point x="97" y="364"/>
      <point x="148" y="340"/>
      <point x="205" y="340" type="curve" smooth="yes"/>
      <point x="264" y="340"/>
      <point x="311" y="364"/>
      <point x="311" y="442" type="curve" smooth="yes"/>
      <point x="311" y="518"/>
      <point x="264" y="544"/>
    </contour>
  </outline>
</glyph>
<glyph name="cent" format="2">
  <advance width="672"/>
  <unicode hex="00A2"/>
  <outline>
    <contour>
      <point x="337" y="0" type="line"/>
      <point x="419" y="0" type="line"/>
      <point x="419" y="80" type="line"/>
      <point x="557" y="92"/>
      <point x="626" y="159"/>
      <point x="626" y="205" type="curve" smooth="yes"/>
      <point x="626" y="223"/>
      <point x="615" y="247"/>
      <point x="590" y="259" type="curve"/>
      <point x="562" y="209"/>
      <point x="501" y="176"/>
      <point x="419" y="172" type="curve"/>
      <point x="419" y="558" type="line"/>
      <point x="460" y="537"/>
      <point x="466" y="479"/>
      <point x="466" y="420" type="curve"/>
      <point x="626" y="420"/>
      <point x="638" y="489"/>
      <point x="638" y="531" type="curve" smooth="yes"/>
      <point x="638" y="575"/>
      <point x="586" y="632"/>
      <point x="419" y="638" type="curve"/>
      <point x="419" y="714" type="line"/>
      <point x="337" y="714" type="line"/>
      <point x="337" y="638" type="line"/>
      <point x="165" y="628"/>
      <point x="53" y="555"/>
      <point x="53" y="355" type="curve" smooth="yes"/>
      <point x="53" y="158"/>
      <point x="158" y="83"/>
      <point x="337" y="77" type="curve"/>
    </contour>
    <contour>
      <point x="337" y="191" type="line"/>
      <point x="292" y="220"/>
      <point x="279" y="274"/>
      <point x="279" y="356" type="curve" smooth="yes"/>
      <point x="279" y="464"/>
      <point x="293" y="526"/>
      <point x="337" y="553" type="curve"/>
    </contour>
  </outline>
</glyph>
<glyph name="brokenbar" format="2">
  <advance width="672"/>
  <unicode hex="00A6"/>
  <outline>
    <contour>
      <point x="289" y="360" type="line"/>
      <point x="383" y="360" type="line"/>
      <point x="383" y="760" type="line"/>
      <point x="289" y="760" type="line"/>
    </contour>
    <contour>
      <point x="289" y="-240" type="line"/>
      <point x="383" y="-240" type="line"/>
      <point x="383" y="160" type="line"/>
      <point x="289" y="160" type="line"/>
    </contour>
  </outline>
</glyph>
<glyph name="ordfeminine" format="2">
  <advance width="522"/>
  <unicode hex="00AA"/>
  <outline>
    <contour>
      <point x="161" y="380" type="curve" smooth="yes"/>
      <point x="226" y="380"/>
      <point x="269" y="406"/>
      <point x="298" y="436" type="curve"/>
      <point x="308" y="436" type="line"/>
      <point x="334" y="386" type="line"/>
      <point x="494" y="386" type="line"/>
      <point x="494" y="442" type="line"/>
      <point x="456" y="442"/>
      <point x="444" y="451"/>
      <point x="444" y="479" type="curve"/>
      <point x="444" y="616" type="line" smooth="yes"/>
      <point x="444" y="689"/>
      <point x="379" y="719"/>
      <point x="252" y="719" type="curve" smooth="yes"/>
      <point x="123" y="719"/>
      <point x="61" y="685"/>
      <point x="61" y="640" type="curve" smooth="yes"/>
      <point x="61" y="608"/>
      <point x="99" y="607"/>
      <point x="196" y="607" type="curve"/>
      <point x="196" y="639"/>
      <point x="200" y="668"/>
      <point x="242" y="668" type="curve"/>
      <point x="281" y="668"/>
      <point x="287" y="645"/>
      <point x="287" y="610" type="curve" smooth="yes"/>
      <point x="287" y="587" type="line"/>
      <point x="229" y="585" type="line"/>
      <point x="93" y="580"/>
      <point x="29" y="544"/>
      <point x="29" y="479" type="curve" smooth="yes"/>
      <point x="29" y="415"/>
      <point x="79" y="380"/>
    </contour>
    <contour>
      <point x="223" y="455" type="curve" smooth="yes"/>
      <point x="204" y="455"/>
      <point x="186" y="468"/>
      <point x="186" y="490" type="curve"/>
      <point x="186" y="520"/>
      <point x="211" y="536"/>
      <point x="267" y="538" type="curve"/>
      <point x="287" y="539" type="line"/>
      <point x="287" y="505" type="line" smooth="yes"/>
      <point x="287" y="480"/>
      <point x="269" y="455"/>
    </contour>
  </outline>
</glyph>
<glyph name="Aring" format="2">
  <advance width="919"/>
  <unicode hex="00C5"/>
  <anchor x="459" y="0" name="bottom"/>
  <anchor x="459" y="870" name="top"/>
  <outline>
    <contour>
      <point x="8" y="0" type="line"/>
      <point x="326" y="0" type="line"/>
      <point x="326" y="66" type="line"/>
      <point x="261" y="66" type="line" smooth="yes"/>
      <point x="250" y="66"/>
      <point x="225" y="77"/>
      <point x="225" y="95" type="curve" smooth="yes"/>
      <point x="225" y="114"/>
      <point x="237" y="148"/>
      <point x="242" y="164" type="curve" smooth="yes"/>
      <point x="269" y="230" type="line"/>
      <point x="534" y="230" type="line"/>
      <point x="571" y="142" type="line" smooth="yes"/>
      <point x="575" y="137"/>
      <point x="582" y="118"/>
      <point x="582" y="96" type="curve" smooth="yes"/>
      <point x="582" y="72"/>
      <point x="554" y="66"/>
      <point x="547" y="66" type="curve" smooth="yes"/>
      <point x="488" y="66" type="line"/>
      <point x="488" y="0" type="line"/>
      <point x="919" y="0" type="line"/>
      <point x="919" y="66" type="line"/>
      <point x="895" y="66" type="line" smooth="yes"/>
      <point x="863" y="66"/>
      <point x="830" y="89"/>
      <point x="800" y="161" type="curve" smooth="yes"/>
      <point x="582" y="692" type="line"/>
      <point x="597" y="713"/>
      <point x="605" y="737"/>
      <point x="605" y="761" type="curve" smooth="yes"/>
      <point x="605" y="832"/>
      <point x="543" y="870"/>
      <point x="465" y="870" type="curve" smooth="yes"/>
      <point x="387" y="870"/>
      <point x="325" y="832"/>
      <point x="325" y="761" type="curve" smooth="yes"/>
      <point x="325" y="737"/>
      <point x="335" y="714"/>
      <point x="350" y="692" type="curve"/>
      <point x="114" y="133" type="line" smooth="yes"/>
      <point x="89" y="78"/>
      <point x="56" y="66"/>
      <point x="17" y="66" type="curve" smooth="yes"/>
      <point x="8" y="66" type="line"/>
    </contour>
    <contour>
      <point x="294" y="304" type="line"/>
      <point x="355" y="453" type="line" smooth="yes"/>
      <point x="367" y="483"/>
      <point x="397" y="564"/>
      <point x="411" y="602" type="curve"/>
      <point x="424" y="553"/>
      <point x="446" y="482"/>
      <point x="454" y="453" type="curve" smooth="yes"/>
      <point x="509" y="304" type="line"/>
    </contour>
    <contour>
      <point x="465" y="714" type="curve" smooth="yes"/>
      <point x="426" y="718"/>
      <point x="402" y="732"/>
      <point x="402" y="761" type="curve" smooth="yes"/>
      <point x="402" y="794"/>
      <point x="432" y="806"/>
      <point x="465" y="806" type="curve" smooth="yes"/>
      <point x="500" y="806"/>
      <point x="529" y="794"/>
      <point x="529" y="761" type="curve" smooth="yes"/>
      <point x="529" y="728"/>
      <point x="499" y="714"/>
    </contour>
  </outline>
</glyph>
<glyph name="thorn" format="2">
  <advance width="779"/>
  <unicode hex="00FE"/>
  <anchor x="389" y="-240" name="bottom"/>
  <anchor x="389" y="760" name="top"/>
  <outline>
    <contour>
      <point x="11" y="-240" type="line"/>
      <point x="431" y="-240" type="line"/>
      <point x="431" y="-174" type="line"/>
      <point x="401" y="-174" type="line" smooth="yes"/>
      <point x="358" y="-174"/>
      <point x="328" y="-161"/>
      <point x="328" y="-106" type="curve" smooth="yes"/>
      <point x="328" y="-74" type="line" smooth="yes"/>
      <point x="328" y="-36"/>
      <point x="328" y="10"/>
      <point x="323" y="50" type="curve"/>
      <point x="328" y="50" type="line"/>
      <point x="362" y="6"/>
      <point x="410" y="-14"/>
      <point x="499" y="-14" type="curve" smooth="yes"/>
      <point x="648" y="-14"/>
      <point x="730" y="70"/>
      <point x="730" y="263" type="curve" smooth="yes"/>
      <point x="730" y="458"/>
      <point x="646" y="546"/>
      <point x="491" y="546" type="curve" smooth="yes"/>
      <point x="401" y="546"/>
      <point x="356" y="520"/>
      <point x="324" y="480" type="curve"/>
      <point x="319" y="480" type="line"/>
      <point x="325" y="513"/>
      <point x="328" y="549"/>
      <point x="328" y="578" type="curve" smooth="yes"/>
      <point x="328" y="760" type="line"/>
      <point x="29" y="760" type="line"/>
      <point x="29" y="694" type="line"/>
      <point x="39" y="694" type="line" smooth="yes"/>
      <point x="77" y="694"/>
      <point x="102" y="685"/>
      <point x="102" y="621" type="curve" smooth="yes"/>
      <point x="102" y="-112" type="line" smooth="yes"/>
      <point x="102" y="-163"/>
      <point x="71" y="-174"/>
      <point x="28" y="-174" type="curve" smooth="yes"/>
      <point x="11" y="-174" type="line"/>
    </contour>
    <contour>
      <point x="418" y="74" type="curve" smooth="yes"/>
      <point x="347" y="74"/>
      <point x="328" y="127"/>
      <point x="328" y="262" type="curve" smooth="yes"/>
      <point x="328" y="381"/>
      <point x="347" y="456"/>
      <point x="421" y="456" type="curve" smooth="yes"/>
      <point x="478" y="456"/>
      <point x="503" y="381"/>
      <point x="503" y="258" type="curve" smooth="yes"/>
      <point x="503" y="128"/>
      <point x="478" y="74"/>
    </contour>
  </outline>
</glyph>
<glyph name="Lslash" format="2">
  <advance width="789"/>
  <unicode hex="0141"/>
  <anchor x="395" y="0" name="bottom"/>
  <anchor x="395" y="714" name="top"/>
  <outline>
    <contour>
      <point x="24" y="0" type="line"/>
      <point x="750" y="0" type="line"/>
      <point x="759" y="233" type="line"/>
      <point x="690" y="233" type="line"/>
      <point x="666" y="158" type="line" smooth="yes"/>
      <point x="645" y="90"/>
      <point x="616" y="74"/>
      <point x="573" y="74" type="curve" smooth="yes"/>
      <point x="366" y="74" type="line"/>
      <point x="366" y="399" type="line"/>
      <point x="523" y="474" type="line"/>
      <point x="523" y="560" type="line"/>
      <point x="366" y="484" type="line"/>
      <point x="366" y="603" type="line" smooth="yes"/>
      <point x="366" y="629"/>
      <point x="374" y="648"/>
      <point x="416" y="648" type="curve" smooth="yes"/>
      <point x="473" y="648" type="line"/>
      <point x="473" y="714" type="line"/>
      <point x="24" y="714" type="line"/>
      <point x="24" y="648" type="line"/>
      <point x="77" y="648" type="line" smooth="yes"/>
      <point x="107" y="648"/>
      <point x="132" y="629"/>
      <point x="132" y="602" type="curve" smooth="yes"/>
      <point x="132" y="353" type="line"/>
      <point x="44" y="312" type="line"/>
      <point x="44" y="228" type="line"/>
      <point x="132" y="268" type="line"/>
      <point x="132" y="109" type="line" smooth="yes"/>
      <point x="132" y="85"/>
      <point x="107" y="66"/>
      <point x="86" y="66" type="curve" smooth="yes"/>
      <point x="24" y="66" type="line"/>
    </contour>
  </outline>
</glyph>
<glyph name="longs" format="2">
  <advance width="488"/>
  <unicode hex="017F"/>
  <anchor x="245" y="0" name="bottom"/>
  <anchor x="335" y="767" name="top"/>
  <outline>
    <contour>
      <point x="4" y="0" type="line"/>
      <point x="473" y="0" type="line"/>
      <point x="473" y="66" type="line"/>
      <point x="410" y="66" type="line" smooth="yes"/>
      <point x="367" y="66"/>
      <point x="337" y="87"/>
      <point x="337" y="135" type="curve" smooth="yes"/>
      <point x="337" y="580" type="line" smooth="yes"/>
      <point x="337" y="673"/>
      <point x="352" y="697"/>
      <point x="390" y="697" type="curve" smooth="yes"/>
      <point x="431" y="697"/>
      <point x="440" y="662"/>
      <point x="440" y="615" type="curve"/>
      <point x="544" y="615"/>
      <point x="588" y="635"/>
      <point x="588" y="679" type="curve" smooth="yes"/>
      <point x="588" y="721"/>
      <point x="555" y="767"/>
      <point x="383" y="767" type="curve" smooth="yes"/>
      <point x="191" y="767"/>
      <point x="111" y="687"/>
      <point x="111" y="557" type="curve" smooth="yes"/>
      <point x="111" y="135" type="line" smooth="yes"/>
      <point x="111" y="85"/>
      <point x="80" y="66"/>
      <point x="37" y="66" type="curve" smooth="yes"/>
      <point x="4" y="66" type="line"/>
    </contour>
  </outline>
</glyph>
<glyph name="uni0187" format="2">
  <advance width="825"/>
  <unicode hex="0187"/>
  <anchor x="412" y="0" name="bottom"/>
  <anchor x="412" y="714" name="top"/>
  <outline>
    <contour>
      <point x="502" y="-10" type="curve" smooth="yes"/>
      <point x="721" y="-10"/>
      <point x="775" y="81"/>
      <point x="775" y="146" type="curve" smooth="yes"/>
      <point x="775" y="161"/>
      <point x="768" y="185"/>
      <point x="758" y="194" type="curve"/>
      <point x="718" y="150"/>
      <point x="651" y="89"/>
      <point x="538" y="89" type="curve" smooth="yes"/>
      <point x="365" y="89"/>
      <point x="307" y="153"/>
      <point x="307" y="358" type="curve" smooth="yes"/>
      <point x="307" y="544"/>
      <point x="346" y="647"/>
      <point x="473" y="647" type="curve" smooth="yes"/>
      <point x="566" y="647"/>
      <point x="596" y="565"/>
      <point x="596" y="496" type="curve"/>
      <point x="717" y="496"/>
      <point x="774" y="528"/>
      <point x="774" y="631" type="curve" smooth="yes"/>
      <point x="774" y="661" type="line" smooth="yes"/>
      <point x="774" y="757"/>
      <point x="805" y="776"/>
      <point x="852" y="776" type="curve" smooth="yes"/>
      <point x="878" y="776"/>
      <point x="902" y="769"/>
      <point x="925" y="758" type="curve"/>
      <point x="937" y="770"/>
      <point x="947" y="797"/>
      <point x="947" y="819" type="curve" smooth="yes"/>
      <point x="947" y="861"/>
      <point x="901" y="896"/>
      <point x="833" y="896" type="curve" smooth="yes"/>
      <point x="729" y="896"/>
      <point x="679" y="826"/>
      <point x="679" y="762" type="curve" smooth="yes"/>
      <point x="679" y="701" type="line"/>
      <point x="631" y="717"/>
      <point x="580" y="724"/>
      <point x="486" y="724" type="curve" smooth="yes"/>
      <point x="207" y="724"/>
      <point x="63" y="573"/>
      <point x="63" y="358" type="curve" smooth="yes"/>
      <point x="63" y="137"/>
      <point x="204" y="-10"/>
    </contour>
  </outline>
</glyph>
<glyph name="uni0188" format="2">
  <advance width="644"/>
  <unicode hex="0188"/>
  <anchor x="323" y="0" name="bottom"/>
  <anchor x="323" y="760" name="top"/>
  <outline>
    <contour>
      <point x="354" y="-10" type="curve" smooth="yes"/>
      <point x="530" y="-10"/>
      <point x="601" y="59"/>
      <point x="601" y="115" type="curve" smooth="yes"/>
      <point x="601" y="133"/>
      <point x="591" y="158"/>
      <point x="567" y="169" type="curve"/>
      <point x="540" y="119"/>
      <point x="475" y="79"/>
      <point x="387" y="79" type="curve" smooth="yes"/>
      <point x="309" y="79"/>
      <point x="276" y="142"/>
      <point x="276" y="269" type="curve" smooth="yes"/>
      <point x="276" y="430"/>
      <point x="309" y="478"/>
      <point x="361" y="478" type="curve" smooth="yes"/>
      <point x="405" y="478"/>
      <point x="419" y="408"/>
      <point x="419" y="333" type="curve"/>
      <point x="579" y="333"/>
      <point x="604" y="404"/>
      <point x="604" y="444" type="curve" smooth="yes"/>
      <point x="604" y="526" type="line" smooth="yes"/>
      <point x="604" y="622"/>
      <point x="637" y="646"/>
      <point x="688" y="646" type="curve" smooth="yes"/>
      <point x="713" y="646"/>
      <point x="736" y="638"/>
      <point x="753" y="629" type="curve"/>
      <point x="765" y="639"/>
      <point x="773" y="663"/>
      <point x="773" y="682" type="curve" smooth="yes"/>
      <point x="773" y="724"/>
      <point x="743" y="760"/>
      <point x="673" y="760" type="curve" smooth="yes"/>
      <point x="563" y="760"/>
      <point x="510" y="690"/>
      <point x="510" y="589" type="curve" smooth="yes"/>
      <point x="510" y="536" type="line"/>
      <point x="475" y="546"/>
      <point x="423" y="552"/>
      <point x="352" y="552" type="curve" smooth="yes"/>
      <point x="182" y="552"/>
      <point x="48" y="485"/>
      <point x="48" y="268" type="curve" smooth="yes"/>
      <point x="48" y="51"/>
      <point x="171" y="-10"/>
    </contour>
  </outline>
</glyph>
<glyph name="uni01AC" format="2">
  <advance width="800"/>
  <unicode hex="01AC"/>
  <anchor x="400" y="0" name="bottom"/>
  <anchor x="400" y="714" name="top"/>
  <outline>
    <contour>
      <point x="176" y="0" type="line"/>
      <point x="631" y="0" type="line"/>
      <point x="631" y="66" type="line"/>
      <point x="593" y="66" type="line" smooth="yes"/>
      <point x="550" y="66"/>
      <point x="521" y="73"/>
      <point x="521" y="123" type="curve" smooth="yes"/>
      <point x="521" y="640" type="line"/>
      <point x="600" y="640" type="line" smooth="yes"/>
      <point x="670" y="640"/>
      <point x="692" y="626"/>
      <point x="697" y="582" type="curve" smooth="yes"/>
      <point x="707" y="497" type="line"/>
      <point x="797" y="497" type="line"/>
      <point x="792" y="714" type="line"/>
      <point x="274" y="714" type="line" smooth="yes"/>
      <point x="85" y="714"/>
      <point x="9" y="631"/>
      <point x="9" y="537" type="curve" smooth="yes"/>
      <point x="9" y="472"/>
      <point x="45" y="424"/>
      <point x="110" y="424" type="curve" smooth="yes"/>
      <point x="144" y="424"/>
      <point x="167" y="435"/>
      <point x="187" y="450" type="curve"/>
      <point x="164" y="478"/>
      <point x="149" y="503"/>
      <point x="149" y="539" type="curve" smooth="yes"/>
      <point x="149" y="631"/>
      <point x="202" y="640"/>
      <point x="261" y="640" type="curve" smooth="yes"/>
      <point x="286" y="640" type="line"/>
      <point x="286" y="129" type="line" smooth="yes"/>
      <point x="286" y="74"/>
      <point x="258" y="66"/>
      <point x="213" y="66" type="curve" smooth="yes"/>
      <point x="176" y="66" type="line"/>
    </contour>
  </outline>
</glyph>
<glyph name="uhorn" format="2">
  <advance width="934"/>
  <unicode hex="01B0"/>
  <anchor x="467" y="0" name="bottom"/>
  <anchor x="467" y="536" name="top"/>
  <outline>
    <contour>
      <point x="300" y="-10" type="curve" smooth="yes"/>
      <point x="383" y="-10"/>
      <point x="435" y="21"/>
      <point x="469" y="59" type="curve"/>
      <point x="475" y="59" type="line"/>
      <point x="508" y="0" type="line"/>
      <point x="774" y="0" type="line"/>
      <point x="774" y="66" type="line"/>
      <point x="760" y="66" type="line" smooth="yes"/>
      <point x="719" y="66"/>
      <point x="695" y="68"/>
      <point x="695" y="124" type="curve" smooth="yes"/>
      <point x="695" y="317" type="line"/>
      <point x="814" y="317"/>
      <point x="946" y="392"/>
      <point x="946" y="511" type="curve" smooth="yes"/>
      <point x="946" y="592"/>
      <point x="901" y="628"/>
      <point x="842" y="628" type="curve" smooth="yes"/>
      <point x="794" y="628"/>
      <point x="756" y="599"/>
      <point x="756" y="556" type="curve" smooth="yes"/>
      <point x="756" y="492"/>
      <point x="818" y="493"/>
      <point x="818" y="450" type="curve" smooth="yes"/>
      <point x="818" y="392"/>
      <point x="748" y="373"/>
      <point x="695" y="372" type="curve"/>
      <point x="695" y="536" type="line"/>
      <point x="401" y="536" type="line"/>
      <point x="401" y="470" type="line"/>
      <point x="406" y="470" type="line" smooth="yes"/>
      <point x="445" y="470"/>
      <point x="469" y="467"/>
      <point x="469" y="416" type="curve" smooth="yes"/>
      <point x="469" y="240" type="line" smooth="yes"/>
      <point x="469" y="152"/>
      <point x="446" y="100"/>
      <point x="392" y="100" type="curve" smooth="yes"/>
      <point x="342" y="100"/>
      <point x="328" y="161"/>
      <point x="328" y="246" type="curve" smooth="yes"/>
      <point x="328" y="536" type="line"/>
      <point x="33" y="536" type="line"/>
      <point x="33" y="470" type="line"/>
      <point x="37" y="470" type="line" smooth="yes"/>
      <point x="97" y="470"/>
      <point x="102" y="452"/>
      <point x="102" y="395" type="curve" smooth="yes"/>
      <point x="102" y="190" type="line" smooth="yes"/>
      <point x="102" y="58"/>
      <point x="156" y="-10"/>
    </contour>
  </outline>
</glyph>
<glyph name="uni01BB" format="2">
  <advance width="656"/>
  <unicode hex="01BB"/>
  <anchor x="328" y="0" name="bottom"/>
  <anchor x="328" y="760" name="top"/>
  <outline>
    <contour>
      <point x="32" y="0" type="line"/>
      <point x="616" y="0" type="line"/>
      <point x="622" y="254" type="line"/>
      <point x="539" y="254" type="line"/>
      <point x="525" y="208" type="line" smooth="yes"/>
      <point x="509" y="158"/>
      <point x="462" y="146"/>
      <point x="430" y="146" type="curve" smooth="yes"/>
      <point x="180" y="146" type="line"/>
      <point x="210" y="142" type="line" smooth="yes"/>
      <point x="344" y="208"/>
      <point x="372" y="252"/>
      <point x="423" y="295" type="curve"/>
      <point x="612" y="295" type="line"/>
      <point x="612" y="366" type="line"/>
      <point x="500" y="366" type="line"/>
      <point x="579" y="445"/>
      <point x="605" y="490"/>
      <point x="605" y="563" type="curve" smooth="yes"/>
      <point x="605" y="688"/>
      <point x="512" y="760"/>
      <point x="315" y="760" type="curve" smooth="yes"/>
      <point x="107" y="760"/>
      <point x="32" y="687"/>
      <point x="32" y="606" type="curve" smooth="yes"/>
      <point x="32" y="515"/>
      <point x="116" y="495"/>
      <point x="208" y="495" type="curve"/>
      <point x="208" y="650"/>
      <point x="238" y="686"/>
      <point x="298" y="686" type="curve" smooth="yes"/>
      <point x="344" y="686"/>
      <point x="378" y="671"/>
      <point x="378" y="566" type="curve" smooth="yes"/>
      <point x="378" y="479"/>
      <point x="355" y="426"/>
      <point x="308" y="366" type="curve"/>
      <point x="64" y="366" type="line"/>
      <point x="64" y="295" type="line"/>
      <point x="252" y="295" type="line"/>
      <point x="232" y="277"/>
      <point x="209" y="258"/>
      <point x="183" y="239" type="curve" smooth="yes"/>
      <point x="32" y="127" type="line"/>
    </contour>
  </outline>
</glyph>
<glyph name="uni01E5" format="2">
  <advance width="672"/>
  <unicode hex="01E5"/>
  <anchor x="336" y="-240" name="bottom"/>
  <anchor x="336" y="536" name="top"/>
  <outline>
    <contour>
      <point x="279" y="-240" type="curve" smooth="yes"/>
      <point x="449" y="-240"/>
      <point x="557" y="-207"/>
      <point x="608" y="-145" type="curve"/>
      <point x="684" y="-145" type="line"/>
      <point x="684" y="-73" type="line"/>
      <point x="635" y="-73" type="line"/>
      <point x="638" y="-60"/>
      <point x="639" y="-47"/>
      <point x="639" y="-33" type="curve" smooth="yes"/>
      <point x="639" y="77"/>
      <point x="559" y="127"/>
      <point x="392" y="127" type="curve" smooth="yes"/>
      <point x="252" y="127" type="line" smooth="yes"/>
      <point x="225" y="127"/>
      <point x="202" y="132"/>
      <point x="202" y="149" type="curve" smooth="yes"/>
      <point x="202" y="167"/>
      <point x="221" y="188"/>
      <point x="238" y="189" type="curve"/>
      <point x="250" y="186"/>
      <point x="290" y="186"/>
      <point x="306" y="186" type="curve" smooth="yes"/>
      <point x="492" y="186"/>
      <point x="575" y="260"/>
      <point x="575" y="372" type="curve" smooth="yes"/>
      <point x="575" y="431"/>
      <point x="544" y="472"/>
      <point x="504" y="499" type="curve"/>
      <point x="513" y="501"/>
      <point x="525" y="505"/>
      <point x="542" y="505" type="curve" smooth="yes"/>
      <point x="557" y="505"/>
      <point x="584" y="496"/>
      <point x="584" y="457" type="curve"/>
      <point x="653" y="457"/>
      <point x="675" y="489"/>
      <point x="675" y="526" type="curve" smooth="yes"/>
      <point x="675" y="562"/>
      <point x="645" y="592"/>
      <point x="591" y="592" type="curve" smooth="yes"/>
      <point x="528" y="592"/>
      <point x="493" y="572"/>
      <point x="455" y="531" type="curve"/>
      <point x="411" y="547"/>
      <point x="367" y="552"/>
      <point x="306" y="552" type="curve" smooth="yes"/>
      <point x="117" y="552"/>
      <point x="33" y="487"/>
      <point x="33" y="367" type="curve" smooth="yes"/>
      <point x="33" y="270"/>
      <point x="96" y="225"/>
      <point x="174" y="207" type="curve"/>
      <point x="99" y="173"/>
      <point x="50" y="142"/>
      <point x="50" y="93" type="curve" smooth="yes"/>
      <point x="50" y="41"/>
      <point x="100" y="18"/>
      <point x="149" y="2" type="curve"/>
      <point x="48" y="-1"/>
      <point x="-16" y="-47"/>
      <point x="-16" y="-109" type="curve" smooth="yes"/>
      <point x="-16" y="-199"/>
      <point x="80" y="-240"/>
    </contour>
    <contour>
      <point x="282" y="-167" type="curve" smooth="yes"/>
      <point x="213" y="-167"/>
      <point x="154" y="-158"/>
      <point x="154" y="-112" type="curve" smooth="yes"/>
      <point x="154" y="-63"/>
      <point x="206" y="-49"/>
      <point x="240" y="-49" type="curve" smooth="yes"/>
      <point x="391" y="-49" type="line" smooth="yes"/>
      <point x="434" y="-49"/>
      <point x="458" y="-63"/>
      <point x="465" y="-73" type="curve"/>
      <point x="287" y="-73" type="line"/>
      <point x="287" y="-145" type="line"/>
      <point x="440" y="-145" type="line"/>
      <point x="410" y="-162"/>
      <point x="355" y="-167"/>
    </contour>
    <contour>
      <point x="304" y="258" type="curve" smooth="yes"/>
      <point x="240" y="258"/>
      <point x="227" y="312"/>
      <point x="227" y="364" type="curve" smooth="yes"/>
      <point x="227" y="417"/>
      <point x="240" y="479"/>
      <point x="303" y="479" type="curve" smooth="yes"/>
      <point x="369" y="479"/>
      <point x="378" y="419"/>
      <point x="378" y="365" type="curve" smooth="yes"/>
      <point x="378" y="311"/>
      <point x="369" y="258"/>
    </contour>
  </outline>
</glyph>
<glyph name="Aringacute" format="2">
  <advance width="919"/>
  <unicode hex="01FA"/>
  <anchor x="459" y="0" name="bottom"/>
  <anchor x="459" y="958" name="top"/>
  <outline>
    <contour>
      <point x="8" y="0" type="line"/>
      <point x="326" y="0" type="line"/>
      <point x="326" y="66" type="line"/>
      <point x="261" y="66" type="line" smooth="yes"/>
      <point x="250" y="66"/>
      <point x="225" y="80"/>
      <point x="225" y="95" type="curve" smooth="yes"/>
      <point x="225" y="116"/>
      <point x="239" y="143"/>
      <point x="246" y="158" type="curve" smooth="yes"/>
      <point x="269" y="204" type="line"/>
      <point x="543" y="204" type="line"/>
      <point x="573" y="136" type="line" smooth="yes"/>
      <point x="576" y="132"/>
      <point x="582" y="116"/>
      <point x="582" y="97" type="curve" smooth="yes"/>
      <point x="582" y="76"/>
      <point x="554" y="66"/>
      <point x="547" y="66" type="curve" smooth="yes"/>
      <point x="488" y="66" type="line"/>
      <point x="488" y="0" type="line"/>
      <point x="919" y="0" type="line"/>
      <point x="919" y="66" type="line"/>
      <point x="895" y="66" type="line" smooth="yes"/>
      <point x="863" y="66"/>
      <point x="830" y="87"/>
      <point x="800" y="152" type="curve" smooth="yes"/>
      <point x="583" y="622" type="line"/>
      <point x="597" y="642"/>
      <point x="606" y="664"/>
      <point x="606" y="689" type="curve" smooth="yes"/>
      <point x="606" y="760"/>
      <point x="545" y="798"/>
      <point x="466" y="798" type="curve" smooth="yes"/>
      <point x="388" y="798"/>
      <point x="326" y="760"/>
      <point x="326" y="689" type="curve" smooth="yes"/>
      <point x="326" y="664"/>
      <point x="334" y="643"/>
      <point x="350" y="619" type="curve"/>
      <point x="114" y="126" type="line" smooth="yes"/>
      <point x="87" y="77"/>
      <point x="57" y="66"/>
      <point x="17" y="66" type="curve" smooth="yes"/>
      <point x="8" y="66" type="line"/>
    </contour>
    <contour>
      <point x="298" y="278" type="line"/>
      <point x="356" y="399" type="line" smooth="yes"/>
      <point x="368" y="424"/>
      <point x="398" y="508"/>
      <point x="411" y="544" type="curve"/>
      <point x="424" y="501"/>
      <point x="444" y="425"/>
      <point x="455" y="401" type="curve" smooth="yes"/>
      <point x="508" y="278" type="line"/>
    </contour>
    <contour>
      <point x="466" y="646" type="curve" smooth="yes"/>
      <point x="423" y="646"/>
      <point x="403" y="656"/>
      <point x="403" y="689" type="curve" smooth="yes"/>
      <point x="403" y="722"/>
      <point x="433" y="734"/>
      <point x="466" y="734" type="curve" smooth="yes"/>
      <point x="500" y="734"/>
      <point x="530" y="722"/>
      <point x="530" y="689" type="curve" smooth="yes"/>
      <point x="530" y="660"/>
      <point x="506" y="646"/>
    </contour>
    <contour>
      <point x="365" y="830" type="line"/>
      <point x="470" y="830" type="line"/>
      <point x="552" y="859"/>
      <point x="684" y="922"/>
      <point x="712" y="950" type="curve"/>
      <point x="712" y="958" type="line"/>
      <point x="487" y="958" type="line"/>
      <point x="462" y="922"/>
      <point x="399" y="871"/>
      <point x="365" y="840" type="curve"/>
    </contour>
  </outline>
</glyph>
<glyph name="aringacute" format="2">
  <advance width="729"/>
  <unicode hex="01FB"/>
  <anchor x="364" y="0" name="bottom"/>
  <anchor x="364" y="958" name="top"/>
  <outline>
    <contour>
      <point x="232" y="-10" type="curve" smooth="yes"/>
      <point x="315" y="-10"/>
      <point x="348" y="-3"/>
      <point x="400" y="48" type="curve"/>
      <point x="411" y="48" type="line"/>
      <point x="441" y="0" type="line"/>
      <point x="700" y="0" type="line"/>
      <point x="700" y="66" type="line"/>
      <point x="695" y="66" type="line" smooth="yes"/>
      <point x="643" y="66"/>
      <point x="627" y="82"/>
      <point x="627" y="136" type="curve" smooth="yes"/>
      <point x="627" y="386" type="line" smooth="yes"/>
      <point x="627" y="509"/>
      <point x="537" y="552"/>
      <point x="359" y="552" type="curve" smooth="yes"/>
      <point x="215" y="552"/>
      <point x="97" y="522"/>
      <point x="97" y="444" type="curve" smooth="yes"/>
      <point x="97" y="391"/>
      <point x="165" y="372"/>
      <point x="296" y="372" type="curve"/>
      <point x="296" y="432"/>
      <point x="316" y="478"/>
      <point x="354" y="478" type="curve" smooth="yes"/>
      <point x="395" y="478"/>
      <point x="400" y="436"/>
      <point x="400" y="376" type="curve" smooth="yes"/>
      <point x="400" y="326" type="line"/>
      <point x="306" y="323" type="line" smooth="yes"/>
      <point x="133" y="318"/>
      <point x="48" y="267"/>
      <point x="48" y="156" type="curve" smooth="yes"/>
      <point x="48" y="44"/>
      <point x="130" y="-10"/>
    </contour>
    <contour>
      <point x="324" y="76" type="curve" smooth="yes"/>
      <point x="292" y="76"/>
      <point x="278" y="103"/>
      <point x="278" y="154" type="curve" smooth="yes"/>
      <point x="278" y="219"/>
      <point x="299" y="254"/>
      <point x="364" y="256" type="curve" smooth="yes"/>
      <point x="401" y="259" type="line"/>
      <point x="401" y="191" type="line"/>
      <point x="401" y="121"/>
      <point x="371" y="76"/>
    </contour>
    <contour>
      <point x="370" y="586" type="curve" smooth="yes"/>
      <point x="448" y="586"/>
      <point x="510" y="624"/>
      <point x="510" y="695" type="curve"/>
      <point x="510" y="766"/>
      <point x="448" y="804"/>
      <point x="370" y="804" type="curve" smooth="yes"/>
      <point x="292" y="804"/>
      <point x="230" y="766"/>
      <point x="230" y="695" type="curve" smooth="yes"/>
      <point x="230" y="624"/>
      <point x="292" y="586"/>
    </contour>
    <contour>
      <point x="370" y="647" type="curve" smooth="yes"/>
      <point x="336" y="647"/>
      <point x="308" y="660"/>
      <point x="308" y="695" type="curve" smooth="yes"/>
      <point x="308" y="729"/>
      <point x="336" y="741"/>
      <point x="370" y="741" type="curve" smooth="yes"/>
      <point x="404" y="741"/>
      <point x="433" y="729"/>
      <point x="433" y="695" type="curve"/>
      <point x="433" y="660"/>
      <point x="404" y="647"/>
    </contour>
    <contour>
      <point x="269" y="830" type="line"/>
      <point x="374" y="830" type="line"/>
      <point x="456" y="859"/>
      <point x="587" y="922"/>
      <point x="616" y="950" type="curve"/>
      <point x="616" y="958" type="line"/>
      <point x="390" y="958" type="line"/>
      <point x="366" y="922"/>
      <point x="303" y="871"/>
      <point x="269" y="840" type="curve"/>
    </contour>
  </outline>
</glyph>
<glyph name="uni0238" format="2">
  <advance width="1125"/>
  <unicode hex="0238"/>
  <anchor x="563" y="0" name="bottom"/>
  <anchor x="563" y="760" name="top"/>
  <outline>
    <contour>
      <point x="316" y="-10" type="curve" smooth="yes"/>
      <point x="482" y="-10"/>
      <point x="536" y="71"/>
      <point x="563" y="123" type="curve"/>
      <point x="591" y="73"/>
      <point x="654" y="-10"/>
      <point x="811" y="-10" type="curve" smooth="yes"/>
      <point x="971" y="-10"/>
      <point x="1075" y="76"/>
      <point x="1075" y="272" type="curve" smooth="yes"/>
      <point x="1075" y="465"/>
      <point x="991" y="550"/>
      <point x="844" y="550" type="curve" smooth="yes"/>
      <point x="756" y="550"/>
      <point x="707" y="526"/>
      <point x="676" y="496" type="curve"/>
      <point x="668" y="496" type="line"/>
      <point x="670" y="529"/>
      <point x="673" y="568"/>
      <point x="673" y="605" type="curve" smooth="yes"/>
      <point x="673" y="760" type="line"/>
      <point x="346" y="760" type="line"/>
      <point x="346" y="694" type="line"/>
      <point x="354" y="694" type="line" smooth="yes"/>
      <point x="406" y="694"/>
      <point x="448" y="689"/>
      <point x="448" y="639" type="curve" smooth="yes"/>
      <point x="448" y="604" type="line" smooth="yes"/>
      <point x="448" y="565"/>
      <point x="449" y="517"/>
      <point x="451" y="488" type="curve"/>
      <point x="446" y="488" type="line"/>
      <point x="413" y="523"/>
      <point x="365" y="550"/>
      <point x="280" y="550" type="curve" smooth="yes"/>
      <point x="132" y="550"/>
      <point x="46" y="460"/>
      <point x="46" y="267" type="curve" smooth="yes"/>
      <point x="46" y="75"/>
      <point x="152" y="-10"/>
    </contour>
    <contour>
      <point x="356" y="80" type="curve" smooth="yes"/>
      <point x="296" y="80"/>
      <point x="274" y="143"/>
      <point x="274" y="270" type="curve" smooth="yes"/>
      <point x="274" y="393"/>
      <point x="296" y="462"/>
      <point x="357" y="462" type="curve" smooth="yes"/>
      <point x="426" y="462"/>
      <point x="448" y="393"/>
      <point x="448" y="271" type="curve" smooth="yes"/>
      <point x="448" y="138"/>
      <point x="427" y="80"/>
    </contour>
    <contour>
      <point x="765" y="80" type="curve" smooth="yes"/>
      <point x="692" y="80"/>
      <point x="674" y="149"/>
      <point x="674" y="271" type="curve" smooth="yes"/>
      <point x="674" y="401"/>
      <point x="693" y="462"/>
      <point x="764" y="462" type="curve" smooth="yes"/>
      <point x="824" y="462"/>
      <point x="848" y="398"/>
      <point x="848" y="272" type="curve" smooth="yes"/>
      <point x="848" y="149"/>
      <point x="824" y="80"/>
    </contour>
  </outline>
</glyph>
<glyph name="uni024A" format="2">
  <advance width="1015"/>
  <unicode hex="024A"/>
  <anchor x="508" y="-240" name="bottom"/>
  <anchor x="508" y="714" name="top"/>
  <outline>
    <contour>
      <point x="868" y="-240" type="curve" smooth="yes"/>
      <point x="955" y="-240"/>
      <point x="996" y="-228"/>
      <point x="1024" y="-220" type="curve"/>
      <point x="1024" y="-154" type="line"/>
      <point x="1005" y="-156"/>
      <point x="985" y="-158"/>
      <point x="966" y="-158" type="curve" smooth="yes"/>
      <point x="904" y="-158"/>
      <point x="884" y="-120"/>
      <point x="884" y="-54" type="curve" smooth="yes"/>
      <point x="884" y="584" type="line" smooth="yes"/>
      <point x="884" y="626"/>
      <point x="901" y="648"/>
      <point x="948" y="648" type="curve" smooth="yes"/>
      <point x="991" y="648" type="line"/>
      <point x="991" y="714" type="line"/>
      <point x="694" y="714" type="line"/>
      <point x="672" y="615" type="line"/>
      <point x="667" y="615" type="line"/>
      <point x="632" y="671"/>
      <point x="565" y="724"/>
      <point x="427" y="724" type="curve" smooth="yes"/>
      <point x="192" y="724"/>
      <point x="63" y="580"/>
      <point x="63" y="359" type="curve" smooth="yes"/>
      <point x="63" y="137"/>
      <point x="175" y="-10"/>
      <point x="409" y="-10" type="curve" smooth="yes"/>
      <point x="561" y="-10"/>
      <point x="642" y="61"/>
      <point x="667" y="111" type="curve"/>
      <point x="672" y="111" type="line"/>
      <point x="667" y="74"/>
      <point x="663" y="41"/>
      <point x="665" y="0" type="curve" smooth="yes"/>
      <point x="665" y="-73" type="line" smooth="yes"/>
      <point x="665" y="-184"/>
      <point x="731" y="-240"/>
    </contour>
    <contour>
      <point x="474" y="79" type="curve" smooth="yes"/>
      <point x="367" y="79"/>
      <point x="307" y="143"/>
      <point x="307" y="358" type="curve" smooth="yes"/>
      <point x="307" y="554"/>
      <point x="359" y="636"/>
      <point x="484" y="636" type="curve" smooth="yes"/>
      <point x="595" y="636"/>
      <point x="650" y="556"/>
      <point x="650" y="358" type="curve" smooth="yes"/>
      <point x="650" y="177"/>
      <point x="597" y="79"/>
    </contour>
  </outline>
</glyph>
<glyph name="eopenreversedhook" format="2">
  <advance width="967"/>
  <unicode hex="025D"/>
  <anchor x="454" y="0" name="bottom"/>
  <anchor x="454" y="536" name="top"/>
  <outline>
    <contour>
      <point x="826" y="236" type="curve" smooth="yes"/>
      <point x="901" y="236"/>
      <point x="949" y="271"/>
      <point x="949" y="344" type="curve" smooth="yes"/>
      <point x="949" y="383"/>
      <point x="927" y="405"/>
      <point x="907" y="417" type="curve"/>
      <point x="899" y="388"/>
      <point x="882" y="365"/>
      <point x="840" y="364" type="curve" smooth="yes"/>
      <point x="783" y="363"/>
      <point x="765" y="397"/>
      <point x="743" y="464" type="curve" smooth="yes"/>
      <point x="729" y="506" type="line"/>
      <point x="424" y="421" type="line"/>
      <point x="446" y="346" type="line"/>
      <point x="647" y="400" type="line"/>
      <point x="652" y="384" type="line" smooth="yes"/>
      <point x="677" y="304"/>
      <point x="724" y="236"/>
    </contour>
    <component base="afii10073"/>
  </outline>
</glyph>
<glyph name="uni025E" format="2">
  <advance width="734"/>
  <unicode hex="025E"/>
  <anchor x="367" y="0" name="bottom"/>
  <anchor x="367" y="536" name="top"/>
  <outline>
    <contour>
      <point x="377" y="-10" type="curve" smooth="yes"/>
      <point x="575" y="-10"/>
      <point x="690" y="55"/>
      <point x="690" y="164" type="curve" smooth="yes"/>
      <point x="690" y="252"/>
      <point x="614" y="282"/>
      <point x="514" y="284" type="curve"/>
      <point x="514" y="289" type="line"/>
      <point x="614" y="301"/>
      <point x="677" y="337"/>
      <point x="677" y="406" type="curve" smooth="yes"/>
      <point x="677" y="518"/>
      <point x="547" y="552"/>
      <point x="399" y="552" type="curve" smooth="yes"/>
      <point x="157" y="552"/>
      <point x="48" y="459"/>
      <point x="48" y="272" type="curve" smooth="yes"/>
      <point x="48" y="89"/>
      <point x="162" y="-10"/>
    </contour>
    <contour>
      <point x="381" y="63" type="curve" smooth="yes"/>
      <point x="318" y="63"/>
      <point x="278" y="97"/>
      <point x="278" y="272" type="curve" smooth="yes"/>
      <point x="278" y="405"/>
      <point x="309" y="479"/>
      <point x="384" y="479" type="curve" smooth="yes"/>
      <point x="432" y="479"/>
      <point x="451" y="443"/>
      <point x="451" y="405" type="curve" smooth="yes"/>
      <point x="451" y="353"/>
      <point x="431" y="323"/>
      <point x="366" y="323" type="curve" smooth="yes"/>
      <point x="350" y="323" type="line"/>
      <point x="350" y="247" type="line"/>
      <point x="371" y="247" type="line" smooth="yes"/>
      <point x="435" y="247"/>
      <point x="462" y="220"/>
      <point x="462" y="151" type="curve" smooth="yes"/>
      <point x="462" y="100"/>
      <point x="437" y="63"/>
    </contour>
  </outline>
</glyph>
<glyph name="uni0265" format="2">
  <advance width="806"/>
  <unicode hex="0265"/>
  <anchor x="404" y="-221" name="bottom"/>
  <anchor x="404" y="536" name="top"/>
  <outline>
    <contour>
      <point x="459" y="-221" type="line"/>
      <point x="777" y="-221" type="line"/>
      <point x="777" y="-155" type="line"/>
      <point x="759" y="-155" type="line" smooth="yes"/>
      <point x="740" y="-155"/>
      <point x="686" y="-148"/>
      <point x="686" y="-102" type="curve" smooth="yes"/>
      <point x="686" y="404" type="line" smooth="yes"/>
      <point x="686" y="461"/>
      <point x="721" y="470"/>
      <point x="766" y="470" type="curve" smooth="yes"/>
      <point x="770" y="470" type="line"/>
      <point x="770" y="536" type="line"/>
      <point x="380" y="536" type="line"/>
      <point x="380" y="470" type="line"/>
      <point x="385" y="470" type="line" smooth="yes"/>
      <point x="436" y="470"/>
      <point x="457" y="459"/>
      <point x="457" y="407" type="curve" smooth="yes"/>
      <point x="457" y="240" type="line" smooth="yes"/>
      <point x="457" y="178"/>
      <point x="449" y="93"/>
      <point x="386" y="93" type="curve" smooth="yes"/>
      <point x="337" y="93"/>
      <point x="319" y="142"/>
      <point x="319" y="227" type="curve" smooth="yes"/>
      <point x="319" y="536" type="line"/>
      <point x="19" y="536" type="line"/>
      <point x="19" y="470" type="line"/>
      <point x="23" y="470" type="line" smooth="yes"/>
      <point x="75" y="470"/>
      <point x="92" y="461"/>
      <point x="92" y="400" type="curve" smooth="yes"/>
      <point x="92" y="173" type="line" smooth="yes"/>
      <point x="92" y="40"/>
      <point x="152" y="-16"/>
      <point x="281" y="-16" type="curve" smooth="yes"/>
      <point x="383" y="-16"/>
      <point x="427" y="17"/>
      <point x="455" y="52" type="curve"/>
      <point x="465" y="52" type="line"/>
      <point x="461" y="10"/>
      <point x="459" y="-48"/>
      <point x="459" y="-109" type="curve" smooth="yes"/>
    </contour>
  </outline>
</glyph>
<glyph name="uni029B" format="2">
  <advance width="779"/>
  <unicode hex="029B"/>
  <anchor x="389" y="0" name="bottom"/>
  <anchor x="389" y="760" name="top"/>
  <outline>
    <contour>
      <point x="392" y="-10" type="curve" smooth="yes"/>
      <point x="526" y="-10"/>
      <point x="633" y="28"/>
      <point x="681" y="41" type="curve"/>
      <point x="681" y="145" type="line" smooth="yes"/>
      <point x="681" y="188"/>
      <point x="697" y="208"/>
      <point x="731" y="208" type="curve" smooth="yes"/>
      <point x="745" y="208" type="line"/>
      <point x="745" y="275" type="line"/>
      <point x="376" y="275" type="line"/>
      <point x="376" y="208" type="line"/>
      <point x="393" y="208" type="line" smooth="yes"/>
      <point x="434" y="208"/>
      <point x="464" y="200"/>
      <point x="464" y="153" type="curve" smooth="yes"/>
      <point x="464" y="74" type="line"/>
      <point x="451" y="72"/>
      <point x="433" y="71"/>
      <point x="408" y="71" type="curve" smooth="yes"/>
      <point x="312" y="71"/>
      <point x="264" y="132"/>
      <point x="264" y="272" type="curve" smooth="yes"/>
      <point x="264" y="429"/>
      <point x="305" y="479"/>
      <point x="394" y="479" type="curve" smooth="yes"/>
      <point x="470" y="479"/>
      <point x="497" y="445"/>
      <point x="497" y="350" type="curve"/>
      <point x="658" y="350"/>
      <point x="682" y="385"/>
      <point x="682" y="429" type="curve" smooth="yes"/>
      <point x="682" y="526" type="line" smooth="yes"/>
      <point x="682" y="622"/>
      <point x="711" y="640"/>
      <point x="758" y="640" type="curve" smooth="yes"/>
      <point x="789" y="640"/>
      <point x="808" y="623"/>
      <point x="821" y="611" type="curve"/>
      <point x="834" y="621"/>
      <point x="852" y="642"/>
      <point x="852" y="674" type="curve" smooth="yes"/>
      <point x="852" y="721"/>
      <point x="816" y="760"/>
      <point x="741" y="760" type="curve" smooth="yes"/>
      <point x="641" y="760"/>
      <point x="584" y="702"/>
      <point x="584" y="589" type="curve" smooth="yes"/>
      <point x="584" y="525" type="line"/>
      <point x="541" y="539"/>
      <point x="474" y="552"/>
      <point x="382" y="552" type="curve" smooth="yes"/>
      <point x="162" y="552"/>
      <point x="36" y="462"/>
      <point x="36" y="260" type="curve" smooth="yes"/>
      <point x="36" y="77"/>
      <point x="172" y="-10"/>
    </contour>
  </outline>
</glyph>
<glyph name="dzligcurl" format="2">
  <advance width="1312"/>
  <unicode hex="02A5"/>
  <anchor x="657" y="0" name="bottom"/>
  <anchor x="657" y="760" name="top"/>
  <outline>
    <contour>
      <point x="1039" y="-109" type="line"/>
      <point x="1048" y="-67"/>
      <point x="1057" y="-33"/>
      <point x="1067" y="0" type="curve"/>
      <point x="1127" y="0" type="line" smooth="yes"/>
      <point x="1255" y="0"/>
      <point x="1304" y="43"/>
      <point x="1304" y="118" type="curve" smooth="yes"/>
      <point x="1304" y="180"/>
      <point x="1253" y="222"/>
      <point x="1177" y="222" type="curve" smooth="yes"/>
      <point x="1088" y="222"/>
      <point x="1030" y="179"/>
      <point x="986" y="84" type="curve"/>
      <point x="896" y="84" type="line"/>
      <point x="1244" y="491" type="line"/>
      <point x="1244" y="536" type="line"/>
      <point x="675" y="536" type="line"/>
      <point x="675" y="760" type="line"/>
      <point x="346" y="760" type="line"/>
      <point x="346" y="694" type="line"/>
      <point x="354" y="694" type="line" smooth="yes"/>
      <point x="406" y="694"/>
      <point x="448" y="689"/>
      <point x="448" y="639" type="curve" smooth="yes"/>
      <point x="448" y="604" type="line" smooth="yes"/>
      <point x="448" y="565"/>
      <point x="448" y="518"/>
      <point x="451" y="488" type="curve"/>
      <point x="445" y="488" type="line"/>
      <point x="412" y="523"/>
      <point x="365" y="550"/>
      <point x="280" y="550" type="curve" smooth="yes"/>
      <point x="132" y="550"/>
      <point x="46" y="460"/>
      <point x="46" y="267" type="curve" smooth="yes"/>
      <point x="46" y="75"/>
      <point x="132" y="-10"/>
      <point x="283" y="-10" type="curve" smooth="yes"/>
      <point x="375" y="-10"/>
      <point x="429" y="18"/>
      <point x="464" y="63" type="curve"/>
      <point x="471" y="63" type="line"/>
      <point x="512" y="0" type="line"/>
      <point x="957" y="0" type="line"/>
      <point x="949" y="-27"/>
      <point x="941" y="-55"/>
      <point x="934" y="-91" type="curve"/>
    </contour>
    <contour>
      <point x="356" y="80" type="curve" smooth="yes"/>
      <point x="296" y="80"/>
      <point x="274" y="143"/>
      <point x="274" y="270" type="curve" smooth="yes"/>
      <point x="274" y="393"/>
      <point x="296" y="462"/>
      <point x="357" y="462" type="curve" smooth="yes"/>
      <point x="427" y="462"/>
      <point x="448" y="393"/>
      <point x="448" y="271" type="curve" smooth="yes"/>
      <point x="448" y="138"/>
      <point x="427" y="80"/>
    </contour>
    <contour>
      <point x="1095" y="80" type="line"/>
      <point x="1110" y="109"/>
      <point x="1136" y="138"/>
      <point x="1172" y="138" type="curve" smooth="yes"/>
      <point x="1192" y="138"/>
      <point x="1209" y="129"/>
      <point x="1209" y="114" type="curve" smooth="yes"/>
      <point x="1209" y="95"/>
      <point x="1190" y="80"/>
      <point x="1121" y="80" type="curve" smooth="yes"/>
    </contour>
    <contour>
      <point x="675" y="84" type="line"/>
      <point x="675" y="452" type="line"/>
      <point x="992" y="452" type="line"/>
    </contour>
  </outline>
</glyph>
<glyph name="uni02C4" format="2">
  <advance width="320"/>
  <unicode hex="02C4"/>
  <outline>
    <contour>
      <point x="3" y="568" type="line"/>
      <point x="81" y="568" type="line"/>
      <point x="105" y="592"/>
      <point x="140" y="635"/>
      <point x="159" y="665" type="curve"/>
      <point x="176" y="635"/>
      <point x="210" y="591"/>
      <point x="237" y="568" type="curve"/>
      <point x="314" y="568" type="line"/>
      <point x="314" y="578" type="line"/>
      <point x="265" y="639"/>
      <point x="222" y="706"/>
      <point x="187" y="780" type="curve"/>
      <point x="129" y="780" type="line"/>
      <point x="97" y="700"/>
      <point x="55" y="636"/>
      <point x="3" y="578" type="curve"/>
    </contour>
  </outline>
</glyph>
<glyph name="uni02C5" format="2">
  <advance width="320"/>
  <unicode hex="02C5"/>
  <outline>
    <contour>
      <point x="130" y="568" type="curve"/>
      <point x="188" y="568" type="line"/>
      <point x="220" y="647"/>
      <point x="263" y="713"/>
      <point x="314" y="770" type="curve"/>
      <point x="314" y="780" type="line"/>
      <point x="237" y="780" type="line"/>
      <point x="212" y="757"/>
      <point x="177" y="714"/>
      <point x="159" y="684" type="curve"/>
      <point x="141" y="714"/>
      <point x="107" y="758"/>
      <point x="81" y="780" type="curve"/>
      <point x="3" y="780" type="line"/>
      <point x="3" y="770" type="line"/>
      <point x="52" y="713"/>
      <point x="96" y="648"/>
    </contour>
  </outline>
</glyph>
<glyph name="uni02CC" format="2">
  <advance width="184"/>
  <unicode hex="02CC"/>
  <outline>
    <contour>
      <point x="40" y="-241" type="line"/>
      <point x="144" y="-241" type="line"/>
      <point x="144" y="-52" type="line"/>
      <point x="40" y="-52" type="line"/>
    </contour>
  </outline>
</glyph>
<glyph name="tilde" format="2">
  <advance width="575"/>
  <unicode hex="02DC"/>
  <outline>
    <contour>
      <point x="373" y="606" type="curve" smooth="yes"/>
      <point x="456" y="606"/>
      <point x="530" y="685"/>
      <point x="535" y="790" type="curve"/>
      <point x="443" y="790" type="line"/>
      <point x="438" y="763"/>
      <point x="411" y="737"/>
      <point x="386" y="737" type="curve" smooth="yes"/>
      <point x="337" y="737"/>
      <point x="287" y="800"/>
      <point x="204" y="800" type="curve" smooth="yes"/>
      <point x="120" y="800"/>
      <point x="44" y="722"/>
      <point x="40" y="616" type="curve"/>
      <point x="133" y="616" type="line"/>
      <point x="138" y="643"/>
      <point x="164" y="669"/>
      <point x="190" y="669" type="curve" smooth="yes"/>
      <point x="240" y="669"/>
      <point x="289" y="606"/>
    </contour>
  </outline>
</glyph>
<glyph name="uni02EC" format="2">
  <advance width="568"/>
  <unicode hex="02EC"/>
  <outline>
    <contour>
      <point x="184" y="-229" type="curve"/>
      <point x="385" y="-229" type="line"/>
      <point x="424" y="-177"/>
      <point x="469" y="-133"/>
      <point x="528" y="-76" type="curve"/>
      <point x="528" y="-59" type="line"/>
      <point x="416" y="-59" type="line"/>
      <point x="389" y="-78"/>
      <point x="318" y="-142"/>
      <point x="285" y="-172" type="curve"/>
      <point x="252" y="-143"/>
      <point x="180" y="-78"/>
      <point x="152" y="-59" type="curve"/>
      <point x="40" y="-59" type="line"/>
      <point x="40" y="-76" type="line"/>
      <point x="97" y="-128"/>
      <point x="143" y="-173"/>
    </contour>
  </outline>
</glyph>
<glyph name="uni02F3" format="2">
  <advance width="388"/>
  <unicode hex="02F3"/>
  <outline>
    <contour>
      <point x="194" y="-321" type="curve" smooth="yes"/>
      <point x="275" y="-321"/>
      <point x="340" y="-280"/>
      <point x="340" y="-202" type="curve" smooth="yes"/>
      <point x="340" y="-125"/>
      <point x="275" y="-83"/>
      <point x="194" y="-83" type="curve" smooth="yes"/>
      <point x="111" y="-83"/>
      <point x="46" y="-125"/>
      <point x="46" y="-202" type="curve" smooth="yes"/>
      <point x="46" y="-280"/>
      <point x="111" y="-321"/>
    </contour>
    <contour>
      <point x="194" y="-257" type="curve" smooth="yes"/>
      <point x="156" y="-257"/>
      <point x="124" y="-243"/>
      <point x="124" y="-202" type="curve" smooth="yes"/>
      <point x="124" y="-162"/>
      <point x="156" y="-147"/>
      <point x="194" y="-147" type="curve" smooth="yes"/>
      <point x="232" y="-147"/>
      <point x="265" y="-162"/>
      <point x="265" y="-202" type="curve" smooth="yes"/>
      <point x="265" y="-243"/>
      <point x="232" y="-257"/>
    </contour>
  </outline>
</glyph>
<glyph name="dblgravecomb" format="2">
  <unicode hex="030F"/>
  <anchor x="-426" y="536" name="_top"/>
  <anchor x="-426" y="766" name="top"/>
  <outline>
    <contour>
      <point x="-270" y="606" type="curve"/>
      <point x="-172" y="606" type="line"/>
      <point x="-172" y="619" type="line"/>
      <point x="-205" y="668"/>
      <point x="-247" y="721"/>
      <point x="-272" y="766" type="curve"/>
      <point x="-445" y="766" type="line"/>
      <point x="-445" y="756" type="line"/>
      <point x="-421" y="721"/>
      <point x="-322" y="642"/>
    </contour>
    <contour>
      <point x="-503" y="606" type="curve"/>
      <point x="-406" y="606" type="line"/>
      <point x="-406" y="619" type="line"/>
      <point x="-439" y="668"/>
      <point x="-480" y="721"/>
      <point x="-505" y="766" type="curve"/>
      <point x="-679" y="766" type="line"/>
      <point x="-679" y="756" type="line"/>
      <point x="-655" y="721"/>
      <point x="-556" y="642"/>
    </contour>
  </outline>
</glyph>
<glyph name="minusbelowcomb" format="2">
  <unicode hex="0320"/>
  <anchor x="1" y="0" name="_bottom"/>
  <anchor x="1" y="-174" name="bottom"/>
  <outline>
    <contour>
      <point x="-106" y="-149" type="line"/>
      <point x="106" y="-149" type="line"/>
      <point x="106" y="-96" type="line"/>
      <point x="-106" y="-96" type="line"/>
    </contour>
  </outline>
</glyph>
<glyph name="commaaccent" format="2">
  <unicode hex="0326"/>
  <anchor x="2" y="0" name="_bottom"/>
  <anchor x="2" y="-221" name="bottom"/>
  <outline>
    <contour>
      <point x="-100" y="-221" type="line"/>
      <point x="-17" y="-221" type="line"/>
      <point x="25" y="-176"/>
      <point x="84" y="-113"/>
      <point x="104" y="-71" type="curve"/>
      <point x="104" y="-61" type="line"/>
      <point x="-47" y="-61" type="line"/>
      <point x="-56" y="-100"/>
      <point x="-84" y="-173"/>
      <point x="-100" y="-208" type="curve"/>
    </contour>
  </outline>
</glyph>
<glyph name="circumflexbelowcomb" format="2">
  <unicode hex="032D"/>
  <anchor x="1" y="0" name="_bottom"/>
  <anchor x="1" y="-216" name="bottom"/>
  <outline>
    <contour>
      <point x="-232" y="-216" type="line"/>
      <point x="-126" y="-216" type="line"/>
      <point x="-102" y="-194"/>
      <point x="-36" y="-147"/>
      <point x="-1" y="-126" type="curve"/>
      <point x="34" y="-147"/>
      <point x="104" y="-194"/>
      <point x="127" y="-216" type="curve"/>
      <point x="233" y="-216" type="line"/>
      <point x="233" y="-203" type="line"/>
      <point x="197" y="-165"/>
      <point x="121" y="-101"/>
      <point x="97" y="-56" type="curve"/>
      <point x="-94" y="-56" type="line"/>
      <point x="-119" y="-101"/>
      <point x="-196" y="-165"/>
      <point x="-232" y="-203" type="curve"/>
    </contour>
  </outline>
</glyph>
<glyph name="slashlongoverlaycomb" format="2">
  <unicode hex="0338"/>
  <anchor x="-11" y="344" name="_center"/>
  <outline>
    <contour>
      <point x="-162" y="-86" type="line"/>
      <point x="223" y="745" type="line"/>
      <point x="145" y="773" type="line"/>
      <point x="-246" y="-55" type="line"/>
    </contour>
  </outline>
</glyph>
<glyph name="bridgeinvertedbelowcomb" format="2">
  <unicode hex="033A"/>
  <anchor x="0" y="0" name="_bottom"/>
  <anchor x="0" y="-226" name="bottom"/>
  <outline>
    <contour>
      <point x="-210" y="-226" type="line"/>
      <point x="210" y="-226" type="line"/>
      <point x="210" y="-72" type="line"/>
      <point x="154" y="-72" type="line"/>
      <point x="154" y="-84" type="line" smooth="yes"/>
      <point x="154" y="-135"/>
      <point x="132" y="-166"/>
      <point x="51" y="-166" type="curve" smooth="yes"/>
      <point x="-51" y="-166" type="line" smooth="yes"/>
      <point x="-131" y="-166"/>
      <point x="-154" y="-138"/>
      <point x="-154" y="-84" type="curve" smooth="yes"/>
      <point x="-154" y="-72" type="line"/>
      <point x="-210" y="-72" type="line"/>
    </contour>
  </outline>
</glyph>
<glyph name="leftanglebelowcomb" format="2">
  <unicode hex="0349"/>
  <anchor x="1" y="0" name="_bottom"/>
  <anchor x="1" y="-253" name="bottom"/>
  <outline>
    <contour>
      <point x="12" y="-253" type="line"/>
      <point x="116" y="-253" type="line"/>
      <point x="116" y="-66" type="line"/>
      <point x="-115" y="-66" type="line"/>
      <point x="-115" y="-163" type="line"/>
      <point x="12" y="-163" type="line"/>
    </contour>
  </outline>
</glyph>
<glyph name="asteriskbelowcomb" format="2">
  <unicode hex="0359"/>
  <anchor x="-1" y="0" name="_bottom"/>
  <anchor x="-1" y="-240" name="bottom"/>
  <outline>
    <contour>
      <point x="-39" y="-240" type="line"/>
      <point x="38" y="-240" type="line"/>
      <point x="10" y="-151" type="line"/>
      <point x="107" y="-216" type="line"/>
      <point x="142" y="-159" type="line"/>
      <point x="20" y="-135" type="line"/>
      <point x="142" y="-111" type="line"/>
      <point x="107" y="-54" type="line"/>
      <point x="10" y="-118" type="line"/>
      <point x="38" y="-30" type="line"/>
      <point x="-39" y="-30" type="line"/>
      <point x="-11" y="-118" type="line"/>
      <point x="-108" y="-54" type="line"/>
      <point x="-143" y="-111" type="line"/>
      <point x="-21" y="-135" type="line"/>
      <point x="-143" y="-159" type="line"/>
      <point x="-108" y="-216" type="line"/>
      <point x="-11" y="-151" type="line"/>
    </contour>
  </outline>
</glyph>
<glyph name="heta" format="2">
  <advance width="547"/>
  <unicode hex="0371"/>
  <anchor x="274" y="0" name="bottom"/>
  <anchor x="274" y="536" name="top"/>
  <outline>
    <contour>
      <point x="110" y="0" type="line"/>
      <point x="337" y="0" type="line"/>
      <point x="337" y="233" type="line"/>
      <point x="535" y="233" type="line"/>
      <point x="535" y="318" type="line"/>
      <point x="337" y="318" type="line"/>
      <point x="337" y="536" type="line"/>
      <point x="19" y="536" type="line"/>
      <point x="19" y="470" type="line"/>
      <point x="37" y="470" type="line" smooth="yes"/>
      <point x="81" y="470"/>
      <point x="110" y="455"/>
      <point x="110" y="396" type="curve" smooth="yes"/>
    </contour>
  </outline>
</glyph>
<glyph name="archaicsampi" format="2">
  <advance width="705"/>
  <unicode hex="0373"/>
  <anchor x="353" y="-240" name="bottom"/>
  <anchor x="353" y="536" name="top"/>
  <outline>
    <contour>
      <point x="274" y="-240" type="curve"/>
      <point x="501" y="-240" type="line"/>
      <point x="489" y="-213"/>
      <point x="470" y="-136"/>
      <point x="470" y="9" type="curve" smooth="yes"/>
      <point x="470" y="443" type="line"/>
      <point x="491" y="443" type="line" smooth="yes"/>
      <point x="554" y="443"/>
      <point x="593" y="426"/>
      <point x="595" y="372" type="curve" smooth="yes"/>
      <point x="597" y="316" type="line"/>
      <point x="689" y="316" type="line"/>
      <point x="689" y="536" type="line"/>
      <point x="196" y="536" type="line" smooth="yes"/>
      <point x="89" y="536"/>
      <point x="7" y="472"/>
      <point x="7" y="338" type="curve" smooth="yes"/>
      <point x="7" y="315" type="line"/>
      <point x="94" y="315" type="line"/>
      <point x="94" y="391"/>
      <point x="131" y="443"/>
      <point x="218" y="443" type="curve" smooth="yes"/>
      <point x="246" y="443" type="line"/>
      <point x="246" y="20" type="line" smooth="yes"/>
      <point x="246" y="-131"/>
      <point x="262" y="-199"/>
    </contour>
  </outline>
</glyph>
<glyph name="uni03DA" format="2">
  <advance width="833"/>
  <unicode hex="03DA"/>
  <anchor x="417" y="0" name="bottom"/>
  <anchor x="417" y="714" name="top"/>
  <outline>
    <contour>
      <point x="264" y="0" type="line"/>
      <point x="712" y="0" type="line"/>
      <point x="712" y="66" type="line"/>
      <point x="668" y="66" type="line" smooth="yes"/>
      <point x="625" y="66"/>
      <point x="605" y="79"/>
      <point x="605" y="129" type="curve" smooth="yes"/>
      <point x="605" y="261" type="line"/>
      <point x="555" y="261" type="line" smooth="yes"/>
      <point x="416" y="261"/>
      <point x="328" y="306"/>
      <point x="328" y="455" type="curve" smooth="yes"/>
      <point x="328" y="583"/>
      <point x="366" y="647"/>
      <point x="484" y="647" type="curve" smooth="yes"/>
      <point x="587" y="647"/>
      <point x="616" y="577"/>
      <point x="616" y="496" type="curve"/>
      <point x="737" y="496"/>
      <point x="794" y="536"/>
      <point x="794" y="604" type="curve" smooth="yes"/>
      <point x="794" y="671"/>
      <point x="698" y="724"/>
      <point x="507" y="724" type="curve" smooth="yes"/>
      <point x="227" y="724"/>
      <point x="83" y="616"/>
      <point x="83" y="438" type="curve" smooth="yes"/>
      <point x="83" y="289"/>
      <point x="191" y="213"/>
      <point x="370" y="189" type="curve"/>
      <point x="370" y="129" type="line" smooth="yes"/>
      <point x="370" y="79"/>
      <point x="351" y="66"/>
      <point x="308" y="66" type="curve" smooth="yes"/>
      <point x="264" y="66" type="line"/>
    </contour>
  </outline>
</glyph>
<glyph name="uni03DB" format="2">
  <advance width="697"/>
  <unicode hex="03DB"/>
  <anchor x="349" y="-207" name="bottom"/>
  <anchor x="349" y="536" name="top"/>
  <outline>
    <contour>
      <point x="348" y="-207" type="curve" smooth="yes"/>
      <point x="485" y="-207"/>
      <point x="611" y="-127"/>
      <point x="611" y="-7" type="curve" smooth="yes"/>
      <point x="611" y="77"/>
      <point x="556" y="127"/>
      <point x="438" y="159" type="curve" smooth="yes"/>
      <point x="333" y="188"/>
      <point x="274" y="214"/>
      <point x="274" y="316" type="curve" smooth="yes"/>
      <point x="274" y="407"/>
      <point x="286" y="442"/>
      <point x="331" y="442" type="curve" smooth="yes"/>
      <point x="381" y="442"/>
      <point x="400" y="397"/>
      <point x="519" y="397" type="curve" smooth="yes"/>
      <point x="614" y="397"/>
      <point x="665" y="457"/>
      <point x="687" y="596" type="curve"/>
      <point x="631" y="596" type="line"/>
      <point x="611" y="557"/>
      <point x="588" y="552"/>
      <point x="534" y="552" type="curve" smooth="yes"/>
      <point x="492" y="552"/>
      <point x="454" y="558"/>
      <point x="403" y="558" type="curve" smooth="yes"/>
      <point x="150" y="558"/>
      <point x="48" y="437"/>
      <point x="48" y="270" type="curve" smooth="yes"/>
      <point x="48" y="103"/>
      <point x="137" y="32"/>
      <point x="325" y="-5" type="curve" smooth="yes"/>
      <point x="389" y="-18"/>
      <point x="445" y="-32"/>
      <point x="445" y="-74" type="curve" smooth="yes"/>
      <point x="445" y="-115"/>
      <point x="389" y="-127"/>
      <point x="277" y="-131" type="curve"/>
      <point x="277" y="-172"/>
      <point x="290" y="-207"/>
    </contour>
  </outline>
</glyph>
<glyph name="uni03F0" format="2">
  <advance width="819"/>
  <unicode hex="03F0"/>
  <anchor x="410" y="0" name="bottom"/>
  <anchor x="410" y="536" name="top"/>
  <outline>
    <contour>
      <point x="649" y="1" type="curve" smooth="yes"/>
      <point x="750" y="1"/>
      <point x="790" y="47"/>
      <point x="805" y="89" type="curve"/>
      <point x="732" y="89"/>
      <point x="702" y="124"/>
      <point x="702" y="191" type="curve" smooth="yes"/>
      <point x="702" y="336"/>
      <point x="743" y="448"/>
      <point x="785" y="536" type="curve"/>
      <point x="607" y="536" type="line"/>
      <point x="267" y="171" type="line"/>
      <point x="302" y="212"/>
      <point x="353" y="307"/>
      <point x="353" y="396" type="curve" smooth="yes"/>
      <point x="353" y="485"/>
      <point x="304" y="546"/>
      <point x="175" y="546" type="curve" smooth="yes"/>
      <point x="51" y="546"/>
      <point x="13" y="483"/>
      <point x="10" y="432" type="curve"/>
      <point x="86" y="432"/>
      <point x="117" y="411"/>
      <point x="117" y="313" type="curve" smooth="yes"/>
      <point x="117" y="188"/>
      <point x="68" y="91"/>
      <point x="26" y="0" type="curve"/>
      <point x="216" y="0" type="line"/>
      <point x="542" y="346" type="line"/>
      <point x="491" y="271"/>
      <point x="469" y="218"/>
      <point x="469" y="164" type="curve" smooth="yes"/>
      <point x="469" y="51"/>
      <point x="537" y="1"/>
    </contour>
  </outline>
</glyph>
<glyph name="afii10018" format="2">
  <advance width="799"/>
  <unicode hex="0411"/>
  <anchor x="399" y="0" name="bottom"/>
  <anchor x="399" y="714" name="top"/>
  <outline>
    <contour>
      <point x="24" y="0" type="line"/>
      <point x="427" y="0" type="line" smooth="yes"/>
      <point x="668" y="0"/>
      <point x="763" y="90"/>
      <point x="763" y="213" type="curve" smooth="yes"/>
      <point x="763" y="336"/>
      <point x="682" y="410"/>
      <point x="461" y="410" type="curve" smooth="yes"/>
      <point x="364" y="410" type="line"/>
      <point x="364" y="640" type="line"/>
      <point x="502" y="640" type="line" smooth="yes"/>
      <point x="572" y="640"/>
      <point x="594" y="622"/>
      <point x="599" y="581" type="curve" smooth="yes"/>
      <point x="609" y="497" type="line"/>
      <point x="701" y="497" type="line"/>
      <point x="695" y="714" type="line"/>
      <point x="24" y="714" type="line"/>
      <point x="24" y="648" type="line"/>
      <point x="82" y="648" type="line" smooth="yes"/>
      <point x="112" y="648"/>
      <point x="132" y="636"/>
      <point x="132" y="591" type="curve" smooth="yes"/>
      <point x="132" y="130" type="line" smooth="yes"/>
      <point x="132" y="91"/>
      <point x="116" y="66"/>
      <point x="73" y="66" type="curve" smooth="yes"/>
      <point x="24" y="66" type="line"/>
    </contour>
    <contour>
      <point x="363" y="72" type="line"/>
      <point x="363" y="339" type="line"/>
      <point x="402" y="339" type="line" smooth="yes"/>
      <point x="477" y="339"/>
      <point x="514" y="307"/>
      <point x="514" y="213" type="curve" smooth="yes"/>
      <point x="514" y="112"/>
      <point x="474" y="72"/>
      <point x="404" y="72" type="curve" smooth="yes"/>
    </contour>
  </outline>
</glyph>
<glyph name="afii10045" format="2">
  <advance width="1222"/>
  <unicode hex="042B"/>
  <anchor x="611" y="0" name="bottom"/>
  <anchor x="611" y="714" name="top"/>
  <outline>
    <contour>
      <point x="24" y="0" type="line"/>
      <point x="421" y="0" type="line" smooth="yes"/>
      <point x="662" y="0"/>
      <point x="758" y="90"/>
      <point x="758" y="213" type="curve" smooth="yes"/>
      <point x="758" y="336"/>
      <point x="676" y="410"/>
      <point x="455" y="410" type="curve" smooth="yes"/>
      <point x="364" y="410" type="line"/>
      <point x="364" y="596" type="line" smooth="yes"/>
      <point x="364" y="627"/>
      <point x="381" y="648"/>
      <point x="416" y="648" type="curve" smooth="yes"/>
      <point x="497" y="648" type="line"/>
      <point x="497" y="714" type="line"/>
      <point x="24" y="714" type="line"/>
      <point x="24" y="648" type="line"/>
      <point x="82" y="648" type="line" smooth="yes"/>
      <point x="112" y="648"/>
      <point x="132" y="636"/>
      <point x="132" y="591" type="curve" smooth="yes"/>
      <point x="132" y="130" type="line" smooth="yes"/>
      <point x="132" y="91"/>
      <point x="116" y="66"/>
      <point x="73" y="66" type="curve" smooth="yes"/>
      <point x="24" y="66" type="line"/>
    </contour>
    <contour>
      <point x="364" y="72" type="line"/>
      <point x="364" y="339" type="line"/>
      <point x="396" y="339" type="line" smooth="yes"/>
      <point x="471" y="339"/>
      <point x="509" y="307"/>
      <point x="509" y="213" type="curve" smooth="yes"/>
      <point x="509" y="112"/>
      <point x="468" y="72"/>
      <point x="397" y="72" type="curve" smooth="yes"/>
    </contour>
    <contour>
      <point x="760" y="0" type="line"/>
      <point x="1209" y="0" type="line"/>
      <point x="1209" y="66" type="line"/>
      <point x="1144" y="66" type="line" smooth="yes"/>
      <point x="1121" y="66"/>
      <point x="1100" y="88"/>
      <point x="1100" y="110" type="curve" smooth="yes"/>
      <point x="1100" y="598" type="line" smooth="yes"/>
      <point x="1100" y="629"/>
      <point x="1116" y="648"/>
      <point x="1144" y="648" type="curve" smooth="yes"/>
      <point x="1209" y="648" type="line"/>
      <point x="1209" y="714" type="line"/>
      <point x="760" y="714" type="line"/>
      <point x="760" y="648" type="line"/>
      <point x="821" y="648" type="line" smooth="yes"/>
      <point x="843" y="648"/>
      <point x="867" y="629"/>
      <point x="867" y="599" type="curve" smooth="yes"/>
      <point x="867" y="107" type="line" smooth="yes"/>
      <point x="867" y="85"/>
      <point x="843" y="66"/>
      <point x="821" y="66" type="curve" smooth="yes"/>
      <point x="760" y="66" type="line"/>
    </contour>
  </outline>
</glyph>
<glyph name="afii10046" format="2">
  <advance width="773"/>
  <unicode hex="042C"/>
  <anchor x="387" y="0" name="bottom"/>
  <anchor x="387" y="714" name="top"/>
  <outline>
    <contour>
      <point x="24" y="0" type="line"/>
      <point x="427" y="0" type="line"/>
      <point x="668" y="0"/>
      <point x="763" y="89"/>
      <point x="763" y="212" type="curve" smooth="yes"/>
      <point x="763" y="336"/>
      <point x="682" y="410"/>
      <point x="461" y="410" type="curve" smooth="yes"/>
      <point x="364" y="410" type="line"/>
      <point x="364" y="596" type="line" smooth="yes"/>
      <point x="364" y="627"/>
      <point x="381" y="648"/>
      <point x="416" y="648" type="curve" smooth="yes"/>
      <point x="497" y="648" type="line"/>
      <point x="497" y="714" type="line"/>
      <point x="24" y="714" type="line"/>
      <point x="24" y="648" type="line"/>
      <point x="82" y="648" type="line" smooth="yes"/>
      <point x="112" y="648"/>
      <point x="132" y="636"/>
      <point x="132" y="591" type="curve"/>
      <point x="132" y="130" type="line" smooth="yes"/>
      <point x="132" y="91"/>
      <point x="116" y="66"/>
      <point x="73" y="66" type="curve" smooth="yes"/>
      <point x="24" y="66" type="line"/>
    </contour>
    <contour>
      <point x="364" y="72" type="line"/>
      <point x="364" y="339" type="line"/>
      <point x="402" y="339" type="line" smooth="yes"/>
      <point x="477" y="339"/>
      <point x="515" y="307"/>
      <point x="515" y="212" type="curve" smooth="yes"/>
      <point x="515" y="111"/>
      <point x="473" y="72"/>
      <point x="403" y="72" type="curve" smooth="yes"/>
    </contour>
  </outline>
</glyph>
<glyph name="afii10081" format="2">
  <advance width="810"/>
  <unicode hex="043F"/>
  <anchor x="405" y="0" name="bottom"/>
  <anchor x="405" y="536" name="top"/>
  <outline>
    <contour>
      <point x="17" y="0" type="line"/>
      <point x="387" y="0" type="line"/>
      <point x="387" y="66" type="line"/>
      <point x="383" y="66" type="line" smooth="yes"/>
      <point x="344" y="66"/>
      <point x="327" y="80"/>
      <point x="327" y="129" type="curve" smooth="yes"/>
      <point x="327" y="450" type="line"/>
      <point x="480" y="450" type="line"/>
      <point x="480" y="129" type="line" smooth="yes"/>
      <point x="480" y="80"/>
      <point x="465" y="66"/>
      <point x="425" y="66" type="curve" smooth="yes"/>
      <point x="420" y="66" type="line"/>
      <point x="420" y="0" type="line"/>
      <point x="793" y="0" type="line"/>
      <point x="793" y="66" type="line"/>
      <point x="780" y="66" type="line" smooth="yes"/>
      <point x="736" y="66"/>
      <point x="707" y="86"/>
      <point x="707" y="129" type="curve" smooth="yes"/>
      <point x="707" y="407" type="line" smooth="yes"/>
      <point x="707" y="453"/>
      <point x="736" y="470"/>
      <point x="780" y="470" type="curve" smooth="yes"/>
      <point x="793" y="470" type="line"/>
      <point x="793" y="536" type="line"/>
      <point x="17" y="536" type="line"/>
      <point x="17" y="470" type="line"/>
      <point x="29" y="470" type="line" smooth="yes"/>
      <point x="74" y="470"/>
      <point x="101" y="455"/>
      <point x="101" y="409" type="curve" smooth="yes"/>
      <point x="101" y="129" type="line" smooth="yes"/>
      <point x="101" y="80"/>
      <point x="75" y="66"/>
      <point x="29" y="66" type="curve" smooth="yes"/>
      <point x="17" y="66" type="line"/>
    </contour>
  </outline>
</glyph>
<glyph name="afii10090" format="2">
  <advance width="1164"/>
  <unicode hex="0448"/>
  <anchor x="582" y="0" name="bottom"/>
  <anchor x="582" y="536" name="top"/>
  <outline>
    <contour>
      <point x="17" y="0" type="line"/>
      <point x="1149" y="0" type="line"/>
      <point x="1149" y="66" type="line"/>
      <point x="1136" y="66" type="line" smooth="yes"/>
      <point x="1092" y="66"/>
      <point x="1065" y="81"/>
      <point x="1065" y="127" type="curve" smooth="yes"/>
      <point x="1065" y="407" type="line" smooth="yes"/>
      <point x="1065" y="456"/>
      <point x="1091" y="470"/>
      <point x="1136" y="470" type="curve" smooth="yes"/>
      <point x="1149" y="470" type="line"/>
      <point x="1149" y="536" type="line"/>
      <point x="784" y="536" type="line"/>
      <point x="784" y="470" type="line"/>
      <point x="789" y="470" type="line" smooth="yes"/>
      <point x="821" y="470"/>
      <point x="838" y="456"/>
      <point x="838" y="407" type="curve" smooth="yes"/>
      <point x="838" y="86" type="line"/>
      <point x="697" y="86" type="line"/>
      <point x="697" y="407" type="line" smooth="yes"/>
      <point x="697" y="456"/>
      <point x="711" y="470"/>
      <point x="745" y="470" type="curve" smooth="yes"/>
      <point x="751" y="470" type="line"/>
      <point x="751" y="536" type="line"/>
      <point x="417" y="536" type="line"/>
      <point x="417" y="470" type="line"/>
      <point x="421" y="470" type="line" smooth="yes"/>
      <point x="454" y="470"/>
      <point x="470" y="456"/>
      <point x="470" y="407" type="curve" smooth="yes"/>
      <point x="470" y="86" type="line"/>
      <point x="330" y="86" type="line"/>
      <point x="330" y="407" type="line" smooth="yes"/>
      <point x="330" y="456"/>
      <point x="345" y="470"/>
      <point x="379" y="470" type="curve" smooth="yes"/>
      <point x="384" y="470" type="line"/>
      <point x="384" y="536" type="line"/>
      <point x="17" y="536" type="line"/>
      <point x="17" y="470" type="line"/>
      <point x="29" y="470" type="line" smooth="yes"/>
      <point x="74" y="470"/>
      <point x="103" y="450"/>
      <point x="103" y="407" type="curve" smooth="yes"/>
      <point x="103" y="129" type="line" smooth="yes"/>
      <point x="103" y="82"/>
      <point x="74" y="66"/>
      <point x="29" y="66" type="curve" smooth="yes"/>
      <point x="17" y="66" type="line"/>
    </contour>
  </outline>
</glyph>
<glyph name="afii10107" format="2">
  <advance width="1087"/>
  <unicode hex="045A"/>
  <anchor x="543" y="0" name="bottom"/>
  <anchor x="543" y="536" name="top"/>
  <outline>
    <contour>
      <point x="18" y="0" type="line"/>
      <point x="388" y="0" type="line"/>
      <point x="388" y="66" type="line"/>
      <point x="384" y="66" type="line" smooth="yes"/>
      <point x="345" y="66"/>
      <point x="328" y="80"/>
      <point x="328" y="129" type="curve" smooth="yes"/>
      <point x="328" y="241" type="line"/>
      <point x="481" y="241" type="line"/>
      <point x="481" y="128" type="line" smooth="yes"/>
      <point x="481" y="82"/>
      <point x="465" y="66"/>
      <point x="426" y="66" type="curve" smooth="yes"/>
      <point x="421" y="66" type="line"/>
      <point x="421" y="0" type="line"/>
      <point x="807" y="0" type="line" smooth="yes"/>
      <point x="995" y="0"/>
      <point x="1085" y="70"/>
      <point x="1085" y="161" type="curve" smooth="yes"/>
      <point x="1085" y="288"/>
      <point x="961" y="313"/>
      <point x="817" y="313" type="curve" smooth="yes"/>
      <point x="707" y="313" type="line"/>
      <point x="707" y="399" type="line" smooth="yes"/>
      <point x="707" y="431"/>
      <point x="728" y="461"/>
      <point x="791" y="461" type="curve" smooth="yes"/>
      <point x="806" y="461" type="line"/>
      <point x="806" y="536" type="line"/>
      <point x="422" y="536" type="line"/>
      <point x="422" y="470" type="line"/>
      <point x="426" y="470" type="line" smooth="yes"/>
      <point x="465" y="470"/>
      <point x="481" y="454"/>
      <point x="481" y="409" type="curve" smooth="yes"/>
      <point x="481" y="311" type="line"/>
      <point x="328" y="311" type="line"/>
      <point x="328" y="407" type="line" smooth="yes"/>
      <point x="328" y="453"/>
      <point x="343" y="470"/>
      <point x="382" y="470" type="curve" smooth="yes"/>
      <point x="388" y="470" type="line"/>
      <point x="388" y="536" type="line"/>
      <point x="18" y="536" type="line"/>
      <point x="18" y="470" type="line"/>
      <point x="30" y="470" type="line" smooth="yes"/>
      <point x="75" y="470"/>
      <point x="102" y="455"/>
      <point x="102" y="408" type="curve" smooth="yes"/>
      <point x="102" y="129" type="line" smooth="yes"/>
      <point x="102" y="80"/>
      <point x="76" y="66"/>
      <point x="30" y="66" type="curve" smooth="yes"/>
      <point x="18" y="66" type="line"/>
    </contour>
    <contour>
      <point x="706" y="73" type="line"/>
      <point x="706" y="241" type="line"/>
      <point x="744" y="241" type="line" smooth="yes"/>
      <point x="808" y="241"/>
      <point x="852" y="220"/>
      <point x="852" y="162" type="curve" smooth="yes"/>
      <point x="852" y="97"/>
      <point x="816" y="73"/>
      <point x="746" y="73" type="curve" smooth="yes"/>
    </contour>
  </outline>
</glyph>
<glyph name="uni047D" format="2">
  <advance width="1155"/>
  <unicode hex="047D"/>
  <outline>
    <contour>
      <point x="352" y="761" type="curve"/>
      <point x="445" y="761" type="line"/>
      <point x="447" y="768" type="line" smooth="yes"/>
      <point x="455" y="797"/>
      <point x="478" y="816"/>
      <point x="508" y="816" type="curve" smooth="yes"/>
      <point x="586" y="816"/>
      <point x="665" y="761"/>
      <point x="795" y="761" type="curve" smooth="yes"/>
      <point x="819" y="761" type="line"/>
      <point x="819" y="890" type="line"/>
      <point x="810" y="890" type="line"/>
      <point x="691" y="890"/>
      <point x="613" y="945"/>
      <point x="525" y="945" type="curve" smooth="yes"/>
      <point x="426" y="945"/>
      <point x="359" y="852"/>
    </contour>
    <contour>
      <point x="521" y="606" type="line"/>
      <point x="620" y="624"/>
      <point x="658" y="662"/>
      <point x="658" y="705" type="curve" smooth="yes"/>
      <point x="658" y="748"/>
      <point x="632" y="777"/>
      <point x="583" y="777" type="curve" smooth="yes"/>
      <point x="552" y="777"/>
      <point x="528" y="762"/>
      <point x="528" y="733" type="curve" smooth="yes"/>
      <point x="528" y="681"/>
      <point x="584" y="688"/>
      <point x="584" y="671" type="curve" smooth="yes"/>
      <point x="584" y="650"/>
      <point x="563" y="649"/>
      <point x="521" y="637" type="curve"/>
    </contour>
    <component base="uniA64D"/>
  </outline>
</glyph>
<glyph name="psilipneumatacomb.cy" format="2">
  <unicode hex="0486"/>
  <anchor x="1" y="536" name="_top"/>
  <anchor x="1" y="834" name="top"/>
  <outline>
    <contour>
      <point x="-99" y="615" type="line"/>
      <point x="39" y="619"/>
      <point x="100" y="674"/>
      <point x="100" y="748" type="curve" smooth="yes"/>
      <point x="100" y="801"/>
      <point x="64" y="834"/>
      <point x="-3" y="834" type="curve" smooth="yes"/>
      <point x="-56" y="834"/>
      <point x="-88" y="813"/>
      <point x="-88" y="767" type="curve" smooth="yes"/>
      <point x="-88" y="714"/>
      <point x="-20" y="720"/>
      <point x="-20" y="697" type="curve" smooth="yes"/>
      <point x="-20" y="670"/>
      <point x="-54" y="664"/>
      <point x="-99" y="664" type="curve"/>
    </contour>
  </outline>
</glyph>
<glyph name="afii10050" format="2">
  <advance width="643"/>
  <unicode hex="0490"/>
  <anchor x="322" y="0" name="bottom"/>
  <anchor x="322" y="885" name="top"/>
  <outline>
    <contour>
      <point x="24" y="0" type="line"/>
      <point x="497" y="0" type="line"/>
      <point x="497" y="66" type="line"/>
      <point x="422" y="66" type="line" smooth="yes"/>
      <point x="380" y="66"/>
      <point x="363" y="77"/>
      <point x="363" y="119" type="curve" smooth="yes"/>
      <point x="363" y="640" type="line"/>
      <point x="635" y="640" type="line"/>
      <point x="649" y="885" type="line"/>
      <point x="559" y="885" type="line"/>
      <point x="544" y="804" type="line" smooth="yes"/>
      <point x="532" y="739"/>
      <point x="516" y="714"/>
      <point x="435" y="714" type="curve" smooth="yes"/>
      <point x="24" y="714" type="line"/>
      <point x="24" y="648" type="line"/>
      <point x="72" y="648" type="line" smooth="yes"/>
      <point x="118" y="648"/>
      <point x="132" y="628"/>
      <point x="132" y="596" type="curve" smooth="yes"/>
      <point x="132" y="123" type="line" smooth="yes"/>
      <point x="132" y="79"/>
      <point x="119" y="66"/>
      <point x="75" y="66" type="curve" smooth="yes"/>
      <point x="24" y="66" type="line"/>
    </contour>
  </outline>
</glyph>
<glyph name="uni0495" format="2">
  <advance width="774"/>
  <unicode hex="0495"/>
  <anchor x="387" y="-240" name="bottom"/>
  <anchor x="387" y="536" name="top"/>
  <outline>
    <contour>
      <point x="393" y="-240" type="curve" smooth="yes"/>
      <point x="595" y="-240"/>
      <point x="734" y="-173"/>
      <point x="734" y="49" type="curve" smooth="yes"/>
      <point x="734" y="224"/>
      <point x="625" y="309"/>
      <point x="438" y="309" type="curve" smooth="yes"/>
      <point x="393" y="309"/>
      <point x="356" y="304"/>
      <point x="328" y="299" type="curve"/>
      <point x="328" y="460" type="line"/>
      <point x="403" y="460" type="line" smooth="yes"/>
      <point x="468" y="460"/>
      <point x="482" y="434"/>
      <point x="489" y="399" type="curve" smooth="yes"/>
      <point x="501" y="341" type="line"/>
      <point x="598" y="341" type="line"/>
      <point x="598" y="536" type="line"/>
      <point x="15" y="536" type="line"/>
      <point x="15" y="470" type="line"/>
      <point x="28" y="470" type="line" smooth="yes"/>
      <point x="72" y="470"/>
      <point x="102" y="459"/>
      <point x="102" y="403" type="curve" smooth="yes"/>
      <point x="102" y="129" type="line" smooth="yes"/>
      <point x="102" y="84"/>
      <point x="84" y="66"/>
      <point x="28" y="66" type="curve" smooth="yes"/>
      <point x="15" y="66" type="line"/>
      <point x="15" y="0" type="line"/>
      <point x="416" y="0" type="line"/>
      <point x="416" y="66" type="line"/>
      <point x="392" y="66" type="line" smooth="yes"/>
      <point x="352" y="66"/>
      <point x="328" y="81"/>
      <point x="328" y="129" type="curve" smooth="yes"/>
      <point x="328" y="225" type="line"/>
      <point x="348" y="229"/>
      <point x="363" y="232"/>
      <point x="390" y="232" type="curve" smooth="yes"/>
      <point x="469" y="232"/>
      <point x="506" y="177"/>
      <point x="506" y="52" type="curve" smooth="yes"/>
      <point x="506" y="-98"/>
      <point x="479" y="-164"/>
      <point x="402" y="-164" type="curve" smooth="yes"/>
      <point x="341" y="-164"/>
      <point x="316" y="-115"/>
      <point x="316" y="-44" type="curve"/>
      <point x="205" y="-44"/>
      <point x="180" y="-80"/>
      <point x="180" y="-117" type="curve" smooth="yes"/>
      <point x="180" y="-187"/>
      <point x="246" y="-240"/>
    </contour>
  </outline>
</glyph>
<glyph name="uni0499" format="2">
  <advance width="650"/>
  <unicode hex="0499"/>
  <anchor x="325" y="-218" name="bottom"/>
  <anchor x="325" y="536" name="top"/>
  <outline>
    <contour>
      <point x="309" y="-218" type="curve" smooth="yes"/>
      <point x="403" y="-218"/>
      <point x="450" y="-181"/>
      <point x="450" y="-123" type="curve" smooth="yes"/>
      <point x="450" y="-74"/>
      <point x="415" y="-35"/>
      <point x="363" y="-8" type="curve"/>
      <point x="523" y="4"/>
      <point x="618" y="57"/>
      <point x="618" y="152" type="curve" smooth="yes"/>
      <point x="618" y="230"/>
      <point x="556" y="270"/>
      <point x="438" y="284" type="curve"/>
      <point x="438" y="289" type="line"/>
      <point x="541" y="309"/>
      <point x="595" y="359"/>
      <point x="595" y="424" type="curve" smooth="yes"/>
      <point x="595" y="508"/>
      <point x="500" y="551"/>
      <point x="330" y="551" type="curve" smooth="yes"/>
      <point x="133" y="551"/>
      <point x="82" y="483"/>
      <point x="82" y="439" type="curve" smooth="yes"/>
      <point x="82" y="400"/>
      <point x="109" y="364"/>
      <point x="229" y="364" type="curve"/>
      <point x="229" y="413"/>
      <point x="236" y="482"/>
      <point x="303" y="482" type="curve" smooth="yes"/>
      <point x="348" y="482"/>
      <point x="367" y="452"/>
      <point x="367" y="414" type="curve" smooth="yes"/>
      <point x="367" y="361"/>
      <point x="344" y="323"/>
      <point x="251" y="323" type="curve" smooth="yes"/>
      <point x="199" y="323" type="line"/>
      <point x="199" y="247" type="line"/>
      <point x="255" y="247" type="line" smooth="yes"/>
      <point x="355" y="247"/>
      <point x="389" y="220"/>
      <point x="389" y="151" type="curve" smooth="yes"/>
      <point x="389" y="102"/>
      <point x="353" y="63"/>
      <point x="288" y="63" type="curve" smooth="yes"/>
      <point x="199" y="63"/>
      <point x="171" y="122"/>
      <point x="171" y="207" type="curve"/>
      <point x="73" y="207"/>
      <point x="35" y="171"/>
      <point x="35" y="113" type="curve" smooth="yes"/>
      <point x="35" y="44"/>
      <point x="98" y="-2"/>
      <point x="257" y="-9" type="curve"/>
      <point x="303" y="-47"/>
      <point x="322" y="-86"/>
      <point x="322" y="-116" type="curve" smooth="yes"/>
      <point x="322" y="-145"/>
      <point x="298" y="-159"/>
      <point x="272" y="-159" type="curve" smooth="yes"/>
      <point x="250" y="-159"/>
      <point x="236" y="-155"/>
      <point x="225" y="-151" type="curve"/>
      <point x="219" y="-160"/>
      <point x="217" y="-167"/>
      <point x="217" y="-177" type="curve" smooth="yes"/>
      <point x="217" y="-203"/>
      <point x="251" y="-218"/>
    </contour>
  </outline>
</glyph>
<glyph name="uni04A3" format="2">
  <advance width="808"/>
  <unicode hex="04A3"/>
  <anchor x="405" y="0" name="bottom"/>
  <anchor x="405" y="536" name="top"/>
  <outline>
    <contour>
      <point x="733" y="-198" type="line"/>
      <point x="806" y="-198" type="line"/>
      <point x="806" y="65" type="line"/>
      <point x="788" y="65" type="line" smooth="yes"/>
      <point x="745" y="65"/>
      <point x="720" y="85"/>
      <point x="720" y="127" type="curve" smooth="yes"/>
      <point x="720" y="407" type="line" smooth="yes"/>
      <point x="720" y="453"/>
      <point x="749" y="470"/>
      <point x="793" y="470" type="curve" smooth="yes"/>
      <point x="806" y="470" type="line"/>
      <point x="806" y="536" type="line"/>
      <point x="433" y="536" type="line"/>
      <point x="433" y="470" type="line"/>
      <point x="438" y="470" type="line" smooth="yes"/>
      <point x="478" y="470"/>
      <point x="493" y="455"/>
      <point x="493" y="408" type="curve" smooth="yes"/>
      <point x="493" y="311" type="line"/>
      <point x="328" y="311" type="line"/>
      <point x="328" y="407" type="line" smooth="yes"/>
      <point x="328" y="453"/>
      <point x="343" y="470"/>
      <point x="382" y="470" type="curve" smooth="yes"/>
      <point x="388" y="470" type="line"/>
      <point x="388" y="536" type="line"/>
      <point x="18" y="536" type="line"/>
      <point x="18" y="470" type="line"/>
      <point x="30" y="470" type="line" smooth="yes"/>
      <point x="75" y="470"/>
      <point x="102" y="455"/>
      <point x="102" y="408" type="curve" smooth="yes"/>
      <point x="102" y="129" type="line" smooth="yes"/>
      <point x="102" y="80"/>
      <point x="76" y="66"/>
      <point x="30" y="66" type="curve" smooth="yes"/>
      <point x="18" y="66" type="line"/>
      <point x="18" y="0" type="line"/>
      <point x="388" y="0" type="line"/>
      <point x="388" y="66" type="line"/>
      <point x="384" y="66" type="line" smooth="yes"/>
      <point x="345" y="66"/>
      <point x="328" y="80"/>
      <point x="328" y="129" type="curve" smooth="yes"/>
      <point x="328" y="241" type="line"/>
      <point x="493" y="241" type="line"/>
      <point x="493" y="129" type="line" smooth="yes"/>
      <point x="493" y="80"/>
      <point x="478" y="66"/>
      <point x="438" y="66" type="curve" smooth="yes"/>
      <point x="433" y="66" type="line"/>
      <point x="433" y="0" type="line"/>
      <point x="618" y="0" type="line" smooth="yes"/>
      <point x="699" y="0"/>
      <point x="718" y="-17"/>
      <point x="728" y="-137" type="curve" smooth="yes"/>
    </contour>
  </outline>
</glyph>
<glyph name="uni04A7" format="2">
  <advance width="1152"/>
  <unicode hex="04A7"/>
  <anchor x="576" y="-240" name="bottom"/>
  <anchor x="576" y="536" name="top"/>
  <outline>
    <contour>
      <point x="771" y="-240" type="curve" smooth="yes"/>
      <point x="973" y="-240"/>
      <point x="1112" y="-173"/>
      <point x="1112" y="49" type="curve" smooth="yes"/>
      <point x="1112" y="224"/>
      <point x="1002" y="309"/>
      <point x="816" y="309" type="curve" smooth="yes"/>
      <point x="771" y="309"/>
      <point x="734" y="304"/>
      <point x="707" y="299" type="curve"/>
      <point x="707" y="407" type="line" smooth="yes"/>
      <point x="707" y="453"/>
      <point x="736" y="470"/>
      <point x="780" y="470" type="curve" smooth="yes"/>
      <point x="793" y="470" type="line"/>
      <point x="793" y="536" type="line"/>
      <point x="17" y="536" type="line"/>
      <point x="17" y="470" type="line"/>
      <point x="29" y="470" type="line" smooth="yes"/>
      <point x="74" y="470"/>
      <point x="101" y="455"/>
      <point x="101" y="409" type="curve" smooth="yes"/>
      <point x="101" y="129" type="line" smooth="yes"/>
      <point x="101" y="80"/>
      <point x="75" y="66"/>
      <point x="29" y="66" type="curve" smooth="yes"/>
      <point x="17" y="66" type="line"/>
      <point x="17" y="0" type="line"/>
      <point x="387" y="0" type="line"/>
      <point x="387" y="66" type="line"/>
      <point x="383" y="66" type="line" smooth="yes"/>
      <point x="344" y="66"/>
      <point x="327" y="80"/>
      <point x="327" y="129" type="curve" smooth="yes"/>
      <point x="327" y="450" type="line"/>
      <point x="480" y="450" type="line"/>
      <point x="480" y="129" type="line" smooth="yes"/>
      <point x="480" y="80"/>
      <point x="465" y="66"/>
      <point x="425" y="66" type="curve" smooth="yes"/>
      <point x="420" y="66" type="line"/>
      <point x="420" y="0" type="line"/>
      <point x="793" y="0" type="line"/>
      <point x="793" y="66" type="line"/>
      <point x="780" y="66" type="line" smooth="yes"/>
      <point x="736" y="66"/>
      <point x="707" y="86"/>
      <point x="707" y="129" type="curve" smooth="yes"/>
      <point x="707" y="225" type="line"/>
      <point x="725" y="229"/>
      <point x="742" y="232"/>
      <point x="767" y="232" type="curve" smooth="yes"/>
      <point x="847" y="232"/>
      <point x="885" y="177"/>
      <point x="885" y="52" type="curve" smooth="yes"/>
      <point x="885" y="-98"/>
      <point x="857" y="-164"/>
      <point x="780" y="-164" type="curve" smooth="yes"/>
      <point x="718" y="-164"/>
      <point x="694" y="-115"/>
      <point x="694" y="-44" type="curve"/>
      <point x="583" y="-44"/>
      <point x="558" y="-80"/>
      <point x="558" y="-117" type="curve" smooth="yes"/>
      <point x="558" y="-187"/>
      <point x="624" y="-240"/>
    </contour>
  </outline>
</glyph>
<glyph name="uni04A9" format="2">
  <advance width="885"/>
  <unicode hex="04A9"/>
  <anchor x="443" y="0" name="bottom"/>
  <anchor x="443" y="536" name="top"/>
  <outline>
    <contour>
      <point x="755" y="-30" type="curve" smooth="yes"/>
      <point x="833" y="-30"/>
      <point x="861" y="-5"/>
      <point x="861" y="30" type="curve" smooth="yes"/>
      <point x="861" y="42"/>
      <point x="852" y="57"/>
      <point x="841" y="67" type="curve"/>
      <point x="829" y="57"/>
      <point x="807" y="49"/>
      <point x="770" y="49" type="curve" smooth="yes"/>
      <point x="739" y="49"/>
      <point x="709" y="52"/>
      <point x="678" y="56" type="curve"/>
      <point x="753" y="101"/>
      <point x="798" y="171"/>
      <point x="798" y="248" type="curve" smooth="yes"/>
      <point x="798" y="360"/>
      <point x="713" y="424"/>
      <point x="568" y="424" type="curve" smooth="yes"/>
      <point x="420" y="424"/>
      <point x="339" y="362"/>
      <point x="339" y="246" type="curve" smooth="yes"/>
      <point x="339" y="163"/>
      <point x="382" y="106"/>
      <point x="456" y="63" type="curve"/>
      <point x="451" y="64"/>
      <point x="437" y="64"/>
      <point x="433" y="64" type="curve" smooth="yes"/>
      <point x="331" y="64"/>
      <point x="256" y="110"/>
      <point x="256" y="269" type="curve" smooth="yes"/>
      <point x="256" y="417"/>
      <point x="313" y="472"/>
      <point x="433" y="472" type="curve" smooth="yes"/>
      <point x="490" y="472"/>
      <point x="531" y="460"/>
      <point x="547" y="451" type="curve"/>
      <point x="555" y="456"/>
      <point x="565" y="472"/>
      <point x="565" y="486" type="curve" smooth="yes"/>
      <point x="565" y="522"/>
      <point x="532" y="546"/>
      <point x="418" y="546" type="curve" smooth="yes"/>
      <point x="168" y="546"/>
      <point x="48" y="436"/>
      <point x="48" y="262" type="curve" smooth="yes"/>
      <point x="48" y="78"/>
      <point x="180" y="-10"/>
      <point x="400" y="-10" type="curve" smooth="yes"/>
      <point x="474" y="-10"/>
      <point x="535" y="1"/>
      <point x="570" y="10" type="curve"/>
      <point x="636" y="-11"/>
      <point x="691" y="-30"/>
    </contour>
    <contour>
      <point x="576" y="94" type="curve"/>
      <point x="544" y="123"/>
      <point x="515" y="166"/>
      <point x="515" y="252" type="curve" smooth="yes"/>
      <point x="515" y="342"/>
      <point x="541" y="371"/>
      <point x="570" y="371" type="curve" smooth="yes"/>
      <point x="603" y="371"/>
      <point x="626" y="348"/>
      <point x="626" y="256" type="curve" smooth="yes"/>
      <point x="626" y="182"/>
      <point x="597" y="123"/>
    </contour>
  </outline>
</glyph>
<glyph name="uni04C5" format="2">
  <advance width="869"/>
  <unicode hex="04C5"/>
  <anchor x="435" y="0" name="bottom"/>
  <anchor x="435" y="714" name="top"/>
  <outline>
    <contour>
      <point x="645" y="-210" type="line"/>
      <point x="790" y="-210" type="line"/>
      <point x="862" y="44" type="line"/>
      <point x="862" y="66" type="line"/>
      <point x="750" y="66" type="line"/>
      <point x="756" y="7" type="line"/>
    </contour>
    <component base="afii10029"/>
  </outline>
</glyph>
<glyph name="uni04CC" format="2">
  <advance width="829"/>
  <unicode hex="04CC"/>
  <anchor x="415" y="-210" name="bottom"/>
  <anchor x="415" y="536" name="top"/>
  <outline>
    <contour>
      <point x="350" y="-210" type="line"/>
      <point x="446" y="-210" type="line"/>
      <point x="454" y="-125" type="line" smooth="yes"/>
      <point x="463" y="-26"/>
      <point x="488" y="0"/>
      <point x="561" y="0" type="curve" smooth="yes"/>
      <point x="775" y="0" type="line"/>
      <point x="775" y="66" type="line"/>
      <point x="763" y="66" type="line" smooth="yes"/>
      <point x="710" y="66"/>
      <point x="688" y="85"/>
      <point x="688" y="133" type="curve" smooth="yes"/>
      <point x="688" y="398" type="line" smooth="yes"/>
      <point x="688" y="446"/>
      <point x="712" y="470"/>
      <point x="754" y="470" type="curve" smooth="yes"/>
      <point x="771" y="470" type="line"/>
      <point x="771" y="536" type="line"/>
      <point x="404" y="536" type="line"/>
      <point x="404" y="470" type="line"/>
      <point x="413" y="470" type="line" smooth="yes"/>
      <point x="448" y="470"/>
      <point x="461" y="456"/>
      <point x="461" y="408" type="curve" smooth="yes"/>
      <point x="461" y="292" type="line"/>
      <point x="433" y="282"/>
      <point x="404" y="275"/>
      <point x="373" y="275" type="curve" smooth="yes"/>
      <point x="338" y="275"/>
      <point x="312" y="290"/>
      <point x="312" y="333" type="curve" smooth="yes"/>
      <point x="312" y="410" type="line" smooth="yes"/>
      <point x="312" y="454"/>
      <point x="326" y="470"/>
      <point x="360" y="470" type="curve" smooth="yes"/>
      <point x="368" y="470" type="line"/>
      <point x="368" y="536" type="line"/>
      <point x="8" y="536" type="line"/>
      <point x="8" y="470" type="line"/>
      <point x="19" y="470" type="line" smooth="yes"/>
      <point x="68" y="470"/>
      <point x="85" y="440"/>
      <point x="85" y="402" type="curve" smooth="yes"/>
      <point x="85" y="312" type="line" smooth="yes"/>
      <point x="85" y="222"/>
      <point x="152" y="175"/>
      <point x="275" y="175" type="curve" smooth="yes"/>
      <point x="367" y="175"/>
      <point x="423" y="200"/>
      <point x="461" y="213" type="curve"/>
      <point x="461" y="121" type="line" smooth="yes"/>
      <point x="461" y="77"/>
      <point x="420" y="64"/>
      <point x="377" y="62" type="curve" smooth="yes"/>
      <point x="350" y="62" type="line"/>
    </contour>
  </outline>
</glyph>
<glyph name="uni04CE" format="2">
  <advance width="971"/>
  <unicode hex="04CE"/>
  <anchor x="486" y="0" name="bottom"/>
  <anchor x="486" y="536" name="top"/>
  <outline>
    <contour>
      <point x="753" y="-210" type="line"/>
      <point x="902" y="-210" type="line"/>
      <point x="972" y="46" type="line"/>
      <point x="972" y="66" type="line"/>
      <point x="861" y="66" type="line"/>
      <point x="861" y="0" type="line"/>
    </contour>
    <component base="afii10078"/>
  </outline>
</glyph>
<glyph name="uni04D8" format="2">
  <advance width="879"/>
  <unicode hex="04D8"/>
  <anchor x="439" y="0" name="bottom"/>
  <anchor x="439" y="714" name="top"/>
  <outline>
    <contour>
      <point x="425" y="-10" type="curve" smooth="yes"/>
      <point x="652" y="-10"/>
      <point x="816" y="102"/>
      <point x="816" y="367" type="curve" smooth="yes"/>
      <point x="816" y="604"/>
      <point x="657" y="725"/>
      <point x="396" y="725" type="curve" smooth="yes"/>
      <point x="227" y="725"/>
      <point x="83" y="669"/>
      <point x="83" y="592" type="curve" smooth="yes"/>
      <point x="83" y="568"/>
      <point x="90" y="555"/>
      <point x="99" y="545" type="curve"/>
      <point x="164" y="590"/>
      <point x="245" y="626"/>
      <point x="340" y="626" type="curve" smooth="yes"/>
      <point x="482" y="626"/>
      <point x="568" y="580"/>
      <point x="578" y="380" type="curve"/>
      <point x="64" y="380" type="line"/>
      <point x="64" y="350" type="line" smooth="yes"/>
      <point x="64" y="125"/>
      <point x="159" y="-10"/>
    </contour>
    <contour>
      <point x="436" y="68" type="curve" smooth="yes"/>
      <point x="346" y="68"/>
      <point x="312" y="125"/>
      <point x="310" y="312" type="curve"/>
      <point x="573" y="312" type="line"/>
      <point x="568" y="124"/>
      <point x="518" y="68"/>
    </contour>
  </outline>
</glyph>
<glyph name="uni04D9" format="2">
  <advance width="697"/>
  <unicode hex="04D9"/>
  <anchor x="348" y="0" name="bottom"/>
  <anchor x="348" y="536" name="top"/>
  <outline>
    <contour>
      <point x="337" y="-10" type="curve" smooth="yes"/>
      <point x="535" y="-10"/>
      <point x="648" y="88"/>
      <point x="648" y="276" type="curve" smooth="yes"/>
      <point x="648" y="451"/>
      <point x="543" y="552"/>
      <point x="323" y="552" type="curve" smooth="yes"/>
      <point x="135" y="552"/>
      <point x="64" y="486"/>
      <point x="64" y="421" type="curve" smooth="yes"/>
      <point x="64" y="393"/>
      <point x="86" y="373"/>
      <point x="116" y="366" type="curve"/>
      <point x="141" y="421"/>
      <point x="185" y="461"/>
      <point x="265" y="461" type="curve" smooth="yes"/>
      <point x="365" y="461"/>
      <point x="416" y="410"/>
      <point x="420" y="291" type="curve"/>
      <point x="42" y="291" type="line"/>
      <point x="42" y="232" type="line" smooth="yes"/>
      <point x="42" y="73"/>
      <point x="154" y="-10"/>
    </contour>
    <contour>
      <point x="331" y="69" type="curve" smooth="yes"/>
      <point x="284" y="69"/>
      <point x="264" y="118"/>
      <point x="264" y="214" type="curve"/>
      <point x="418" y="214" type="line"/>
      <point x="418" y="119"/>
      <point x="382" y="69"/>
    </contour>
  </outline>
</glyph>
<glyph name="uni0508" format="2">
  <advance width="1288"/>
  <unicode hex="0508"/>
  <anchor x="645" y="0" name="bottom"/>
  <anchor x="645" y="714" name="top"/>
  <outline>
    <contour>
      <point x="844" y="-10" type="curve" smooth="yes"/>
      <point x="1081" y="-10"/>
      <point x="1170" y="90"/>
      <point x="1170" y="210" type="curve" smooth="yes"/>
      <point x="1170" y="285" type="line" smooth="yes"/>
      <point x="1170" y="328"/>
      <point x="1186" y="347"/>
      <point x="1227" y="347" type="curve" smooth="yes"/>
      <point x="1271" y="347" type="line"/>
      <point x="1271" y="413" type="line"/>
      <point x="828" y="413" type="line"/>
      <point x="828" y="347" type="line"/>
      <point x="876" y="347" type="line" smooth="yes"/>
      <point x="920" y="347"/>
      <point x="938" y="334"/>
      <point x="938" y="290" type="curve" smooth="yes"/>
      <point x="938" y="185" type="line" smooth="yes"/>
      <point x="938" y="105"/>
      <point x="908" y="69"/>
      <point x="842" y="69" type="curve" smooth="yes"/>
      <point x="779" y="69"/>
      <point x="738" y="96"/>
      <point x="738" y="199" type="curve" smooth="yes"/>
      <point x="738" y="591" type="line" smooth="yes"/>
      <point x="738" y="641"/>
      <point x="753" y="648"/>
      <point x="794" y="648" type="curve" smooth="yes"/>
      <point x="842" y="648" type="line"/>
      <point x="842" y="714" type="line"/>
      <point x="178" y="714" type="line"/>
      <point x="178" y="648" type="line"/>
      <point x="195" y="648" type="line" smooth="yes"/>
      <point x="246" y="648"/>
      <point x="288" y="648"/>
      <point x="288" y="612" type="curve" smooth="yes"/>
      <point x="288" y="601"/>
      <point x="267" y="346"/>
      <point x="224" y="218" type="curve" smooth="yes"/>
      <point x="200" y="145"/>
      <point x="166" y="101"/>
      <point x="114" y="101" type="curve" smooth="yes"/>
      <point x="84" y="101"/>
      <point x="62" y="112"/>
      <point x="62" y="148" type="curve"/>
      <point x="34" y="148"/>
      <point x="-1" y="136"/>
      <point x="-1" y="82" type="curve" smooth="yes"/>
      <point x="-1" y="29"/>
      <point x="42" y="-7"/>
      <point x="111" y="-7" type="curve" smooth="yes"/>
      <point x="188" y="-7"/>
      <point x="258" y="23"/>
      <point x="299" y="146" type="curve" smooth="yes"/>
      <point x="345" y="275"/>
      <point x="373" y="492"/>
      <point x="383" y="658" type="curve"/>
      <point x="505" y="658" type="line"/>
      <point x="505" y="225" type="line" smooth="yes"/>
      <point x="505" y="78"/>
      <point x="593" y="-10"/>
    </contour>
  </outline>
</glyph>
<glyph name="uni0515" format="2">
  <advance width="1144"/>
  <unicode hex="0515"/>
  <anchor x="573" y="0" name="bottom"/>
  <anchor x="573" y="536" name="top"/>
  <outline>
    <contour>
      <point x="101" y="-7" type="curve" smooth="yes"/>
      <point x="189" y="-7"/>
      <point x="242" y="30"/>
      <point x="285" y="155" type="curve" smooth="yes"/>
      <point x="319" y="254"/>
      <point x="339" y="355"/>
      <point x="353" y="466" type="curve"/>
      <point x="410" y="466" type="line" smooth="yes"/>
      <point x="434" y="466"/>
      <point x="443" y="463"/>
      <point x="464" y="441" type="curve" smooth="yes"/>
      <point x="635" y="268" type="line"/>
      <point x="487" y="130" type="line" smooth="yes"/>
      <point x="437" y="85"/>
      <point x="416" y="66"/>
      <point x="361" y="66" type="curve" smooth="yes"/>
      <point x="350" y="66" type="line"/>
      <point x="350" y="0" type="line"/>
      <point x="660" y="0" type="line"/>
      <point x="660" y="66" type="line"/>
      <point x="655" y="66" type="line" smooth="yes"/>
      <point x="604" y="66"/>
      <point x="584" y="77"/>
      <point x="584" y="99" type="curve" smooth="yes"/>
      <point x="584" y="111"/>
      <point x="597" y="126"/>
      <point x="611" y="139" type="curve" smooth="yes"/>
      <point x="685" y="212" type="line"/>
      <point x="742" y="168" type="line" smooth="yes"/>
      <point x="784" y="131"/>
      <point x="787" y="114"/>
      <point x="787" y="99" type="curve" smooth="yes"/>
      <point x="787" y="77"/>
      <point x="764" y="66"/>
      <point x="717" y="66" type="curve" smooth="yes"/>
      <point x="712" y="66" type="line"/>
      <point x="712" y="0" type="line"/>
      <point x="1133" y="0" type="line"/>
      <point x="1133" y="66" type="line"/>
      <point x="1118" y="66" type="line" smooth="yes"/>
      <point x="1089" y="66"/>
      <point x="1061" y="83"/>
      <point x="1025" y="119" type="curve" smooth="yes"/>
      <point x="853" y="294" type="line"/>
      <point x="975" y="403" type="line" smooth="yes"/>
      <point x="1028" y="452"/>
      <point x="1046" y="470"/>
      <point x="1091" y="470" type="curve" smooth="yes"/>
      <point x="1102" y="470" type="line"/>
      <point x="1102" y="536" type="line"/>
      <point x="827" y="536" type="line"/>
      <point x="827" y="470" type="line"/>
      <point x="831" y="470" type="line" smooth="yes"/>
      <point x="863" y="470"/>
      <point x="882" y="462"/>
      <point x="882" y="438" type="curve" smooth="yes"/>
      <point x="882" y="420"/>
      <point x="868" y="405"/>
      <point x="848" y="388" type="curve" smooth="yes"/>
      <point x="803" y="354" type="line"/>
      <point x="747" y="395" type="line" smooth="yes"/>
      <point x="726" y="413"/>
      <point x="719" y="427"/>
      <point x="719" y="441" type="curve" smooth="yes"/>
      <point x="719" y="457"/>
      <point x="731" y="470"/>
      <point x="778" y="470" type="curve" smooth="yes"/>
      <point x="782" y="470" type="line"/>
      <point x="782" y="536" type="line"/>
      <point x="166" y="536" type="line"/>
      <point x="166" y="470" type="line"/>
      <point x="181" y="470" type="line" smooth="yes"/>
      <point x="232" y="470"/>
      <point x="268" y="461"/>
      <point x="268" y="408" type="curve" smooth="yes"/>
      <point x="268" y="358"/>
      <point x="243" y="273"/>
      <point x="225" y="218" type="curve" smooth="yes"/>
      <point x="186" y="92"/>
      <point x="148" y="92"/>
      <point x="117" y="92" type="curve" smooth="yes"/>
      <point x="92" y="92"/>
      <point x="74" y="103"/>
      <point x="74" y="134" type="curve"/>
      <point x="48" y="134"/>
      <point x="0" y="118"/>
      <point x="0" y="63" type="curve" smooth="yes"/>
      <point x="0" y="19"/>
      <point x="39" y="-7"/>
    </contour>
  </outline>
</glyph>
<glyph name="uni1ABA" format="2">
  <unicode hex="1ABA"/>
  <anchor x="-549" y="140" name="_bottom"/>
  <anchor x="-549" y="-309" name="bottom"/>
  <outline>
    <contour>
      <point x="-558" y="-274" type="line"/>
      <point x="-430" y="76" type="line"/>
      <point x="-526" y="110" type="line"/>
      <point x="-654" y="-239" type="line"/>
    </contour>
    <contour>
      <point x="-587" y="-309" type="curve" smooth="yes"/>
      <point x="-538" y="-309"/>
      <point x="-505" y="-273"/>
      <point x="-505" y="-214" type="curve" smooth="yes"/>
      <point x="-505" y="-155"/>
      <point x="-538" y="-119"/>
      <point x="-587" y="-119" type="curve" smooth="yes"/>
      <point x="-636" y="-119"/>
      <point x="-669" y="-155"/>
      <point x="-669" y="-214" type="curve" smooth="yes"/>
      <point x="-669" y="-273"/>
      <point x="-636" y="-309"/>
    </contour>
  </outline>
</glyph>
<glyph name="uni1D06" format="2">
  <advance width="778"/>
  <unicode hex="1D06"/>
  <anchor x="390" y="0" name="bottom"/>
  <anchor x="390" y="536" name="top"/>
  <outline>
    <contour>
      <point x="17" y="0" type="line"/>
      <point x="357" y="0" type="line" smooth="yes"/>
      <point x="595" y="0"/>
      <point x="724" y="130"/>
      <point x="724" y="294" type="curve" smooth="yes"/>
      <point x="724" y="464"/>
      <point x="582" y="536"/>
      <point x="357" y="536" type="curve" smooth="yes"/>
      <point x="17" y="536" type="line"/>
      <point x="17" y="465" type="line"/>
      <point x="60" y="465" type="line" smooth="yes"/>
      <point x="87" y="465"/>
      <point x="102" y="450"/>
      <point x="102" y="423" type="curve" smooth="yes"/>
      <point x="102" y="302" type="line"/>
      <point x="22" y="302" type="line"/>
      <point x="22" y="236" type="line"/>
      <point x="102" y="236" type="line"/>
      <point x="102" y="112" type="line" smooth="yes"/>
      <point x="102" y="87"/>
      <point x="90" y="70"/>
      <point x="53" y="70" type="curve" smooth="yes"/>
      <point x="17" y="70" type="line"/>
    </contour>
    <contour>
      <point x="317" y="78" type="line"/>
      <point x="317" y="236" type="line"/>
      <point x="424" y="236" type="line"/>
      <point x="424" y="302" type="line"/>
      <point x="317" y="302" type="line"/>
      <point x="317" y="458" type="line"/>
      <point x="335" y="458" type="line" smooth="yes"/>
      <point x="438" y="458"/>
      <point x="495" y="410"/>
      <point x="495" y="294" type="curve" smooth="yes"/>
      <point x="495" y="159"/>
      <point x="438" y="78"/>
      <point x="334" y="78" type="curve" smooth="yes"/>
    </contour>
  </outline>
</glyph>
<glyph name="uni1D75" format="2">
  <advance width="517"/>
  <unicode hex="1D75"/>
  <anchor x="248" y="662" name="top"/>
  <anchor x="258" y="268" name="center"/>
  <anchor x="477" y="662" name="topright"/>
  <anchor x="318" y="0" name="bottom"/>
  <outline>
    <contour>
      <point x="-56" y="191" type="curve"/>
      <point x="37" y="191" type="line"/>
      <point x="37" y="225"/>
      <point x="52" y="250"/>
      <point x="91" y="250" type="curve" smooth="yes"/>
      <point x="176" y="250"/>
      <point x="251" y="178"/>
      <point x="347" y="178" type="curve" smooth="yes"/>
      <point x="465" y="178"/>
      <point x="508" y="252"/>
      <point x="509" y="357" type="curve"/>
      <point x="417" y="357" type="line"/>
      <point x="417" y="322"/>
      <point x="399" y="298"/>
      <point x="364" y="298" type="curve" smooth="yes"/>
      <point x="279" y="298"/>
      <point x="203" y="370"/>
      <point x="108" y="370" type="curve" smooth="yes"/>
      <point x="-6" y="370"/>
      <point x="-55" y="296"/>
    </contour>
    <component base="t"/>
  </outline>
</glyph>
<glyph name="uni1D88" format="2">
  <advance width="779"/>
  <unicode hex="1D88"/>
  <anchor x="389" y="536" name="top"/>
  <anchor x="749" y="536" name="topright"/>
  <anchor x="389" y="-217" name="bottom"/>
  <outline>
    <contour>
      <point x="547" y="-209" type="curve" smooth="yes"/>
      <point x="639" y="-209"/>
      <point x="690" y="-152"/>
      <point x="690" y="-15" type="curve" smooth="yes"/>
      <point x="690" y="111" type="line"/>
      <point x="604" y="111" type="line"/>
      <point x="604" y="-24" type="line" smooth="yes"/>
      <point x="604" y="-78"/>
      <point x="577" y="-106"/>
      <point x="528" y="-106" type="curve" smooth="yes"/>
      <point x="501" y="-106"/>
      <point x="485" y="-99"/>
      <point x="470" y="-90" type="curve"/>
      <point x="460" y="-99"/>
      <point x="454" y="-118"/>
      <point x="454" y="-134" type="curve" smooth="yes"/>
      <point x="454" y="-178"/>
      <point x="488" y="-209"/>
    </contour>
    <component base="p"/>
  </outline>
</glyph>
<glyph name="uni1D90" format="2">
  <advance width="788"/>
  <unicode hex="1D90"/>
  <anchor x="395" y="536" name="top"/>
  <anchor x="395" y="0" name="bottom"/>
  <outline>
    <contour>
      <point x="828" y="-209" type="curve" smooth="yes"/>
      <point x="886" y="-209"/>
      <point x="921" y="-178"/>
      <point x="921" y="-134" type="curve" smooth="yes"/>
      <point x="921" y="-118"/>
      <point x="915" y="-99"/>
      <point x="904" y="-90" type="curve"/>
      <point x="889" y="-99"/>
      <point x="873" y="-106"/>
      <point x="847" y="-106" type="curve" smooth="yes"/>
      <point x="797" y="-106"/>
      <point x="771" y="-77"/>
      <point x="771" y="-24" type="curve" smooth="yes"/>
      <point x="771" y="66" type="line"/>
      <point x="684" y="66" type="line"/>
      <point x="684" y="-15" type="line" smooth="yes"/>
      <point x="684" y="-152"/>
      <point x="736" y="-209"/>
    </contour>
    <component base="uni0251"/>
  </outline>
</glyph>
<glyph name="uni1D98" format="2">
  <advance width="786"/>
  <unicode hex="1D98"/>
  <outline>
    <contour>
      <point x="159" y="-209" type="curve" smooth="yes"/>
      <point x="218" y="-209"/>
      <point x="253" y="-179"/>
      <point x="253" y="-134" type="curve" smooth="yes"/>
      <point x="253" y="-118"/>
      <point x="247" y="-99"/>
      <point x="237" y="-90" type="curve"/>
      <point x="221" y="-98"/>
      <point x="205" y="-106"/>
      <point x="179" y="-106" type="curve" smooth="yes"/>
      <point x="129" y="-106"/>
      <point x="102" y="-77"/>
      <point x="102" y="-24" type="curve" smooth="yes"/>
      <point x="102" y="80" type="line"/>
      <point x="16" y="127" type="line"/>
      <point x="16" y="-15" type="line" smooth="yes"/>
      <point x="16" y="-152"/>
      <point x="67" y="-209"/>
    </contour>
    <component base="uniAB4D" xOffset="109"/>
  </outline>
</glyph>
<glyph name="macrongravecomb" format="2">
  <unicode hex="1DC6"/>
  <anchor x="11" y="536" name="_top"/>
  <anchor x="11" y="745" name="top"/>
  <outline>
    <contour>
      <point x="150" y="587" type="line"/>
      <point x="197" y="665" type="line"/>
      <point x="33" y="745" type="line"/>
      <point x="-177" y="745" type="line"/>
      <point x="-177" y="653" type="line"/>
      <point x="8" y="653" type="line"/>
    </contour>
  </outline>
</glyph>
<glyph name="macronbreve" format="2">
  <unicode hex="1DCC"/>
  <anchor x="-245" y="536" name="_top"/>
  <anchor x="-245" y="796" name="top"/>
  <outline>
    <contour>
      <point x="-122" y="606" type="curve" smooth="yes"/>
      <point x="19" y="606"/>
      <point x="86" y="735"/>
      <point x="81" y="796" type="curve"/>
      <point x="-13" y="796" type="line"/>
      <point x="-22" y="740"/>
      <point x="-63" y="720"/>
      <point x="-123" y="720" type="curve" smooth="yes"/>
      <point x="-178" y="720"/>
      <point x="-221" y="740"/>
      <point x="-233" y="796" type="curve"/>
      <point x="-326" y="796" type="line"/>
      <point x="-328" y="735"/>
      <point x="-261" y="606"/>
    </contour>
    <contour>
      <point x="-571" y="692" type="line"/>
      <point x="-235" y="692" type="line"/>
      <point x="-235" y="796" type="line"/>
      <point x="-571" y="796" type="line"/>
    </contour>
  </outline>
</glyph>
<glyph name="quotedblbase" format="2">
  <advance width="604"/>
  <unicode hex="201E"/>
  <outline>
    <contour>
      <point x="316" y="-154" type="line"/>
      <point x="477" y="-119"/>
      <point x="537" y="-43"/>
      <point x="537" y="42" type="curve" smooth="yes"/>
      <point x="537" y="125"/>
      <point x="496" y="180"/>
      <point x="417" y="180" type="curve" smooth="yes"/>
      <point x="366" y="180"/>
      <point x="328" y="153"/>
      <point x="328" y="99" type="curve" smooth="yes"/>
      <point x="328" y="-4"/>
      <point x="413" y="9"/>
      <point x="413" y="-26" type="curve"/>
      <point x="413" y="-65"/>
      <point x="378" y="-69"/>
      <point x="316" y="-90" type="curve"/>
    </contour>
    <contour>
      <point x="66" y="-154" type="line"/>
      <point x="226" y="-119"/>
      <point x="287" y="-43"/>
      <point x="287" y="42" type="curve" smooth="yes"/>
      <point x="287" y="125"/>
      <point x="245" y="180"/>
      <point x="167" y="180" type="curve" smooth="yes"/>
      <point x="116" y="180"/>
      <point x="77" y="153"/>
      <point x="77" y="99" type="curve" smooth="yes"/>
      <point x="77" y="-4"/>
      <point x="162" y="9"/>
      <point x="162" y="-26" type="curve" smooth="yes"/>
      <point x="162" y="-65"/>
      <point x="127" y="-69"/>
      <point x="66" y="-90" type="curve"/>
    </contour>
  </outline>
</glyph>
<glyph name="daggerdbl" format="2">
  <advance width="582"/>
  <unicode hex="2021"/>
  <outline>
    <contour>
      <point x="207" y="-111" type="line"/>
      <point x="379" y="-111" type="line"/>
      <point x="326" y="11" type="line"/>
      <point x="542" y="-15" type="line"/>
      <point x="542" y="137" type="line"/>
      <point x="326" y="109" type="line"/>
      <point x="392" y="239" type="line"/>
      <point x="356" y="259"/>
      <point x="330" y="297"/>
      <point x="330" y="325" type="curve"/>
      <point x="330" y="353"/>
      <point x="355" y="391"/>
      <point x="393" y="411" type="curve"/>
      <point x="326" y="540" type="line"/>
      <point x="542" y="512" type="line"/>
      <point x="542" y="664" type="line"/>
      <point x="326" y="638" type="line"/>
      <point x="379" y="760" type="line"/>
      <point x="207" y="760" type="line"/>
      <point x="256" y="638" type="line"/>
      <point x="40" y="664" type="line"/>
      <point x="40" y="512" type="line"/>
      <point x="256" y="540" type="line"/>
      <point x="190" y="413" type="line"/>
      <point x="228" y="392"/>
      <point x="254" y="354"/>
      <point x="254" y="325" type="curve"/>
      <point x="254" y="296"/>
      <point x="228" y="259"/>
      <point x="192" y="238" type="curve"/>
      <point x="256" y="109" type="line"/>
      <point x="40" y="137" type="line"/>
      <point x="40" y="-15" type="line"/>
      <point x="256" y="11" type="line"/>
    </contour>
  </outline>
</glyph>
<glyph name="ellipsis" format="2">
  <advance width="1110"/>
  <unicode hex="2026"/>
  <outline>
    <contour>
      <point x="922" y="-10" type="curve" smooth="yes"/>
      <point x="982" y="-10"/>
      <point x="1034" y="14"/>
      <point x="1034" y="85" type="curve" smooth="yes"/>
      <point x="1034" y="158"/>
      <point x="982" y="180"/>
      <point x="922" y="180" type="curve" smooth="yes"/>
      <point x="859" y="180"/>
      <point x="811" y="158"/>
      <point x="811" y="85" type="curve" smooth="yes"/>
      <point x="811" y="14"/>
      <point x="859" y="-10"/>
    </contour>
    <contour>
      <point x="186" y="-10" type="curve" smooth="yes"/>
      <point x="246" y="-10"/>
      <point x="299" y="14"/>
      <point x="299" y="85" type="curve" smooth="yes"/>
      <point x="299" y="158"/>
      <point x="246" y="180"/>
      <point x="186" y="180" type="curve" smooth="yes"/>
      <point x="124" y="180"/>
      <point x="75" y="158"/>
      <point x="75" y="85" type="curve" smooth="yes"/>
      <point x="75" y="14"/>
      <point x="124" y="-10"/>
    </contour>
    <contour>
      <point x="556" y="-10" type="curve" smooth="yes"/>
      <point x="616" y="-10"/>
      <point x="668" y="14"/>
      <point x="668" y="85" type="curve" smooth="yes"/>
      <point x="668" y="158"/>
      <point x="616" y="180"/>
      <point x="556" y="180" type="curve" smooth="yes"/>
      <point x="493" y="180"/>
      <point x="445" y="158"/>
      <point x="445" y="85" type="curve" smooth="yes"/>
      <point x="445" y="14"/>
      <point x="493" y="-10"/>
    </contour>
  </outline>
</glyph>
<glyph name="caretinsertionpoint" format="2">
  <advance width="525"/>
  <unicode hex="2041"/>
  <outline>
    <contour>
      <point x="301" y="376" type="line"/>
      <point x="497" y="714" type="line"/>
      <point x="421" y="714" type="line"/>
      <point x="4" y="0" type="line"/>
      <point x="82" y="0" type="line"/>
      <point x="262" y="311" type="line"/>
      <point x="442" y="0" type="line"/>
      <point x="520" y="0" type="line"/>
    </contour>
  </outline>
</glyph>
<glyph name="fraction" format="2">
  <advance width="73"/>
  <unicode hex="2044"/>
  <outline>
    <contour>
      <point x="-223" y="0" type="line"/>
      <point x="-122" y="0" type="line"/>
      <point x="294" y="714" type="line"/>
      <point x="194" y="714" type="line"/>
    </contour>
  </outline>
</glyph>
<glyph name="commercialMinusSign" format="2">
  <advance width="532"/>
  <unicode hex="2052"/>
  <outline>
    <contour>
      <point x="85" y="0" type="line"/>
      <point x="192" y="0" type="line"/>
      <point x="448" y="714" type="line"/>
      <point x="342" y="714" type="line"/>
    </contour>
    <contour>
      <point x="415" y="-11" type="curve" smooth="yes"/>
      <point x="478" y="-11"/>
      <point x="532" y="14"/>
      <point x="532" y="92" type="curve" smooth="yes"/>
      <point x="532" y="169"/>
      <point x="478" y="194"/>
      <point x="415" y="194" type="curve" smooth="yes"/>
      <point x="350" y="194"/>
      <point x="299" y="169"/>
      <point x="299" y="92" type="curve" smooth="yes"/>
      <point x="299" y="14"/>
      <point x="350" y="-11"/>
    </contour>
    <contour>
      <point x="117" y="513" type="curve" smooth="yes"/>
      <point x="180" y="513"/>
      <point x="235" y="540"/>
      <point x="235" y="616" type="curve" smooth="yes"/>
      <point x="235" y="694"/>
      <point x="180" y="719"/>
      <point x="117" y="719" type="curve" smooth="yes"/>
      <point x="52" y="719"/>
      <point x="1" y="694"/>
      <point x="1" y="616" type="curve" smooth="yes"/>
      <point x="1" y="540"/>
      <point x="52" y="513"/>
    </contour>
  </outline>
</glyph>
<glyph name="flowerpunctuationmark" format="2">
  <advance width="630"/>
  <unicode hex="2055"/>
  <outline>
    <contour>
      <point x="255" y="121" type="line"/>
      <point x="377" y="121" type="line"/>
      <point x="351" y="266" type="line"/>
      <point x="464" y="151" type="line"/>
      <point x="549" y="230" type="line"/>
      <point x="408" y="316" type="line"/>
      <point x="585" y="300" type="line"/>
      <point x="585" y="409" type="line"/>
      <point x="406" y="391" type="line"/>
      <point x="549" y="480" type="line"/>
      <point x="464" y="559" type="line"/>
      <point x="354" y="445" type="line"/>
      <point x="377" y="589" type="line"/>
      <point x="255" y="589" type="line"/>
      <point x="280" y="440" type="line"/>
      <point x="168" y="560" type="line"/>
      <point x="83" y="481" type="line"/>
      <point x="223" y="391" type="line"/>
      <point x="45" y="409" type="line"/>
      <point x="45" y="300" type="line"/>
      <point x="223" y="316" type="line"/>
      <point x="83" y="229" type="line"/>
      <point x="168" y="150" type="line"/>
      <point x="277" y="265" type="line"/>
    </contour>
  </outline>
</glyph>
<glyph name="dottedcross" format="2">
  <advance width="813"/>
  <unicode hex="205C"/>
  <outline>
    <contour>
      <point x="177" y="0" type="curve" smooth="yes"/>
      <point x="224" y="0"/>
      <point x="262" y="19"/>
      <point x="262" y="79" type="curve" smooth="yes"/>
      <point x="262" y="144"/>
      <point x="224" y="161"/>
      <point x="177" y="161" type="curve" smooth="yes"/>
      <point x="132" y="161"/>
      <point x="94" y="144"/>
      <point x="94" y="79" type="curve" smooth="yes"/>
      <point x="94" y="19"/>
      <point x="132" y="0"/>
    </contour>
    <contour>
      <point x="176" y="375" type="curve" smooth="yes"/>
      <point x="223" y="375"/>
      <point x="262" y="394"/>
      <point x="262" y="454" type="curve" smooth="yes"/>
      <point x="262" y="519"/>
      <point x="223" y="536"/>
      <point x="176" y="536" type="curve" smooth="yes"/>
      <point x="131" y="536"/>
      <point x="94" y="519"/>
      <point x="94" y="454" type="curve" smooth="yes"/>
      <point x="94" y="394"/>
      <point x="131" y="375"/>
    </contour>
    <contour>
      <point x="635" y="0" type="curve" smooth="yes"/>
      <point x="682" y="0"/>
      <point x="720" y="18"/>
      <point x="720" y="78" type="curve" smooth="yes"/>
      <point x="720" y="143"/>
      <point x="682" y="161"/>
      <point x="635" y="161" type="curve" smooth="yes"/>
      <point x="590" y="161"/>
      <point x="552" y="143"/>
      <point x="552" y="78" type="curve" smooth="yes"/>
      <point x="552" y="18"/>
      <point x="590" y="0"/>
    </contour>
    <contour>
      <point x="634" y="375" type="curve" smooth="yes"/>
      <point x="681" y="375"/>
      <point x="720" y="393"/>
      <point x="720" y="453" type="curve" smooth="yes"/>
      <point x="720" y="518"/>
      <point x="681" y="536"/>
      <point x="634" y="536" type="curve" smooth="yes"/>
      <point x="589" y="536"/>
      <point x="552" y="518"/>
      <point x="552" y="453" type="curve" smooth="yes"/>
      <point x="552" y="393"/>
      <point x="589" y="375"/>
    </contour>
    <contour>
      <point x="359" y="0" type="line"/>
      <point x="455" y="0" type="line"/>
      <point x="455" y="225" type="line"/>
      <point x="720" y="225" type="line"/>
      <point x="720" y="312" type="line"/>
      <point x="455" y="312" type="line"/>
      <point x="455" y="536" type="line"/>
      <point x="359" y="536" type="line"/>
      <point x="359" y="312" type="line"/>
      <point x="94" y="312" type="line"/>
      <point x="94" y="225" type="line"/>
      <point x="359" y="225" type="line"/>
    </contour>
  </outline>
</glyph>
<glyph name="parenrightsuperior" format="2">
  <advance width="292"/>
  <unicode hex="207E"/>
  <outline>
    <contour>
      <point x="9" y="196" type="line"/>
      <point x="179" y="247"/>
      <point x="273" y="310"/>
      <point x="273" y="493" type="curve" smooth="yes"/>
      <point x="273" y="682"/>
      <point x="190" y="737"/>
      <point x="9" y="788" type="curve"/>
      <point x="9" y="744" type="line"/>
      <point x="118" y="681"/>
      <point x="134" y="615"/>
      <point x="134" y="493" type="curve"/>
      <point x="134" y="372"/>
      <point x="118" y="302"/>
      <point x="9" y="238" type="curve"/>
    </contour>
  </outline>
</glyph>
<glyph name="uni20A1" format="2">
  <advance width="826"/>
  <unicode hex="20A1"/>
  <outline>
    <contour>
      <point x="480" y="38" type="curve" smooth="yes"/>
      <point x="717" y="38"/>
      <point x="769" y="133"/>
      <point x="769" y="200" type="curve" smooth="yes"/>
      <point x="769" y="217"/>
      <point x="762" y="242"/>
      <point x="752" y="251" type="curve"/>
      <point x="713" y="205"/>
      <point x="647" y="141"/>
      <point x="519" y="141" type="curve" smooth="yes"/>
      <point x="347" y="141"/>
      <point x="291" y="213"/>
      <point x="291" y="359" type="curve" smooth="yes"/>
      <point x="291" y="486"/>
      <point x="328" y="597"/>
      <point x="466" y="597" type="curve" smooth="yes"/>
      <point x="589" y="597"/>
      <point x="618" y="511"/>
      <point x="618" y="439" type="curve"/>
      <point x="737" y="439"/>
      <point x="774" y="485"/>
      <point x="774" y="551" type="curve" smooth="yes"/>
      <point x="774" y="621"/>
      <point x="680" y="676"/>
      <point x="479" y="676" type="curve" smooth="yes"/>
      <point x="192" y="676"/>
      <point x="49" y="549"/>
      <point x="49" y="359" type="curve" smooth="yes"/>
      <point x="49" y="162"/>
      <point x="189" y="38"/>
    </contour>
    <contour>
      <point x="205" y="-60" type="line"/>
      <point x="277" y="-60" type="line"/>
      <point x="540" y="760" type="line"/>
      <point x="473" y="760" type="line"/>
    </contour>
    <contour>
      <point x="344" y="-60" type="line"/>
      <point x="417" y="-60" type="line"/>
      <point x="679" y="760" type="line"/>
      <point x="611" y="760" type="line"/>
    </contour>
  </outline>
</glyph>
<glyph name="peseta" format="2">
  <advance width="1117"/>
  <unicode hex="20A7"/>
  <outline>
    <contour>
      <point x="32" y="0" type="line"/>
      <point x="475" y="0" type="line"/>
      <point x="475" y="66" type="line"/>
      <point x="436" y="66" type="line" smooth="yes"/>
      <point x="385" y="66"/>
      <point x="341" y="74"/>
      <point x="341" y="133" type="curve" smooth="yes"/>
      <point x="341" y="267" type="line"/>
      <point x="384" y="267" type="line" smooth="yes"/>
      <point x="642" y="267"/>
      <point x="732" y="386"/>
      <point x="732" y="505" type="curve" smooth="yes"/>
      <point x="732" y="635"/>
      <point x="633" y="714"/>
      <point x="424" y="714" type="curve"/>
      <point x="32" y="714" type="line"/>
      <point x="32" y="648" type="line"/>
      <point x="47" y="648" type="line" smooth="yes"/>
      <point x="98" y="648"/>
      <point x="142" y="639"/>
      <point x="142" y="580" type="curve" smooth="yes"/>
      <point x="142" y="138" type="line"/>
      <point x="142" y="75"/>
      <point x="99" y="66"/>
      <point x="47" y="66" type="curve" smooth="yes"/>
      <point x="32" y="66" type="line"/>
    </contour>
    <contour>
      <point x="341" y="338" type="line"/>
      <point x="341" y="642" type="line"/>
      <point x="377" y="642" type="line" smooth="yes"/>
      <point x="484" y="642"/>
      <point x="525" y="613"/>
      <point x="525" y="501" type="curve" smooth="yes"/>
      <point x="525" y="374"/>
      <point x="478" y="338"/>
      <point x="364" y="338" type="curve" smooth="yes"/>
    </contour>
    <contour>
      <point x="944" y="-10" type="curve" smooth="yes"/>
      <point x="1006" y="-10"/>
      <point x="1046" y="-3"/>
      <point x="1072" y="7" type="curve"/>
      <point x="1072" y="75" type="line"/>
      <point x="1054" y="72"/>
      <point x="1036" y="68"/>
      <point x="1008" y="68" type="curve" smooth="yes"/>
      <point x="955" y="68"/>
      <point x="932" y="101"/>
      <point x="932" y="165" type="curve" smooth="yes"/>
      <point x="932" y="293" type="line"/>
      <point x="1061" y="293" type="line"/>
      <point x="1061" y="370" type="line"/>
      <point x="932" y="370" type="line"/>
      <point x="932" y="494" type="line"/>
      <point x="849" y="494" type="line"/>
      <point x="834" y="446"/>
      <point x="744" y="352"/>
      <point x="693" y="353" type="curve"/>
      <point x="693" y="293" type="line"/>
      <point x="754" y="293" type="line"/>
      <point x="754" y="145" type="line" smooth="yes"/>
      <point x="754" y="30"/>
      <point x="807" y="-10"/>
    </contour>
  </outline>
</glyph>
<glyph name="uni20A8" format="2">
  <advance width="1430"/>
  <unicode hex="20A8"/>
  <outline>
    <contour>
      <point x="24" y="0" type="line"/>
      <point x="450" y="0" type="line"/>
      <point x="450" y="66" type="line"/>
      <point x="422" y="66" type="line" smooth="yes"/>
      <point x="388" y="66"/>
      <point x="364" y="72"/>
      <point x="364" y="118" type="curve" smooth="yes"/>
      <point x="364" y="304" type="line"/>
      <point x="398" y="304" type="line"/>
      <point x="520" y="90" type="line" smooth="yes"/>
      <point x="564" y="14"/>
      <point x="659" y="0"/>
      <point x="794" y="0" type="curve" smooth="yes"/>
      <point x="848" y="0" type="line"/>
      <point x="848" y="66" type="line"/>
      <point x="840" y="66" type="line" smooth="yes"/>
      <point x="802" y="66"/>
      <point x="776" y="91"/>
      <point x="734" y="155" type="curve" smooth="yes"/>
      <point x="601" y="343" type="line"/>
      <point x="691" y="363"/>
      <point x="767" y="410"/>
      <point x="767" y="525" type="curve" smooth="yes"/>
      <point x="767" y="633"/>
      <point x="677" y="714"/>
      <point x="416" y="714" type="curve" smooth="yes"/>
      <point x="24" y="714" type="line"/>
      <point x="24" y="648" type="line"/>
      <point x="68" y="648" type="line" smooth="yes"/>
      <point x="92" y="648"/>
      <point x="132" y="641"/>
      <point x="132" y="595" type="curve" smooth="yes"/>
      <point x="132" y="118" type="line" smooth="yes"/>
      <point x="132" y="72"/>
      <point x="98" y="66"/>
      <point x="68" y="66" type="curve" smooth="yes"/>
      <point x="24" y="66" type="line"/>
    </contour>
    <contour>
      <point x="364" y="375" type="line"/>
      <point x="364" y="642" type="line"/>
      <point x="386" y="642" type="line" smooth="yes"/>
      <point x="472" y="642"/>
      <point x="519" y="607"/>
      <point x="519" y="511" type="curve" smooth="yes"/>
      <point x="519" y="419"/>
      <point x="479" y="375"/>
      <point x="388" y="375" type="curve" smooth="yes"/>
    </contour>
    <contour>
      <point x="1113" y="-10" type="curve" smooth="yes"/>
      <point x="1295" y="-10"/>
      <point x="1387" y="68"/>
      <point x="1387" y="189" type="curve" smooth="yes"/>
      <point x="1387" y="274"/>
      <point x="1296" y="325"/>
      <point x="1209" y="346" type="curve" smooth="yes"/>
      <point x="1062" y="380"/>
      <point x="1037" y="407"/>
      <point x="1037" y="439" type="curve" smooth="yes"/>
      <point x="1037" y="473"/>
      <point x="1091" y="480"/>
      <point x="1120" y="480" type="curve" smooth="yes"/>
      <point x="1187" y="480"/>
      <point x="1237" y="441"/>
      <point x="1237" y="377" type="curve"/>
      <point x="1322" y="377"/>
      <point x="1360" y="402"/>
      <point x="1360" y="457" type="curve" smooth="yes"/>
      <point x="1360" y="499"/>
      <point x="1299" y="551"/>
      <point x="1140" y="551" type="curve" smooth="yes"/>
      <point x="976" y="551"/>
      <point x="866" y="498"/>
      <point x="866" y="371" type="curve" smooth="yes"/>
      <point x="866" y="277"/>
      <point x="944" y="221"/>
      <point x="1075" y="193" type="curve" smooth="yes"/>
      <point x="1182" y="171"/>
      <point x="1218" y="142"/>
      <point x="1218" y="104" type="curve" smooth="yes"/>
      <point x="1218" y="89"/>
      <point x="1191" y="63"/>
      <point x="1117" y="63" type="curve" smooth="yes"/>
      <point x="1033" y="63"/>
      <point x="978" y="99"/>
      <point x="978" y="196" type="curve"/>
      <point x="910" y="196"/>
      <point x="859" y="174"/>
      <point x="859" y="113" type="curve" smooth="yes"/>
      <point x="859" y="49"/>
      <point x="918" y="-10"/>
    </contour>
  </outline>
</glyph>
<glyph name="afii61248" format="2">
  <advance width="997"/>
  <unicode hex="2105"/>
  <outline>
    <contour>
      <point x="233" y="0" type="line"/>
      <point x="335" y="0" type="line"/>
      <point x="725" y="714" type="line"/>
      <point x="625" y="714" type="line"/>
    </contour>
    <contour>
      <point x="731" y="-10" type="curve" smooth="yes"/>
      <point x="881" y="-10"/>
      <point x="962" y="46"/>
      <point x="962" y="160" type="curve"/>
      <point x="962" y="274"/>
      <point x="874" y="329"/>
      <point x="734" y="329" type="curve" smooth="yes"/>
      <point x="580" y="329"/>
      <point x="500" y="274"/>
      <point x="500" y="160" type="curve" smooth="yes"/>
      <point x="500" y="46"/>
      <point x="584" y="-10"/>
    </contour>
    <contour>
      <point x="732" y="52" type="curve" smooth="yes"/>
      <point x="680" y="52"/>
      <point x="662" y="89"/>
      <point x="662" y="160" type="curve"/>
      <point x="662" y="230"/>
      <point x="680" y="265"/>
      <point x="731" y="265" type="curve" smooth="yes"/>
      <point x="781" y="265"/>
      <point x="801" y="230"/>
      <point x="801" y="160" type="curve" smooth="yes"/>
      <point x="801" y="89"/>
      <point x="783" y="52"/>
    </contour>
    <contour>
      <point x="263" y="381" type="curve" smooth="yes"/>
      <point x="378" y="381"/>
      <point x="434" y="428"/>
      <point x="434" y="474" type="curve" smooth="yes"/>
      <point x="434" y="490"/>
      <point x="426" y="506"/>
      <point x="416" y="511" type="curve"/>
      <point x="398" y="487"/>
      <point x="357" y="454"/>
      <point x="300" y="454" type="curve" smooth="yes"/>
      <point x="229" y="454"/>
      <point x="196" y="489"/>
      <point x="196" y="555" type="curve" smooth="yes"/>
      <point x="196" y="637"/>
      <point x="224" y="653"/>
      <point x="267" y="653" type="curve" smooth="yes"/>
      <point x="307" y="653"/>
      <point x="315" y="608"/>
      <point x="315" y="570" type="curve"/>
      <point x="395" y="570"/>
      <point x="434" y="590"/>
      <point x="434" y="627" type="curve" smooth="yes"/>
      <point x="434" y="679"/>
      <point x="377" y="720"/>
      <point x="258" y="720" type="curve" smooth="yes"/>
      <point x="130" y="720"/>
      <point x="35" y="666"/>
      <point x="35" y="551" type="curve" smooth="yes"/>
      <point x="35" y="434"/>
      <point x="130" y="381"/>
    </contour>
  </outline>
</glyph>
<glyph name="planckconstant" format="2">
  <advance width="850"/>
  <unicode hex="210E"/>
  <outline>
    <contour>
      <point x="619" y="-10" type="curve" smooth="yes"/>
      <point x="705" y="-10"/>
      <point x="780" y="21"/>
      <point x="830" y="47" type="curve"/>
      <point x="806" y="101" type="line"/>
      <point x="779" y="86"/>
      <point x="757" y="78"/>
      <point x="734" y="78" type="curve" smooth="yes"/>
      <point x="707" y="78"/>
      <point x="693" y="89"/>
      <point x="693" y="113" type="curve" smooth="yes"/>
      <point x="693" y="139"/>
      <point x="708" y="189"/>
      <point x="726" y="244" type="curve" smooth="yes"/>
      <point x="735" y="261" type="line" smooth="yes"/>
      <point x="752" y="312"/>
      <point x="768" y="354"/>
      <point x="768" y="417" type="curve" smooth="yes"/>
      <point x="768" y="491"/>
      <point x="713" y="554"/>
      <point x="609" y="554" type="curve" smooth="yes"/>
      <point x="490" y="554"/>
      <point x="416" y="487"/>
      <point x="372" y="434" type="curve"/>
      <point x="359" y="434" type="line"/>
      <point x="376" y="490"/>
      <point x="391" y="521"/>
      <point x="406" y="576" type="curve" smooth="yes"/>
      <point x="451" y="760" type="line"/>
      <point x="125" y="760" type="line"/>
      <point x="112" y="696" type="line"/>
      <point x="121" y="696" type="line" smooth="yes"/>
      <point x="176" y="696"/>
      <point x="203" y="680"/>
      <point x="203" y="649" type="curve" smooth="yes"/>
      <point x="203" y="637"/>
      <point x="200" y="625"/>
      <point x="192" y="596" type="curve" smooth="yes"/>
      <point x="43" y="0" type="line"/>
      <point x="264" y="0" type="line"/>
      <point x="328" y="256" type="line" smooth="yes"/>
      <point x="334" y="276"/>
      <point x="357" y="334"/>
      <point x="381" y="367" type="curve" smooth="yes"/>
      <point x="407" y="399"/>
      <point x="454" y="443"/>
      <point x="498" y="443" type="curve" smooth="yes"/>
      <point x="524" y="443"/>
      <point x="539" y="428"/>
      <point x="539" y="406" type="curve" smooth="yes"/>
      <point x="539" y="384"/>
      <point x="533" y="354"/>
      <point x="524" y="323" type="curve" smooth="yes"/>
      <point x="498" y="239" type="line" smooth="yes"/>
      <point x="484" y="194"/>
      <point x="469" y="136"/>
      <point x="469" y="96" type="curve" smooth="yes"/>
      <point x="469" y="31"/>
      <point x="520" y="-10"/>
    </contour>
  </outline>
</glyph>
<glyph name="prescription" format="2">
  <advance width="1007"/>
  <unicode hex="211E"/>
  <outline>
    <contour>
      <point x="24" y="0" type="line"/>
      <point x="364" y="0" type="line"/>
      <point x="364" y="323" type="line"/>
      <point x="416" y="323" type="line"/>
      <point x="581" y="160" type="line"/>
      <point x="505" y="110" type="line" smooth="yes"/>
      <point x="467" y="83"/>
      <point x="433" y="68"/>
      <point x="404" y="68" type="curve" smooth="yes"/>
      <point x="395" y="68" type="line"/>
      <point x="395" y="0" type="line"/>
      <point x="639" y="0" type="line"/>
      <point x="639" y="68" type="line"/>
      <point x="610" y="68"/>
      <point x="594" y="74"/>
      <point x="594" y="84" type="curve" smooth="yes"/>
      <point x="594" y="95"/>
      <point x="603" y="107"/>
      <point x="623" y="114" type="curve"/>
      <point x="674" y="64" type="line" smooth="yes"/>
      <point x="739" y="1"/>
      <point x="779" y="0"/>
      <point x="893" y="0" type="curve" smooth="yes"/>
      <point x="993" y="0" type="line"/>
      <point x="993" y="66" type="line"/>
      <point x="980" y="66" type="line" smooth="yes"/>
      <point x="941" y="66"/>
      <point x="911" y="87"/>
      <point x="858" y="138" type="curve" smooth="yes"/>
      <point x="778" y="216" type="line"/>
      <point x="844" y="262" type="line" smooth="yes"/>
      <point x="903" y="306"/>
      <point x="928" y="316"/>
      <point x="965" y="316" type="curve" smooth="yes"/>
      <point x="981" y="316" type="line"/>
      <point x="981" y="381" type="line"/>
      <point x="735" y="381" type="line"/>
      <point x="735" y="316" type="line"/>
      <point x="760" y="316"/>
      <point x="776" y="312"/>
      <point x="776" y="295" type="curve" smooth="yes"/>
      <point x="776" y="283"/>
      <point x="751" y="266"/>
      <point x="736" y="261" type="curve"/>
      <point x="629" y="357" type="line"/>
      <point x="704" y="383"/>
      <point x="780" y="445"/>
      <point x="780" y="541" type="curve" smooth="yes"/>
      <point x="780" y="645"/>
      <point x="679" y="714"/>
      <point x="445" y="714" type="curve" smooth="yes"/>
      <point x="24" y="714" type="line"/>
      <point x="24" y="648" type="line"/>
      <point x="75" y="648" type="line" smooth="yes"/>
      <point x="108" y="648"/>
      <point x="132" y="629"/>
      <point x="132" y="583" type="curve" smooth="yes"/>
      <point x="132" y="125" type="line" smooth="yes"/>
      <point x="132" y="79"/>
      <point x="109" y="66"/>
      <point x="68" y="66" type="curve" smooth="yes"/>
      <point x="24" y="66" type="line"/>
    </contour>
    <contour>
      <point x="363" y="394" type="line"/>
      <point x="363" y="642" type="line"/>
      <point x="401" y="642" type="line" smooth="yes"/>
      <point x="484" y="642"/>
      <point x="530" y="607"/>
      <point x="530" y="515" type="curve" smooth="yes"/>
      <point x="530" y="439"/>
      <point x="489" y="394"/>
      <point x="403" y="394" type="curve" smooth="yes"/>
    </contour>
  </outline>
</glyph>
<glyph name="trademark" format="2">
  <advance width="974"/>
  <unicode hex="2122"/>
  <outline>
    <contour>
      <point x="399" y="368" type="line"/>
      <point x="540" y="368" type="line"/>
      <point x="540" y="395" type="line"/>
      <point x="509" y="395"/>
      <point x="493" y="398"/>
      <point x="493" y="425" type="curve" smooth="yes"/>
      <point x="493" y="646" type="line"/>
      <point x="625" y="368" type="line"/>
      <point x="666" y="368" type="line"/>
      <point x="798" y="645" type="line"/>
      <point x="798" y="423" type="line" smooth="yes"/>
      <point x="798" y="400"/>
      <point x="779" y="395"/>
      <point x="752" y="395" type="curve"/>
      <point x="752" y="368" type="line"/>
      <point x="925" y="368" type="line"/>
      <point x="925" y="395" type="line"/>
      <point x="912" y="395" type="line"/>
      <point x="886" y="395"/>
      <point x="868" y="398"/>
      <point x="868" y="425" type="curve" smooth="yes"/>
      <point x="868" y="657" type="line" smooth="yes"/>
      <point x="868" y="684"/>
      <point x="886" y="686"/>
      <point x="912" y="686" type="curve"/>
      <point x="925" y="686" type="line"/>
      <point x="925" y="714" type="line"/>
      <point x="793" y="714" type="line"/>
      <point x="661" y="437" type="line"/>
      <point x="533" y="714" type="line"/>
      <point x="399" y="714" type="line"/>
      <point x="399" y="686" type="line"/>
      <point x="410" y="686" type="line"/>
      <point x="434" y="686"/>
      <point x="456" y="682"/>
      <point x="456" y="657" type="curve" smooth="yes"/>
      <point x="456" y="424" type="line" smooth="yes"/>
      <point x="456" y="400"/>
      <point x="434" y="395"/>
      <point x="410" y="395" type="curve"/>
      <point x="399" y="395" type="line"/>
    </contour>
    <contour>
      <point x="105" y="368" type="line"/>
      <point x="303" y="368" type="line"/>
      <point x="303" y="395" type="line"/>
      <point x="285" y="395" type="line"/>
      <point x="262" y="395"/>
      <point x="241" y="400"/>
      <point x="241" y="427" type="curve" smooth="yes"/>
      <point x="241" y="681" type="line"/>
      <point x="297" y="681" type="line" smooth="yes"/>
      <point x="331" y="681"/>
      <point x="336" y="666"/>
      <point x="340" y="647" type="curve" smooth="yes"/>
      <point x="345" y="622" type="line"/>
      <point x="379" y="622" type="line"/>
      <point x="374" y="714" type="line"/>
      <point x="35" y="714" type="line"/>
      <point x="32" y="622" type="line"/>
      <point x="65" y="622" type="line"/>
      <point x="70" y="647" type="line" smooth="yes"/>
      <point x="74" y="666"/>
      <point x="84" y="681"/>
      <point x="118" y="681" type="curve" smooth="yes"/>
      <point x="168" y="681" type="line"/>
      <point x="168" y="422" type="line" smooth="yes"/>
      <point x="168" y="398"/>
      <point x="148" y="395"/>
      <point x="125" y="395" type="curve"/>
      <point x="105" y="395" type="line"/>
    </contour>
  </outline>
</glyph>
<glyph name="versicle" format="2">
  <advance width="834"/>
  <unicode hex="2123"/>
  <anchor x="418" y="714" name="top"/>
  <anchor x="814" y="714" name="topright"/>
  <anchor x="418" y="0" name="bottom"/>
  <outline>
    <contour>
      <point x="117" y="-129" type="line"/>
      <point x="221" y="-126" type="line"/>
      <point x="649" y="809" type="line"/>
      <point x="367" y="907" type="line"/>
      <point x="329" y="825" type="line"/>
      <point x="527" y="761" type="line"/>
    </contour>
    <component base="V"/>
  </outline>
</glyph>
<glyph name="estimated" format="2">
  <advance width="619"/>
  <unicode hex="212E"/>
  <outline>
    <contour>
      <point x="309" y="-17" type="curve" smooth="yes"/>
      <point x="433" y="-17"/>
      <point x="490" y="45"/>
      <point x="537" y="119" type="curve"/>
      <point x="502" y="139" type="line"/>
      <point x="457" y="67"/>
      <point x="406" y="25"/>
      <point x="309" y="25" type="curve" smooth="yes"/>
      <point x="249" y="25"/>
      <point x="193" y="54"/>
      <point x="164" y="85" type="curve"/>
      <point x="164" y="259" type="line"/>
      <point x="568" y="259" type="line"/>
      <point x="568" y="429"/>
      <point x="456" y="535"/>
      <point x="309" y="535" type="curve" smooth="yes"/>
      <point x="186" y="535"/>
      <point x="50" y="451"/>
      <point x="50" y="259" type="curve" smooth="yes"/>
      <point x="50" y="115"/>
      <point x="140" y="-17"/>
    </contour>
    <contour>
      <point x="164" y="301" type="line"/>
      <point x="164" y="437" type="line"/>
      <point x="195" y="467"/>
      <point x="242" y="494"/>
      <point x="308" y="494" type="curve" smooth="yes"/>
      <point x="377" y="494"/>
      <point x="430" y="462"/>
      <point x="455" y="436" type="curve"/>
      <point x="455" y="301" type="line"/>
    </contour>
  </outline>
</glyph>
<glyph name="alephsymbol" format="2">
  <advance width="753"/>
  <unicode hex="2135"/>
  <outline>
    <contour>
      <point x="609" y="-38" type="curve"/>
      <point x="718" y="47" type="line"/>
      <point x="673" y="98"/>
      <point x="616" y="162"/>
      <point x="545" y="237" type="curve"/>
      <point x="643" y="333"/>
      <point x="698" y="466"/>
      <point x="704" y="585" type="curve"/>
      <point x="539" y="585" type="line"/>
      <point x="540" y="524"/>
      <point x="528" y="429"/>
      <point x="455" y="347" type="curve"/>
      <point x="356" y="451"/>
      <point x="236" y="542"/>
      <point x="144" y="609" type="curve"/>
      <point x="40" y="514" type="line"/>
      <point x="84" y="485"/>
      <point x="143" y="444"/>
      <point x="205" y="384" type="curve"/>
      <point x="92" y="272"/>
      <point x="45" y="140"/>
      <point x="45" y="0" type="curve"/>
      <point x="198" y="0" type="line"/>
      <point x="200" y="112"/>
      <point x="223" y="199"/>
      <point x="299" y="279" type="curve"/>
      <point x="418" y="159"/>
      <point x="528" y="52"/>
    </contour>
  </outline>
</glyph>
<glyph name="symbolforsamaritansource" format="2">
  <advance width="1285"/>
  <unicode hex="214F"/>
  <outline>
    <contour>
      <point x="-12" y="-13" type="line"/>
      <point x="23" y="-13" type="line" smooth="yes"/>
      <point x="106" y="-13"/>
      <point x="168" y="-2"/>
      <point x="217" y="19" type="curve"/>
      <point x="267" y="-1"/>
      <point x="345" y="-13"/>
      <point x="429" y="-13" type="curve" smooth="yes"/>
      <point x="516" y="-13"/>
      <point x="588" y="-3"/>
      <point x="639" y="19" type="curve"/>
      <point x="687" y="-1"/>
      <point x="761" y="-13"/>
      <point x="849" y="-13" type="curve" smooth="yes"/>
      <point x="935" y="-13"/>
      <point x="1010" y="-3"/>
      <point x="1059" y="20" type="curve"/>
      <point x="1107" y="0"/>
      <point x="1174" y="-13"/>
      <point x="1262" y="-13" type="curve" smooth="yes"/>
      <point x="1297" y="-13" type="line"/>
      <point x="1297" y="64" type="line"/>
      <point x="1262" y="64" type="line" smooth="yes"/>
      <point x="1221" y="64"/>
      <point x="1177" y="71"/>
      <point x="1148" y="80" type="curve"/>
      <point x="1222" y="150"/>
      <point x="1250" y="247"/>
      <point x="1250" y="320" type="curve" smooth="yes"/>
      <point x="1250" y="475"/>
      <point x="1189" y="550"/>
      <point x="1067" y="550" type="curve" smooth="yes"/>
      <point x="941" y="550"/>
      <point x="883" y="475"/>
      <point x="883" y="320" type="curve" smooth="yes"/>
      <point x="883" y="246"/>
      <point x="906" y="149"/>
      <point x="980" y="77" type="curve"/>
      <point x="948" y="68"/>
      <point x="901" y="64"/>
      <point x="855" y="64" type="curve" smooth="yes"/>
      <point x="809" y="64"/>
      <point x="759" y="69"/>
      <point x="726" y="79" type="curve"/>
      <point x="801" y="149"/>
      <point x="828" y="247"/>
      <point x="828" y="320" type="curve" smooth="yes"/>
      <point x="828" y="475"/>
      <point x="769" y="550"/>
      <point x="645" y="550" type="curve" smooth="yes"/>
      <point x="522" y="550"/>
      <point x="463" y="475"/>
      <point x="463" y="320" type="curve" smooth="yes"/>
      <point x="463" y="245"/>
      <point x="484" y="149"/>
      <point x="559" y="77" type="curve"/>
      <point x="526" y="68"/>
      <point x="478" y="64"/>
      <point x="435" y="64" type="curve" smooth="yes"/>
      <point x="390" y="64"/>
      <point x="339" y="69"/>
      <point x="307" y="79" type="curve"/>
      <point x="381" y="149"/>
      <point x="407" y="247"/>
      <point x="407" y="320" type="curve" smooth="yes"/>
      <point x="407" y="475"/>
      <point x="349" y="550"/>
      <point x="224" y="550" type="curve" smooth="yes"/>
      <point x="100" y="550"/>
      <point x="40" y="475"/>
      <point x="40" y="320" type="curve" smooth="yes"/>
      <point x="40" y="246"/>
      <point x="66" y="149"/>
      <point x="139" y="77" type="curve"/>
      <point x="104" y="68"/>
      <point x="67" y="64"/>
      <point x="23" y="64" type="curve" smooth="yes"/>
      <point x="-12" y="64" type="line"/>
    </contour>
    <contour>
      <point x="222" y="130" type="curve"/>
      <point x="172" y="182"/>
      <point x="162" y="259"/>
      <point x="162" y="319" type="curve" smooth="yes"/>
      <point x="162" y="418"/>
      <point x="178" y="468"/>
      <point x="222" y="468" type="curve" smooth="yes"/>
      <point x="268" y="468"/>
      <point x="287" y="418"/>
      <point x="287" y="319" type="curve" smooth="yes"/>
      <point x="287" y="259"/>
      <point x="279" y="182"/>
    </contour>
    <contour>
      <point x="645" y="130" type="curve"/>
      <point x="594" y="182"/>
      <point x="584" y="262"/>
      <point x="584" y="319" type="curve" smooth="yes"/>
      <point x="584" y="418"/>
      <point x="601" y="468"/>
      <point x="645" y="468" type="curve" smooth="yes"/>
      <point x="689" y="468"/>
      <point x="706" y="418"/>
      <point x="706" y="319" type="curve" smooth="yes"/>
      <point x="706" y="259"/>
      <point x="701" y="182"/>
    </contour>
    <contour>
      <point x="1067" y="130" type="curve"/>
      <point x="1017" y="182"/>
      <point x="1005" y="262"/>
      <point x="1005" y="319" type="curve" smooth="yes"/>
      <point x="1005" y="418"/>
      <point x="1023" y="468"/>
      <point x="1067" y="468" type="curve" smooth="yes"/>
      <point x="1113" y="468"/>
      <point x="1129" y="418"/>
      <point x="1129" y="319" type="curve" smooth="yes"/>
      <point x="1129" y="258"/>
      <point x="1120" y="182"/>
    </contour>
  </outline>
</glyph>
<glyph name="uni2C72" format="2">
  <advance width="1335"/>
  <unicode hex="2C72"/>
  <anchor x="668" y="0" name="bottom"/>
  <anchor x="668" y="714" name="top"/>
  <outline>
    <contour>
      <point x="304" y="0" type="line"/>
      <point x="476" y="0" type="line"/>
      <point x="645" y="385" type="line"/>
      <point x="803" y="0" type="line"/>
      <point x="970" y="0" type="line"/>
      <point x="1105" y="441" type="line" smooth="yes"/>
      <point x="1143" y="569"/>
      <point x="1166" y="596"/>
      <point x="1216" y="596" type="curve" smooth="yes"/>
      <point x="1253" y="596"/>
      <point x="1271" y="567"/>
      <point x="1271" y="536" type="curve"/>
      <point x="1307" y="542"/>
      <point x="1353" y="567"/>
      <point x="1353" y="625" type="curve" smooth="yes"/>
      <point x="1353" y="679"/>
      <point x="1313" y="720"/>
      <point x="1232" y="720" type="curve" smooth="yes"/>
      <point x="1104" y="720"/>
      <point x="1064" y="650"/>
      <point x="1014" y="496" type="curve" smooth="yes"/>
      <point x="983" y="412" type="line" smooth="yes"/>
      <point x="964" y="355"/>
      <point x="946" y="275"/>
      <point x="936" y="233" type="curve"/>
      <point x="928" y="273"/>
      <point x="909" y="325"/>
      <point x="884" y="387" type="curve" smooth="yes"/>
      <point x="752" y="707" type="line"/>
      <point x="642" y="707" type="line"/>
      <point x="475" y="300" type="line" smooth="yes"/>
      <point x="469" y="291"/>
      <point x="458" y="269"/>
      <point x="447" y="237" type="curve"/>
      <point x="442" y="272"/>
      <point x="416" y="365"/>
      <point x="403" y="402" type="curve" smooth="yes"/>
      <point x="350" y="525" type="line" smooth="yes"/>
      <point x="342" y="547"/>
      <point x="335" y="586"/>
      <point x="335" y="597" type="curve" smooth="yes"/>
      <point x="335" y="632"/>
      <point x="359" y="648"/>
      <point x="406" y="648" type="curve" smooth="yes"/>
      <point x="432" y="648" type="line"/>
      <point x="432" y="714" type="line"/>
      <point x="-7" y="714" type="line"/>
      <point x="-7" y="648" type="line"/>
      <point x="8" y="648" type="line" smooth="yes"/>
      <point x="54" y="648"/>
      <point x="75" y="637"/>
      <point x="91" y="595" type="curve" smooth="yes"/>
    </contour>
  </outline>
</glyph>
<glyph name="raisedsquare" format="2">
  <advance width="596"/>
  <unicode hex="2E0B"/>
  <outline>
    <contour>
      <point x="59" y="305" type="line"/>
      <point x="537" y="305" type="line"/>
      <point x="537" y="714" type="line"/>
      <point x="59" y="714" type="line"/>
    </contour>
    <contour>
      <point x="142" y="375" type="line"/>
      <point x="142" y="644" type="line"/>
      <point x="453" y="644" type="line"/>
      <point x="453" y="375" type="line"/>
    </contour>
  </outline>
</glyph>
<glyph name="leftraisedomissionbracket" format="2">
  <advance width="596"/>
  <unicode hex="2E0C"/>
  <outline>
    <contour>
      <point x="475" y="295" type="line"/>
      <point x="537" y="346" type="line"/>
      <point x="120" y="724" type="line"/>
      <point x="59" y="672" type="line"/>
    </contour>
  </outline>
</glyph>
<glyph name="rightsidewaysubracket" format="2">
  <advance width="1167"/>
  <unicode hex="2E27"/>
  <outline>
    <contour>
      <point x="248" y="193" type="line"/>
      <point x="582" y="193" type="line" smooth="yes"/>
      <point x="745" y="193"/>
      <point x="921" y="195"/>
      <point x="921" y="354" type="curve" smooth="yes"/>
      <point x="921" y="513"/>
      <point x="746" y="515"/>
      <point x="582" y="515" type="curve" smooth="yes"/>
      <point x="248" y="515" type="line"/>
      <point x="248" y="467" type="line"/>
      <point x="582" y="467" type="line" smooth="yes"/>
      <point x="729" y="467"/>
      <point x="867" y="471"/>
      <point x="867" y="354" type="curve" smooth="yes"/>
      <point x="867" y="237"/>
      <point x="729" y="241"/>
      <point x="582" y="241" type="curve" smooth="yes"/>
      <point x="248" y="241" type="line"/>
    </contour>
  </outline>
</glyph>
<glyph name="tophalfsectionsign" format="2">
  <advance width="634"/>
  <unicode hex="2E39"/>
  <outline>
    <contour>
      <point x="428" y="86" type="curve"/>
      <point x="574" y="182"/>
      <point x="600" y="256"/>
      <point x="600" y="294" type="curve" smooth="yes"/>
      <point x="600" y="390"/>
      <point x="526" y="438"/>
      <point x="335" y="514" type="curve" smooth="yes"/>
      <point x="272" y="539"/>
      <point x="227" y="553"/>
      <point x="227" y="609" type="curve" smooth="yes"/>
      <point x="227" y="665"/>
      <point x="270" y="698"/>
      <point x="327" y="698" type="curve" smooth="yes"/>
      <point x="406" y="698"/>
      <point x="422" y="611"/>
      <point x="422" y="554" type="curve"/>
      <point x="509" y="554"/>
      <point x="553" y="599"/>
      <point x="553" y="640" type="curve" smooth="yes"/>
      <point x="553" y="712"/>
      <point x="474" y="760"/>
      <point x="331" y="760" type="curve" smooth="yes"/>
      <point x="192" y="760"/>
      <point x="90" y="699"/>
      <point x="90" y="597" type="curve" smooth="yes"/>
      <point x="90" y="535"/>
      <point x="120" y="486"/>
      <point x="145" y="467" type="curve"/>
      <point x="97" y="452"/>
      <point x="64" y="414"/>
      <point x="64" y="375" type="curve" smooth="yes"/>
      <point x="64" y="297"/>
      <point x="117" y="239"/>
      <point x="250" y="183" type="curve" smooth="yes"/>
      <point x="364" y="136"/>
      <point x="407" y="106"/>
    </contour>
    <contour>
      <point x="455" y="228" type="curve"/>
      <point x="432" y="243"/>
      <point x="402" y="253"/>
      <point x="350" y="276" type="curve" smooth="yes"/>
      <point x="232" y="324"/>
      <point x="190" y="348"/>
      <point x="190" y="405" type="curve" smooth="yes"/>
      <point x="190" y="410"/>
      <point x="194" y="422"/>
      <point x="201" y="430" type="curve"/>
      <point x="236" y="414"/>
      <point x="279" y="397"/>
      <point x="329" y="379" type="curve" smooth="yes"/>
      <point x="436" y="340"/>
      <point x="465" y="301"/>
      <point x="465" y="257" type="curve" smooth="yes"/>
      <point x="465" y="246"/>
      <point x="461" y="234"/>
    </contour>
  </outline>
</glyph>
<glyph name="uniA65E" format="2">
  <advance width="1054"/>
  <unicode hex="A65E"/>
  <outline>
    <contour>
      <point x="295" y="-217" type="line"/>
      <point x="744" y="-217" type="line"/>
      <point x="744" y="-151" type="line"/>
      <point x="680" y="-151" type="line" smooth="yes"/>
      <point x="656" y="-151"/>
      <point x="636" y="-129"/>
      <point x="635" y="-107" type="curve" smooth="yes"/>
      <point x="608" y="404" type="line"/>
      <point x="713" y="134" type="line" smooth="yes"/>
      <point x="715" y="128"/>
      <point x="723" y="102"/>
      <point x="723" y="87" type="curve" smooth="yes"/>
      <point x="723" y="71"/>
      <point x="705" y="66"/>
      <point x="689" y="66" type="curve" smooth="yes"/>
      <point x="674" y="66" type="line"/>
      <point x="674" y="0" type="line"/>
      <point x="1054" y="0" type="line"/>
      <point x="1054" y="66" type="line"/>
      <point x="1031" y="66" type="line" smooth="yes"/>
      <point x="991" y="66"/>
      <point x="967" y="77"/>
      <point x="954" y="110" type="curve" smooth="yes"/>
      <point x="708" y="714" type="line"/>
      <point x="440" y="714" type="line"/>
      <point x="273" y="278" type="line" smooth="yes"/>
      <point x="225" y="147"/>
      <point x="193" y="118"/>
      <point x="143" y="118" type="curve" smooth="yes"/>
      <point x="107" y="118"/>
      <point x="89" y="147"/>
      <point x="89" y="178" type="curve"/>
      <point x="53" y="172"/>
      <point x="7" y="147"/>
      <point x="7" y="89" type="curve" smooth="yes"/>
      <point x="7" y="35"/>
      <point x="47" y="-6"/>
      <point x="128" y="-6" type="curve" smooth="yes"/>
      <point x="255" y="-6"/>
      <point x="308" y="75"/>
      <point x="360" y="227" type="curve" smooth="yes"/>
      <point x="426" y="403" type="line"/>
      <point x="402" y="-110" type="line" smooth="yes"/>
      <point x="401" y="-133"/>
      <point x="378" y="-151"/>
      <point x="356" y="-151" type="curve"/>
      <point x="295" y="-151" type="line"/>
    </contour>
  </outline>
</glyph>
<glyph name="uniA66F" format="2">
  <unicode hex="A66F"/>
  <anchor x="2" y="536" name="_top"/>
  <outline>
    <contour>
      <point x="-158" y="554" type="curve" smooth="yes"/>
      <point x="-117" y="554"/>
      <point x="-93" y="582"/>
      <point x="-91" y="606" type="curve"/>
      <point x="87" y="606" type="line"/>
      <point x="88" y="578"/>
      <point x="114" y="554"/>
      <point x="155" y="554" type="curve" smooth="yes"/>
      <point x="209" y="554"/>
      <point x="231" y="577"/>
      <point x="231" y="618" type="curve" smooth="yes"/>
      <point x="231" y="661"/>
      <point x="204" y="703"/>
      <point x="154" y="703" type="curve" smooth="yes"/>
      <point x="-157" y="703" type="line" smooth="yes"/>
      <point x="-209" y="703"/>
      <point x="-231" y="657"/>
      <point x="-231" y="620" type="curve" smooth="yes"/>
      <point x="-231" y="577"/>
      <point x="-214" y="554"/>
    </contour>
  </outline>
</glyph>
<glyph name="uniA684" format="2">
  <advance width="1635"/>
  <unicode hex="A684"/>
  <outline>
    <contour>
      <point x="338" y="-11" type="curve" smooth="yes"/>
      <point x="542" y="-11"/>
      <point x="710" y="48"/>
      <point x="710" y="205" type="curve" smooth="yes"/>
      <point x="710" y="279"/>
      <point x="662" y="322"/>
      <point x="605" y="347" type="curve"/>
      <point x="885" y="347" type="line"/>
      <point x="885" y="118" type="line" smooth="yes"/>
      <point x="885" y="72"/>
      <point x="871" y="66"/>
      <point x="829" y="66" type="curve" smooth="yes"/>
      <point x="769" y="66" type="line"/>
      <point x="769" y="0" type="line"/>
      <point x="1220" y="0" type="line"/>
      <point x="1220" y="66" type="line"/>
      <point x="1161" y="66" type="line" smooth="yes"/>
      <point x="1117" y="66"/>
      <point x="1103" y="73"/>
      <point x="1103" y="123" type="curve" smooth="yes"/>
      <point x="1103" y="323" type="line"/>
      <point x="1150" y="323"/>
      <point x="1183" y="315"/>
      <point x="1213" y="268" type="curve" smooth="yes"/>
      <point x="1324" y="97" type="line" smooth="yes"/>
      <point x="1355" y="52"/>
      <point x="1405" y="0"/>
      <point x="1504" y="0" type="curve" smooth="yes"/>
      <point x="1635" y="0" type="line"/>
      <point x="1635" y="66" type="line"/>
      <point x="1626" y="66" type="line" smooth="yes"/>
      <point x="1580" y="66"/>
      <point x="1547" y="95"/>
      <point x="1501" y="168" type="curve" smooth="yes"/>
      <point x="1436" y="266" type="line" smooth="yes"/>
      <point x="1388" y="345"/>
      <point x="1323" y="379"/>
      <point x="1253" y="387" type="curve"/>
      <point x="1291" y="406"/>
      <point x="1321" y="433"/>
      <point x="1373" y="519" type="curve" smooth="yes"/>
      <point x="1423" y="599"/>
      <point x="1437" y="622"/>
      <point x="1486" y="622" type="curve" smooth="yes"/>
      <point x="1525" y="622"/>
      <point x="1541" y="598"/>
      <point x="1549" y="575" type="curve"/>
      <point x="1588" y="582"/>
      <point x="1607" y="608"/>
      <point x="1607" y="640" type="curve" smooth="yes"/>
      <point x="1607" y="691"/>
      <point x="1565" y="720"/>
      <point x="1502" y="720" type="curve" smooth="yes"/>
      <point x="1418" y="720"/>
      <point x="1376" y="691"/>
      <point x="1305" y="557" type="curve" smooth="yes"/>
      <point x="1266" y="483"/>
      <point x="1223" y="437"/>
      <point x="1201" y="421" type="curve" smooth="yes"/>
      <point x="1173" y="397"/>
      <point x="1145" y="394"/>
      <point x="1103" y="394" type="curve"/>
      <point x="1103" y="591" type="line" smooth="yes"/>
      <point x="1103" y="641"/>
      <point x="1117" y="648"/>
      <point x="1161" y="648" type="curve" smooth="yes"/>
      <point x="1220" y="648" type="line"/>
      <point x="1220" y="714" type="line"/>
      <point x="769" y="714" type="line"/>
      <point x="769" y="648" type="line"/>
      <point x="829" y="648" type="line" smooth="yes"/>
      <point x="871" y="648"/>
      <point x="885" y="641"/>
      <point x="885" y="595" type="curve" smooth="yes"/>
      <point x="885" y="423" type="line"/>
      <point x="584" y="423" type="line"/>
      <point x="640" y="451"/>
      <point x="679" y="488"/>
      <point x="679" y="546" type="curve" smooth="yes"/>
      <point x="679" y="662"/>
      <point x="566" y="724"/>
      <point x="359" y="724" type="curve" smooth="yes"/>
      <point x="155" y="724"/>
      <point x="64" y="654"/>
      <point x="64" y="589" type="curve" smooth="yes"/>
      <point x="64" y="500"/>
      <point x="148" y="486"/>
      <point x="248" y="486" type="curve"/>
      <point x="248" y="592"/>
      <point x="272" y="650"/>
      <point x="358" y="650" type="curve" smooth="yes"/>
      <point x="426" y="650"/>
      <point x="460" y="610"/>
      <point x="460" y="542" type="curve" smooth="yes"/>
      <point x="460" y="442"/>
      <point x="408" y="406"/>
      <point x="281" y="406" type="curve" smooth="yes"/>
      <point x="175" y="406" type="line"/>
      <point x="175" y="331" type="line"/>
      <point x="288" y="331" type="line" smooth="yes"/>
      <point x="442" y="331"/>
      <point x="495" y="284"/>
      <point x="495" y="191" type="curve" smooth="yes"/>
      <point x="495" y="114"/>
      <point x="440" y="65"/>
      <point x="345" y="65" type="curve" smooth="yes"/>
      <point x="238" y="65"/>
      <point x="184" y="134"/>
      <point x="172" y="271" type="curve"/>
      <point x="74" y="271"/>
      <point x="25" y="227"/>
      <point x="25" y="160" type="curve" smooth="yes"/>
      <point x="25" y="61"/>
      <point x="118" y="-11"/>
    </contour>
  </outline>
</glyph>
<glyph name="uniA693" format="2">
  <advance width="1033"/>
  <unicode hex="A693"/>
  <outline>
    <contour>
      <point x="573" y="0" type="line"/>
      <point x="992" y="0" type="line"/>
      <point x="992" y="66" type="line"/>
      <point x="980" y="66" type="line" smooth="yes"/>
      <point x="928" y="66"/>
      <point x="906" y="85"/>
      <point x="906" y="133" type="curve" smooth="yes"/>
      <point x="906" y="398" type="line" smooth="yes"/>
      <point x="906" y="446"/>
      <point x="930" y="470"/>
      <point x="971" y="470" type="curve" smooth="yes"/>
      <point x="989" y="470" type="line"/>
      <point x="989" y="536" type="line"/>
      <point x="629" y="536" type="line"/>
      <point x="629" y="470" type="line"/>
      <point x="638" y="470" type="line" smooth="yes"/>
      <point x="666" y="470"/>
      <point x="679" y="456"/>
      <point x="679" y="408" type="curve" smooth="yes"/>
      <point x="679" y="275" type="line"/>
      <point x="635" y="265"/>
      <point x="579" y="259"/>
      <point x="525" y="259" type="curve" smooth="yes"/>
      <point x="456" y="259"/>
      <point x="418" y="279"/>
      <point x="418" y="347" type="curve" smooth="yes"/>
      <point x="418" y="455" type="line"/>
      <point x="432" y="455" type="line" smooth="yes"/>
      <point x="476" y="455"/>
      <point x="490" y="438"/>
      <point x="494" y="399" type="curve" smooth="yes"/>
      <point x="499" y="353" type="line"/>
      <point x="597" y="353" type="line"/>
      <point x="589" y="536" type="line"/>
      <point x="19" y="536" type="line"/>
      <point x="11" y="353" type="line"/>
      <point x="109" y="353" type="line"/>
      <point x="114" y="399" type="line" smooth="yes"/>
      <point x="118" y="438"/>
      <point x="140" y="455"/>
      <point x="178" y="455" type="curve" smooth="yes"/>
      <point x="191" y="455" type="line"/>
      <point x="191" y="325" type="line" smooth="yes"/>
      <point x="191" y="209"/>
      <point x="269" y="159"/>
      <point x="426" y="159" type="curve" smooth="yes"/>
      <point x="542" y="159"/>
      <point x="625" y="183"/>
      <point x="679" y="196" type="curve"/>
      <point x="679" y="133" type="line" smooth="yes"/>
      <point x="679" y="74"/>
      <point x="647" y="66"/>
      <point x="596" y="66" type="curve" smooth="yes"/>
      <point x="573" y="66" type="line"/>
    </contour>
  </outline>
</glyph>
<glyph name="uniA717" format="2">
  <advance width="403"/>
  <unicode hex="A717"/>
  <outline>
    <contour>
      <point x="267" y="636" type="line"/>
      <point x="363" y="636" type="line"/>
      <point x="363" y="955" type="line"/>
      <point x="267" y="955" type="line"/>
    </contour>
    <contour>
      <point x="116" y="719" type="curve" smooth="yes"/>
      <point x="154" y="719"/>
      <point x="194" y="739"/>
      <point x="194" y="789" type="curve" smooth="yes"/>
      <point x="194" y="839"/>
      <point x="154" y="857"/>
      <point x="116" y="857" type="curve" smooth="yes"/>
      <point x="79" y="857"/>
      <point x="40" y="839"/>
      <point x="40" y="789" type="curve" smooth="yes"/>
      <point x="40" y="739"/>
      <point x="79" y="719"/>
    </contour>
  </outline>
</glyph>
<glyph name="uniA722" format="2">
  <advance width="475"/>
  <unicode hex="A722"/>
  <outline>
    <contour>
      <point x="158" y="378" type="line"/>
      <point x="285" y="378"/>
      <point x="421" y="425"/>
      <point x="421" y="563" type="curve" smooth="yes"/>
      <point x="421" y="684"/>
      <point x="319" y="726"/>
      <point x="199" y="726" type="curve" smooth="yes"/>
      <point x="113" y="726"/>
      <point x="60" y="694"/>
      <point x="60" y="630" type="curve" smooth="yes"/>
      <point x="60" y="614"/>
      <point x="65" y="601"/>
      <point x="71" y="585" type="curve"/>
      <point x="98" y="595"/>
      <point x="137" y="601"/>
      <point x="199" y="601" type="curve" smooth="yes"/>
      <point x="274" y="601"/>
      <point x="334" y="592"/>
      <point x="334" y="546" type="curve" smooth="yes"/>
      <point x="334" y="498"/>
      <point x="273" y="468"/>
      <point x="158" y="468" type="curve"/>
    </contour>
    <contour>
      <point x="158" y="0" type="line"/>
      <point x="285" y="0"/>
      <point x="421" y="47"/>
      <point x="421" y="185" type="curve" smooth="yes"/>
      <point x="421" y="307"/>
      <point x="319" y="348"/>
      <point x="199" y="348" type="curve" smooth="yes"/>
      <point x="113" y="348"/>
      <point x="60" y="315"/>
      <point x="60" y="253" type="curve" smooth="yes"/>
      <point x="60" y="237"/>
      <point x="65" y="222"/>
      <point x="71" y="208" type="curve"/>
      <point x="98" y="216"/>
      <point x="137" y="223"/>
      <point x="198" y="223" type="curve" smooth="yes"/>
      <point x="274" y="223"/>
      <point x="334" y="213"/>
      <point x="334" y="168" type="curve" smooth="yes"/>
      <point x="334" y="121"/>
      <point x="273" y="90"/>
      <point x="158" y="90" type="curve"/>
    </contour>
  </outline>
</glyph>
